<?xml version="1.0" standalone="no"?>
<!DOCTYPE svg PUBLIC "-//W3C//DTD SVG 20010904//EN"
 "http://www.w3.org/TR/2001/REC-SVG-20010904/DTD/svg10.dtd">
<svg version="1.0" xmlns="http://www.w3.org/2000/svg"
 width="512.000000pt" height="512.000000pt" viewBox="0 0 512.000000 512.000000"
 preserveAspectRatio="xMidYMid meet">

<g transform="translate(0.000000,512.000000) scale(0.100000,-0.100000)"
fill="" stroke="none">
<path d="M575 4960 c-156 -33 -297 -142 -363 -283 -45 -95 -52 -147 -52 -407
l0 -240 2400 0 2400 0 0 240 c0 136 -5 262 -11 292 -35 167 -166 316 -335 380
l-59 23 -1970 1 c-1084 1 -1988 -2 -2010 -6z m222 -321 c35 -13 80 -55 100
-93 24 -46 20 -128 -10 -178 -72 -123 -252 -123 -324 0 -30 51 -35 130 -10
177 19 37 64 81 97 94 34 13 112 13 147 0z m530 0 c104 -39 149 -172 91 -270
-69 -118 -240 -125 -317 -13 -65 94 -28 234 74 280 36 16 113 18 152 3z m536
-3 c70 -29 126 -129 112 -199 -32 -151 -199 -213 -311 -115 -47 42 -64 77 -64
138 0 83 32 136 105 174 37 19 115 21 158 2z m2626 -1 c70 -36 110 -123 91
-195 -13 -47 -58 -103 -97 -119 -20 -8 -243 -11 -815 -9 -777 3 -787 3 -814
24 -61 45 -85 109 -70 188 8 43 49 94 91 112 47 21 1574 20 1614 -1z"/>
<path d="M674 4564 c-81 -40 -84 -158 -4 -199 103 -53 211 57 153 156 -18 30
-67 59 -100 59 -10 0 -32 -7 -49 -16z"/>
<path d="M1204 4564 c-81 -40 -84 -158 -4 -199 102 -53 208 52 155 154 -14 29
-69 61 -102 61 -10 0 -32 -7 -49 -16z"/>
<path d="M1745 4570 c-87 -36 -97 -163 -15 -205 78 -40 170 13 170 98 0 79
-83 137 -155 107z"/>
<path d="M2884 4546 c-44 -44 -45 -83 -5 -128 l29 -33 759 -3 c557 -2 765 1
786 9 30 13 57 55 57 89 0 33 -26 75 -55 88 -19 9 -217 12 -781 12 l-756 0
-34 -34z"/>
<path d="M160 2285 c0 -1183 3 -1690 11 -1727 17 -80 64 -171 121 -233 64 -70
119 -108 205 -143 l68 -27 1995 0 1995 0 68 27 c86 35 141 73 205 143 57 62
104 153 121 233 8 37 11 544 11 1727 l0 1675 -2400 0 -2400 0 0 -1675z m1047
1419 c21 -16 48 -50 61 -75 23 -44 23 -47 20 -390 l-3 -346 -28 -40 c-15 -22
-45 -49 -66 -61 -37 -21 -49 -22 -329 -22 -181 0 -301 4 -319 11 -40 15 -82
57 -104 104 -17 36 -19 70 -19 360 0 190 4 335 10 357 13 47 52 93 99 118 34
18 56 19 338 17 l301 -2 39 -31z m2272 16 c48 -24 87 -70 101 -118 13 -50 13
-645 -1 -695 -13 -47 -63 -106 -106 -123 -25 -11 -102 -14 -326 -14 l-293 0
-46 29 c-30 19 -52 44 -67 73 -20 43 -21 57 -21 376 0 362 2 376 58 436 50 53
63 55 375 56 266 0 291 -1 326 -20z m-1765 -152 c8 -13 8 -23 0 -35 -9 -15
-28 -19 -104 -21 -95 -3 -120 5 -120 37 0 35 22 42 119 39 77 -2 96 -6 105
-20z m674 10 c18 -18 14 -46 -7 -58 -12 -6 -116 -10 -268 -10 -256 0 -273 3
-273 40 0 38 17 40 280 40 186 0 259 -3 268 -12z m1620 0 c18 -18 14 -46 -7
-58 -28 -14 -184 -13 -199 2 -16 16 -15 55 1 61 26 11 193 7 205 -5z m676 -4
c9 -8 16 -19 16 -24 0 -5 -7 -16 -16 -24 -13 -14 -52 -16 -268 -16 -259 0
-276 2 -276 40 0 38 17 40 276 40 216 0 255 -2 268 -16z m-2634 -299 c6 -8 10
-22 8 -32 -3 -17 -22 -18 -283 -18 -262 0 -280 1 -283 18 -9 47 -9 47 276 47
223 0 272 -2 282 -15z m340 0 c6 -8 9 -23 5 -35 -6 -20 -13 -20 -127 -18 -100
3 -123 6 -131 20 -8 12 -7 21 2 32 19 22 232 23 251 1z m1961 -1 c9 -11 10
-20 2 -32 -9 -15 -39 -17 -284 -17 -256 0 -274 1 -277 18 -9 47 -9 47 276 47
234 0 271 -2 283 -16z m342 -6 c8 -12 7 -21 -2 -32 -11 -13 -36 -16 -132 -16
-110 0 -118 1 -124 20 -14 43 9 51 133 48 94 -2 117 -6 125 -20z m-2636 -294
c3 -9 2 -24 -4 -33 -9 -14 -42 -16 -278 -16 -236 0 -269 2 -278 16 -6 9 -7 24
-4 33 6 14 36 16 282 16 246 0 276 -2 282 -16z m2298 -4 c15 -48 2 -51 -289
-48 -252 3 -271 4 -274 21 -9 47 -10 47 282 47 268 0 275 0 281 -20z m-3168
-428 c24 -12 55 -41 70 -64 l28 -41 3 -336 c3 -360 1 -387 -45 -442 -55 -65
-76 -69 -388 -69 -250 0 -284 2 -320 19 -50 22 -91 69 -105 119 -6 22 -10 168
-10 358 l0 320 26 52 c25 51 65 85 122 102 15 5 151 8 302 7 265 -2 277 -3
317 -25z m2305 -4 c35 -21 53 -41 73 -82 l26 -53 -3 -341 -3 -340 -30 -44
c-18 -25 -49 -52 -75 -65 -43 -22 -54 -23 -322 -23 -229 0 -285 3 -316 15 -49
21 -81 52 -103 100 -17 36 -19 71 -19 374 0 320 1 337 21 378 24 49 67 86 119
102 21 6 146 9 310 8 l275 -2 47 -27z m-1777 -163 l0 -30 -110 0 c-98 0 -110
2 -113 18 -9 44 2 48 115 45 l108 -3 0 -30z m676 19 c9 -11 10 -20 2 -32 -9
-15 -39 -17 -273 -17 -234 0 -264 2 -273 17 -8 12 -7 21 2 32 12 14 48 16 271
16 223 0 259 -2 271 -16z m1620 0 c9 -11 10 -20 2 -32 -8 -14 -28 -17 -114
-17 -92 0 -104 2 -107 18 -8 42 3 47 106 47 79 0 102 -3 113 -16z m680 0 c9
-11 10 -20 2 -32 -9 -15 -39 -17 -279 -17 -251 0 -269 1 -272 18 -9 47 -9 47
271 47 229 0 266 -2 278 -16z m-2650 -284 c21 -12 25 -40 7 -58 -17 -17 -529
-17 -546 0 -17 17 -15 45 6 57 23 14 507 14 533 1z m340 0 c21 -12 25 -40 7
-58 -8 -8 -50 -12 -123 -12 -110 0 -135 7 -135 36 0 34 30 44 131 44 55 0 109
-5 120 -10z m1963 -6 c9 -8 16 -21 16 -28 0 -33 -22 -36 -281 -36 -142 0 -264
3 -273 6 -21 8 -20 50 2 63 10 6 116 11 269 11 216 0 254 -2 267 -16z m340 0
c9 -8 16 -21 16 -28 0 -29 -25 -36 -135 -36 -114 0 -135 6 -135 42 0 29 31 37
137 38 79 0 105 -3 117 -16z m-2636 -296 c18 -18 14 -46 -7 -58 -26 -14 -506
-14 -532 0 -21 12 -25 40 -7 58 17 17 529 17 546 0z m2300 0 c16 -16 15 -33
-4 -52 -13 -14 -52 -16 -273 -16 -186 0 -260 3 -269 12 -16 16 -15 55 1 61 6
3 129 6 273 6 190 1 263 -2 272 -11z m-3173 -437 c49 -22 91 -69 105 -119 8
-24 10 -151 8 -373 l-3 -336 -28 -41 c-15 -23 -46 -52 -70 -64 -41 -22 -50
-23 -332 -23 l-290 0 -47 27 c-34 21 -53 41 -72 80 l-26 52 0 320 c0 190 4
336 10 358 14 50 55 97 105 119 36 17 70 19 320 19 250 0 284 -2 320 -19z
m2305 -3 c26 -14 57 -41 75 -66 l30 -44 3 -340 3 -341 -25 -51 c-31 -63 -87
-102 -160 -111 -28 -4 -161 -5 -296 -3 -232 3 -247 4 -287 26 -24 12 -55 41
-70 64 l-28 41 -3 336 c-3 360 -1 387 45 442 55 65 76 69 388 69 272 0 282 -1
325 -22z m-1779 -138 c21 -12 25 -40 7 -58 -8 -8 -46 -12 -103 -12 -92 0 -115
8 -115 40 0 32 23 40 108 40 46 0 92 -5 103 -10z m680 0 c21 -12 25 -40 7 -58
-17 -17 -519 -17 -536 0 -17 17 -15 45 6 57 23 14 497 14 523 1z m1620 0 c21
-12 25 -40 7 -58 -13 -13 -173 -17 -202 -6 -19 7 -21 45 -4 62 15 15 171 16
199 2z m683 -6 c19 -18 19 -20 6 -45 -10 -18 -24 -19 -268 -19 -267 0 -282 2
-282 42 0 33 31 37 282 38 211 0 249 -2 262 -16z m-2636 -296 c18 -18 14 -46
-7 -58 -12 -6 -115 -10 -266 -10 -151 0 -254 4 -266 10 -21 12 -25 40 -7 58
17 17 529 17 546 0z m340 0 c18 -18 14 -46 -7 -58 -21 -11 -181 -14 -218 -4
-27 7 -39 40 -23 59 16 19 229 22 248 3z m1962 -3 c16 -19 4 -52 -23 -59 -39
-10 -497 -7 -518 4 -18 10 -26 50 -12 63 3 4 127 7 273 7 222 0 270 -2 280
-15z m340 0 c16 -19 4 -52 -23 -59 -37 -10 -197 -7 -218 4 -21 12 -25 40 -7
58 19 19 232 16 248 -3z m-2633 -301 c3 -9 2 -24 -4 -33 -9 -14 -43 -16 -284
-16 -256 0 -274 1 -277 18 -9 47 -10 47 283 47 246 0 276 -2 282 -16z m2294 0
c9 -11 10 -20 2 -32 -9 -15 -39 -17 -284 -17 -256 0 -274 1 -277 18 -9 47 -9
47 276 47 234 0 271 -2 283 -16z"/>
<path d="M585 3662 c-31 -11 -50 -25 -68 -52 -15 -22 -17 -61 -17 -353 0 -366
2 -376 65 -403 51 -21 544 -20 585 1 61 31 60 28 60 392 0 354 -2 368 -49 400
-23 16 -56 18 -291 20 -146 1 -274 -1 -285 -5z"/>
<path d="M2873 3659 c-17 -5 -41 -22 -52 -38 -20 -28 -21 -42 -21 -368 0 -371
-1 -367 60 -398 41 -21 534 -22 585 -1 63 27 65 37 65 404 0 442 26 412 -357
411 -136 0 -262 -5 -280 -10z"/>
<path d="M558 2474 c-56 -30 -58 -43 -58 -405 l0 -331 34 -34 34 -34 287 0
287 0 34 34 34 34 0 339 c0 371 1 367 -60 398 -42 22 -552 21 -592 -1z"/>
<path d="M2864 2480 c-12 -4 -31 -21 -43 -36 -20 -26 -21 -35 -21 -360 0 -218
4 -341 11 -357 25 -54 43 -57 349 -57 l282 0 34 34 34 34 0 331 c0 364 -2 376
-60 406 -24 12 -76 15 -297 14 -147 0 -278 -4 -289 -9z"/>
<path d="M583 1309 c-17 -5 -43 -23 -57 -40 l-26 -31 0 -329 c0 -362 2 -374
60 -404 43 -22 547 -22 590 0 61 31 60 27 60 396 l0 337 -26 31 c-14 17 -42
35 -62 41 -46 12 -495 12 -539 -1z"/>
<path d="M2875 1305 c-22 -8 -41 -15 -42 -15 -1 0 -9 -13 -18 -30 -13 -24 -15
-83 -15 -362 0 -365 -1 -362 60 -393 43 -22 547 -22 590 0 58 30 60 42 60 404
l0 329 -26 31 c-14 17 -42 35 -62 41 -59 16 -499 12 -547 -5z"/>
</g>
</svg>
