<?xml version="1.0" standalone="no"?>
<!DOCTYPE svg PUBLIC "-//W3C//DTD SVG 20010904//EN"
 "http://www.w3.org/TR/2001/REC-SVG-20010904/DTD/svg10.dtd">
<svg version="1.0" xmlns="http://www.w3.org/2000/svg"
 width="512.000000pt" height="512.000000pt" viewBox="0 0 512.000000 512.000000"
 preserveAspectRatio="xMidYMid meet">

<g transform="translate(0.000000,512.000000) scale(0.100000,-0.100000)"
fill="#000000" stroke="none">
<path d="M2370 5114 c-19 -2 -78 -9 -130 -14 -330 -36 -695 -160 -990 -336
-375 -224 -680 -529 -904 -904 -173 -290 -294 -643 -336 -980 -13 -109 -13
-531 0 -640 96 -778 555 -1476 1240 -1884 670 -400 1508 -465 2245 -174 112
44 352 166 401 203 50 38 78 105 71 172 -11 101 -79 169 -180 180 -50 5 -58 2
-187 -65 -338 -176 -627 -256 -975 -269 -950 -37 -1827 576 -2124 1483 -96
294 -130 585 -101 875 33 330 156 694 320 943 291 445 681 750 1156 905 625
204 1283 121 1841 -233 51 -32 109 -62 130 -67 156 -36 291 130 224 276 -23
50 -43 68 -161 142 -315 199 -668 324 -1050 373 -88 12 -429 21 -490 14z"/>
<path d="M4843 4698 c-17 -6 -45 -22 -62 -37 -16 -14 -501 -613 -1077 -1331
-576 -718 -1056 -1313 -1068 -1322 -34 -28 -81 -33 -120 -12 -19 11 -269 241
-554 512 -286 271 -530 501 -543 511 -79 60 -185 52 -257 -19 -72 -73 -81
-182 -19 -259 34 -43 1023 -982 1097 -1042 205 -166 490 -155 676 26 66 64
2148 2650 2171 2697 79 158 -73 331 -244 276z"/>
<path d="M4760 3334 c-106 -46 -140 -141 -105 -293 46 -195 65 -462 46 -661
-33 -346 -138 -659 -321 -960 -76 -126 -85 -171 -47 -253 19 -42 35 -61 68
-80 58 -34 110 -42 163 -27 74 20 116 71 232 280 296 536 387 1186 249 1786
-20 87 -32 118 -57 148 -57 69 -151 94 -228 60z"/>
</g>
</svg>
