<?xml version="1.0" standalone="no"?>
<!DOCTYPE svg PUBLIC "-//W3C//DTD SVG 20010904//EN"
 "http://www.w3.org/TR/2001/REC-SVG-20010904/DTD/svg10.dtd">
<svg version="1.0" xmlns="http://www.w3.org/2000/svg"
 width="512.000000pt" height="512.000000pt" viewBox="0 0 512.000000 512.000000"
 preserveAspectRatio="xMidYMid meet">

<g transform="translate(0.000000,512.000000) scale(0.100000,-0.100000)"
fill="#000000" stroke="none">
<path d="M2900 5114 c-323 -47 -534 -152 -740 -371 -389 -413 -421 -1051 -75
-1503 61 -79 199 -208 280 -262 587 -386 1368 -184 1687 438 115 224 156 491
113 735 -88 501 -499 893 -1005 959 -72 9 -208 11 -260 4z m-103 -866 l213
-213 213 213 c164 163 219 212 238 212 31 0 55 -18 64 -48 6 -21 -19 -50 -211
-243 l-219 -219 214 -214 c169 -169 214 -219 214 -240 0 -36 -20 -56 -56 -56
-27 0 -59 28 -245 213 l-213 212 -207 -213 c-185 -190 -210 -212 -239 -212
-33 0 -63 29 -63 59 0 8 66 82 148 165 81 83 176 181 212 219 l64 67 -206 207
c-113 115 -209 218 -213 231 -10 33 18 72 53 72 22 0 67 -40 239 -212z"/>
<path d="M555 3581 c-52 -24 -103 -75 -126 -126 -18 -38 -19 -99 -19 -1245 l0
-1205 24 -51 c13 -28 41 -65 62 -82 74 -61 90 -63 525 -60 383 3 395 4 435 25
22 12 57 40 77 62 70 78 67 14 67 1302 0 799 -3 1174 -11 1209 -15 69 -62 129
-128 163 l-55 27 -405 0 c-374 0 -409 -2 -446 -19z"/>
<path d="M4021 3147 c-334 -420 -897 -589 -1409 -421 -199 65 -371 174 -523
331 l-90 93 -139 0 -140 0 0 -945 0 -945 138 0 137 0 28 -45 c44 -70 106 -117
243 -186 202 -102 228 -133 349 -419 73 -173 182 -386 243 -475 129 -187 300
-177 401 24 28 53 51 158 51 229 0 88 -29 201 -82 317 -102 224 -126 281 -137
332 -12 58 -3 95 26 109 10 5 302 11 648 15 591 5 635 7 708 26 102 27 164 66
202 128 29 47 30 51 29 174 0 147 -4 162 -169 736 -57 198 -129 456 -160 574
-69 269 -107 340 -210 387 -75 36 -86 33 -144 -39z"/>
</g>
</svg>
