<?xml version="1.0" standalone="no"?>
<!DOCTYPE svg PUBLIC "-//W3C//DTD SVG 20010904//EN"
 "http://www.w3.org/TR/2001/REC-SVG-20010904/DTD/svg10.dtd">
<svg version="1.0" xmlns="http://www.w3.org/2000/svg"
 width="512.000000pt" height="512.000000pt" viewBox="0 0 512.000000 512.000000"
 preserveAspectRatio="xMidYMid meet">

<g transform="translate(0.000000,512.000000) scale(0.100000,-0.100000)"
fill="#000000" stroke="none">
<path d="M2040 5018 c-321 -305 -686 -522 -1085 -643 -202 -61 -474 -105 -648
-105 l-88 0 4 -837 c4 -906 4 -908 62 -1191 145 -703 533 -1337 1095 -1789
198 -159 458 -320 671 -413 l91 -41 92 43 c110 50 169 81 304 161 78 46 101
65 97 77 -12 39 -35 175 -35 209 0 24 -9 50 -22 69 -13 17 -47 64 -77 104
-101 138 -145 262 -144 408 0 155 55 292 176 445 63 80 64 81 70 160 23 264
142 456 348 561 65 32 177 62 283 75 l89 11 90 69 c162 126 304 176 467 166
47 -3 100 -11 118 -18 18 -6 35 -9 38 -7 16 17 23 306 24 976 l0 762 -88 0
c-195 0 -506 56 -724 130 -374 128 -684 317 -1000 611 -58 54 -108 99 -110 99
-1 -1 -46 -42 -98 -92z m912 -1665 l147 -148 -529 -532 c-291 -293 -532 -533
-537 -533 -4 0 -150 142 -323 315 l-315 315 150 150 150 150 167 -167 168
-168 383 383 c210 210 384 382 387 382 3 0 71 -66 152 -147z"/>
<path d="M3750 2105 c-25 -13 -81 -53 -125 -89 -107 -88 -141 -103 -287 -121
-251 -32 -287 -65 -314 -288 -19 -159 -33 -198 -99 -282 -134 -169 -161 -232
-135 -312 17 -49 31 -71 108 -168 96 -119 111 -159 127 -329 14 -141 50 -210
127 -241 23 -9 92 -23 153 -31 190 -24 197 -27 328 -133 106 -85 133 -100 197
-108 64 -7 125 22 235 112 122 100 139 106 363 134 126 16 189 57 216 140 8
25 22 101 31 169 18 144 30 172 125 292 85 108 110 156 110 216 0 62 -24 109
-111 219 -91 115 -107 150 -125 288 -8 61 -17 126 -20 142 -10 51 -50 109 -91
132 -45 24 -61 28 -210 47 -138 18 -173 34 -288 125 -49 39 -108 80 -131 91
-55 27 -127 25 -184 -5z"/>
</g>
</svg>
