<svg xmlns="http://www.w3.org/2000/svg" version="1.1" xmlns:xlink="http://www.w3.org/1999/xlink" xmlns:svgjs="http://svgjs.dev/svgjs" width="1500" height="799" viewBox="0 0 1500 799"><g transform="matrix(1,0,0,1,-0.9090909090909918,-0.00001335538490820909)"><svg viewBox="0 0 396 211" data-background-color="#ffffff" preserveAspectRatio="xMidYMid meet" height="799" width="1500" xmlns="http://www.w3.org/2000/svg" xmlns:xlink="http://www.w3.org/1999/xlink"><g id="tight-bounds" transform="matrix(1,0,0,1,0.2400000000000091,0.0000035268913904928922)"><svg viewBox="0 0 395.52 210.99999294621722" height="210.99999294621722" width="395.52"><g><svg viewBox="0 0 395.52 210.99999294621722" height="210.99999294621722" width="395.52"><g transform="matrix(1,0,0,1,0,155.9314391000634)"><svg viewBox="0 0 395.52 55.06855384615385" height="55.06855384615385" width="395.52"><g id="textblocktransform"><svg viewBox="0 0 395.52 55.06855384615385" height="55.06855384615385" width="395.52" id="textblock"><g><svg viewBox="0 0 395.52 55.06855384615385" height="55.06855384615385" width="395.52"><g transform="matrix(1,0,0,1,0,0)"><svg width="395.52" viewBox="0.6 -35.6 259.96999999999997 36.2" height="55.06855384615385" data-palette-color="#096a2e"><path d="M14.15 0L9.35 0 0.6-24.3 4.85-24.3 9.45-10.5Q10-8.7 10.58-6.9 11.15-5.1 11.7-3.35L11.7-3.35 11.9-3.35Q12.45-5.1 13-6.9 13.55-8.7 14.1-10.5L14.1-10.5 18.7-24.3 22.75-24.3 14.15 0ZM32.05 0.6L32.05 0.6Q29 0.6 26.97-1.2 24.95-3 24.95-6.3L24.95-6.3Q24.95-10.3 28.5-12.43 32.05-14.55 39.85-15.4L39.85-15.4Q39.85-16.55 39.62-17.65 39.4-18.75 38.85-19.6 38.3-20.45 37.32-20.98 36.35-21.5 34.85-21.5L34.85-21.5Q32.75-21.5 30.9-20.7 29.05-19.9 27.6-18.9L27.6-18.9 26-21.75Q27.7-22.85 30.15-23.88 32.6-24.9 35.55-24.9L35.55-24.9Q40-24.9 42-22.18 44-19.45 44-14.9L44-14.9 44 0 40.6 0 40.25-2.9 40.1-2.9Q38.35-1.45 36.35-0.43 34.35 0.6 32.05 0.6ZM33.25-2.7L33.25-2.7Q35-2.7 36.55-3.53 38.1-4.35 39.85-5.95L39.85-5.95 39.85-12.7Q36.8-12.3 34.72-11.75 32.65-11.2 31.37-10.45 30.1-9.7 29.52-8.72 28.95-7.75 28.95-6.6L28.95-6.6Q28.95-4.5 30.2-3.6 31.45-2.7 33.25-2.7ZM56 0.6L56 0.6Q53.65 0.6 52.65-0.8 51.65-2.2 51.65-4.9L51.65-4.9 51.65-35.6 55.75-35.6 55.75-4.6Q55.75-3.6 56.09-3.2 56.45-2.8 56.9-2.8L56.9-2.8Q57.09-2.8 57.27-2.8 57.45-2.8 57.8-2.9L57.8-2.9 58.34 0.2Q57.95 0.4 57.4 0.5 56.84 0.6 56 0.6ZM68.49 0L64.39 0 64.39-24.3 68.49-24.3 68.49 0ZM66.49-29.3L66.49-29.3Q65.29-29.3 64.47-30.05 63.64-30.8 63.64-31.95L63.64-31.95Q63.64-33.15 64.47-33.88 65.29-34.6 66.49-34.6L66.49-34.6Q67.69-34.6 68.52-33.88 69.34-33.15 69.34-31.95L69.34-31.95Q69.34-30.8 68.52-30.05 67.69-29.3 66.49-29.3ZM84.99 0.6L84.99 0.6Q80.39 0.6 77.67-2.7 74.94-6 74.94-12.1L74.94-12.1Q74.94-15.05 75.81-17.43 76.69-19.8 78.14-21.45 79.59-23.1 81.49-24 83.39-24.9 85.49-24.9L85.49-24.9Q87.59-24.9 89.14-24.15 90.69-23.4 92.29-22.1L92.29-22.1 92.09-26.25 92.09-35.6 96.24-35.6 96.24 0 92.84 0 92.49-2.85 92.34-2.85Q90.89-1.45 89.02-0.43 87.14 0.6 84.99 0.6ZM85.89-2.85L85.89-2.85Q87.59-2.85 89.09-3.68 90.59-4.5 92.09-6.2L92.09-6.2 92.09-18.9Q90.54-20.3 89.12-20.88 87.69-21.45 86.19-21.45L86.19-21.45Q84.74-21.45 83.47-20.78 82.19-20.1 81.24-18.88 80.29-17.65 79.74-15.95 79.19-14.25 79.19-12.15L79.19-12.15Q79.19-7.75 80.94-5.3 82.69-2.85 85.89-2.85ZM110.04 0.6L110.04 0.6Q106.99 0.6 104.96-1.2 102.94-3 102.94-6.3L102.94-6.3Q102.94-10.3 106.49-12.43 110.04-14.55 117.84-15.4L117.84-15.4Q117.84-16.55 117.61-17.65 117.39-18.75 116.84-19.6 116.29-20.45 115.31-20.98 114.34-21.5 112.84-21.5L112.84-21.5Q110.74-21.5 108.89-20.7 107.04-19.9 105.59-18.9L105.59-18.9 103.99-21.75Q105.69-22.85 108.14-23.88 110.59-24.9 113.54-24.9L113.54-24.9Q117.99-24.9 119.99-22.18 121.99-19.45 121.99-14.9L121.99-14.9 121.99 0 118.59 0 118.24-2.9 118.09-2.9Q116.34-1.45 114.34-0.43 112.34 0.6 110.04 0.6ZM111.24-2.7L111.24-2.7Q112.99-2.7 114.54-3.53 116.09-4.35 117.84-5.95L117.84-5.95 117.84-12.7Q114.79-12.3 112.71-11.75 110.64-11.2 109.36-10.45 108.09-9.7 107.51-8.72 106.94-7.75 106.94-6.6L106.94-6.6Q106.94-4.5 108.19-3.6 109.44-2.7 111.24-2.7ZM136.59 0.6L136.59 0.6Q134.64 0.6 133.31 0 131.99-0.6 131.16-1.65 130.34-2.7 129.99-4.2 129.64-5.7 129.64-7.5L129.64-7.5 129.64-20.95 126.04-20.95 126.04-24.05 129.84-24.3 130.34-31.1 133.78-31.1 133.78-24.3 140.34-24.3 140.34-20.95 133.78-20.95 133.78-7.45Q133.78-5.2 134.61-3.98 135.44-2.75 137.53-2.75L137.53-2.75Q138.19-2.75 138.94-2.95 139.69-3.15 140.28-3.4L140.28-3.4 141.09-0.3Q140.09 0.05 138.91 0.33 137.74 0.6 136.59 0.6ZM154.98 0.6L154.98 0.6Q152.53 0.6 150.41-0.28 148.28-1.15 146.71-2.78 145.13-4.4 144.23-6.75 143.33-9.1 143.33-12.1L143.33-12.1Q143.33-15.1 144.26-17.48 145.18-19.85 146.71-21.5 148.23-23.15 150.18-24.03 152.13-24.9 154.23-24.9L154.23-24.9Q156.53-24.9 158.36-24.1 160.18-23.3 161.41-21.8 162.63-20.3 163.28-18.2 163.93-16.1 163.93-13.5L163.93-13.5Q163.93-12.85 163.91-12.23 163.88-11.6 163.78-11.15L163.78-11.15 147.38-11.15Q147.63-7.25 149.81-4.98 151.98-2.7 155.48-2.7L155.48-2.7Q157.23-2.7 158.71-3.23 160.18-3.75 161.53-4.6L161.53-4.6 162.98-1.9Q161.38-0.9 159.43-0.15 157.48 0.6 154.98 0.6ZM147.33-14.1L147.33-14.1 160.33-14.1Q160.33-17.8 158.76-19.73 157.18-21.65 154.33-21.65L154.33-21.65Q153.03-21.65 151.86-21.15 150.68-20.65 149.73-19.68 148.78-18.7 148.16-17.3 147.53-15.9 147.33-14.1ZM188.43 0L167.83 0 167.83-2.45Q171.43-6.05 174.23-8.95 177.03-11.85 178.93-14.33 180.83-16.8 181.83-18.88 182.83-20.95 182.83-22.9L182.83-22.9Q182.83-25.65 181.33-27.4 179.83-29.15 176.78-29.15L176.78-29.15Q174.78-29.15 173.08-28.03 171.38-26.9 169.98-25.3L169.98-25.3 167.63-27.65Q169.63-29.85 171.88-31.18 174.13-32.5 177.28-32.5L177.28-32.5Q181.73-32.5 184.28-29.93 186.83-27.35 186.83-23.1L186.83-23.1Q186.83-20.85 185.86-18.57 184.88-16.3 183.16-13.88 181.43-11.45 179.06-8.83 176.68-6.2 173.83-3.25L173.83-3.25Q175.13-3.35 176.53-3.45 177.93-3.55 179.18-3.55L179.18-3.55 188.43-3.55 188.43 0ZM209.78 0L205.88 0 205.88-8.8 191.53-8.8 191.53-11.5 205.18-31.9 209.78-31.9 209.78-12.1 214.13-12.1 214.13-8.8 209.78-8.8 209.78 0ZM203.33-23L195.88-12.1 205.88-12.1 205.88-21.35Q205.88-22.65 205.95-24.43 206.03-26.2 206.13-27.5L206.13-27.5 205.93-27.5Q205.33-26.35 204.68-25.25 204.03-24.15 203.33-23L203.33-23ZM220.53 0L216.23 0 224.18-12.7 216.83-24.3 221.28-24.3 224.53-18.95Q225.08-17.95 225.68-16.93 226.28-15.9 226.93-14.9L226.93-14.9 227.13-14.9Q227.68-15.9 228.23-16.93 228.78-17.95 229.33-18.95L229.33-18.95 232.28-24.3 236.58-24.3 229.23-12.25 237.13 0 232.68 0 229.13-5.65Q228.48-6.75 227.83-7.85 227.18-8.95 226.48-10L226.48-10 226.28-10Q225.63-8.95 225.03-7.88 224.43-6.8 223.83-5.65L223.83-5.65 220.53 0ZM250.92 0L246.67 0Q246.87-4.5 247.47-8.25 248.07-12 249.15-15.38 250.22-18.75 251.9-21.9 253.57-25.05 255.92-28.35L255.92-28.35 240.02-28.35 240.02-31.9 260.57-31.9 260.57-29.35Q257.72-25.75 255.95-22.45 254.17-19.15 253.12-15.73 252.07-12.3 251.6-8.47 251.12-4.65 250.92 0L250.92 0Z" opacity="1" transform="matrix(1,0,0,1,0,0)" fill="#096a2e" class="wordmark-text-0" data-fill-palette-color="primary" id="text-0"></path></svg></g></svg></g></svg></g></svg></g><g transform="matrix(1,0,0,1,132.7946443677529,0)"><svg viewBox="0 0 129.93071126449416 129.93071126449416" height="129.93071126449416" width="129.93071126449416"><g><svg></svg></g><g id="icon-0"><svg viewBox="0 0 129.93071126449416 129.93071126449416" height="129.93071126449416" width="129.93071126449416"><g><path d="M0 64.965c0-35.879 29.086-64.965 64.965-64.965 35.879 0 64.965 29.086 64.966 64.965 0 35.879-29.086 64.965-64.966 64.966-35.879 0-64.965-29.086-64.965-64.966zM64.965 124.965c33.137 0 59.999-26.863 60-60 0-33.137-26.863-59.999-60-59.999-33.137 0-59.999 26.863-59.999 59.999 0 33.137 26.863 59.999 59.999 60z" data-fill-palette-color="accent" fill="#096a2e" stroke="transparent"></path><ellipse rx="64.3157020759246" ry="64.3157020759246" cx="64.96535563224708" cy="64.96535563224708" fill="#096a2e" stroke="transparent" stroke-width="0" fill-opacity="1" data-fill-palette-color="accent"></ellipse></g><g transform="matrix(1,0,0,1,31.197600189262374,31.18145630697053)"><svg viewBox="0 0 67.53551088596942 67.5677986505531" height="67.5677986505531" width="67.53551088596942"><g><svg xmlns:dc="http://purl.org/dc/elements/1.1/" xmlns:cc="http://creativecommons.org/ns#" xmlns:rdf="http://www.w3.org/1999/02/22-rdf-syntax-ns#" xmlns:svg="http://www.w3.org/2000/svg" xmlns="http://www.w3.org/2000/svg" xmlns:sodipodi="http://sodipodi.sourceforge.net/DTD/sodipodi-0.dtd" xmlns:inkscape="http://www.inkscape.org/namespaces/inkscape" version="1.1" x="0" y="0" viewBox="12.5246093 12.5 102.95078070000001 103" enable-background="new 0 0 128 128" xml:space="preserve" height="67.5677986505531" width="67.53551088596942" class="icon-cg-0" data-fill-palette-color="quaternary" id="cg-0"><path d="M64 12.5C50.3 12.5 37.3 17.9 27.6 27.6 7.5 47.6 7.5 80.3 27.6 100.4 37.3 110.1 50.2 115.5 64 115.5 77.8 115.5 90.7 110.1 100.4 100.4 120.5 80.4 120.5 47.7 100.4 27.6 90.7 17.9 77.7 12.5 64 12.5zM64 15.5C77 15.5 89.101 20.499 98.301 29.699 117.201 48.599 117.201 79.401 98.301 98.301 89.101 107.501 77 112.5 64 112.5 51 112.5 38.899 107.501 29.699 98.301 10.799 79.401 10.799 48.599 29.699 29.699 38.899 20.499 51 15.5 64 15.5zM83.801 44L63.301 77.199 50 59.801 45.301 63.5 63.9 87.6 88.9 47.199 83.801 44z" fill="#ffffff" data-fill-palette-color="quaternary"></path></svg></g></svg></g></svg></g></svg></g><g></g></svg></g><defs></defs></svg><rect width="395.52" height="210.99999294621722" fill="none" stroke="none" visibility="hidden"></rect></g></svg></g></svg>