<svg xmlns="http://www.w3.org/2000/svg" version="1.1" xmlns:xlink="http://www.w3.org/1999/xlink"  width="2000" height="333" viewBox="0 0 2000 333"><g transform="matrix(1,0,0,1,-1.2121212121212466,1.0814518182096151)"><svg viewBox="0 0 396 66" data-background-color="#f9f6ed" preserveAspectRatio="xMidYMid meet" height="333" width="2000" xmlns="http://www.w3.org/2000/svg" xmlns:xlink="http://www.w3.org/1999/xlink"><g id="tight-bounds" transform="matrix(1,0,0,1,0.2400000000000091,-0.21434180180730777)"><svg viewBox="0 0 395.52 66.42868360361462" height="66.42868360361462" width="395.52"><g><svg viewBox="0 0 511.0685984491794 85.83539195520657" height="66.42868360361462" width="395.52"><g transform="matrix(1,0,0,1,0,1.511332275139921)"><svg viewBox="0 0 395.52 82.81272740492673" height="82.81272740492673" width="395.52"><g id="textblocktransform"><svg viewBox="0 0 395.52 82.81272740492673" height="82.81272740492673" width="395.52" id="textblock"><g><rect width="395.52" height="69.21614400798933" fill="none" stroke-width="9.018103199999999" stroke="#21272d" data-fill-palette-color="none" data-stroke-palette-color="tertiary"></rect><rect width="395.52" height="13.596583396937412" y="69.21614400798933" fill="#21272d" data-fill-palette-color="tertiary"></rect></g><g><svg viewBox="0 0 395.52 69.21614400798933" height="69.21614400798933" width="395.52"><g transform="matrix(1,0,0,1,23.607599999999998,23.607599999999994)"><svg width="348.3048" viewBox="1.1 -37.15 600.74 37.949999999999996" height="22.00094400798934" data-palette-color="#21272d"><path d="M30.55-5.15L37.9-34.1 41.45-34.1 32.35 0 28.45 0 21.35-27.4 14.05 0 10.2 0 1.1-34.1 4.95-34.1 12.25-5.4 19.85-34.1 22.9-34.1 30.55-5.15ZM53.8-24.2Q56.95-24.2 59.5-22.65 62.05-21.1 63.5-18.43 64.95-15.75 64.95-12.45L64.95-12.45Q64.95-11.5 64.9-11L64.9-11 45.65-11Q45.85-7.4 48-4.85 50.15-2.3 53.85-2.3L53.85-2.3Q56.85-2.3 58.82-3.43 60.8-4.55 62-6.55L62-6.55 64.7-4.75Q63.05-2.15 60.35-0.68 57.65 0.8 53.95 0.8L53.95 0.8Q50.55 0.8 47.9-0.8 45.25-2.4 43.75-5.25 42.25-8.1 42.25-11.7L42.25-11.7Q42.25-15.3 43.72-18.15 45.2-21 47.82-22.6 50.45-24.2 53.8-24.2L53.8-24.2ZM45.85-13.8L61.55-13.8Q61.05-17.45 59.1-19.28 57.15-21.1 53.8-21.1L53.8-21.1Q50.55-21.1 48.47-19.03 46.4-16.95 45.85-13.8L45.85-13.8ZM81.65-24.2Q85-24.2 87.62-22.6 90.25-21 91.72-18.18 93.2-15.35 93.2-11.75L93.2-11.75Q93.2-8.1 91.7-5.25 90.2-2.4 87.55-0.8 84.9 0.8 81.55 0.8L81.55 0.8Q79.05 0.8 76.95-0.33 74.85-1.45 73.4-3.45L73.4-3.45 73.4 0 70 0 70-36.3 73.4-36.3 73.4-19.9Q74.85-21.95 76.97-23.08 79.1-24.2 81.65-24.2L81.65-24.2ZM81.65-2.3Q84-2.3 85.85-3.5 87.7-4.7 88.75-6.85 89.8-9 89.8-11.75L89.8-11.75Q89.8-14.45 88.75-16.57 87.7-18.7 85.85-19.9 84-21.1 81.65-21.1L81.65-21.1Q79.25-21.1 77.37-19.9 75.5-18.7 74.45-16.55 73.4-14.4 73.4-11.7L73.4-11.7Q73.4-9 74.45-6.85 75.5-4.7 77.37-3.5 79.25-2.3 81.65-2.3L81.65-2.3ZM106.24 0.8Q102.84 0.8 100.27-0.65 97.69-2.1 96.34-4.75L96.34-4.75 99.39-6.25Q101.24-2.3 106.64-2.3L106.64-2.3Q109.24-2.3 110.94-3.25 112.64-4.2 112.64-6.2L112.64-6.2Q112.64-8.25 111.27-9.25 109.89-10.25 106.44-10.55L106.44-10.55Q101.64-10.95 99.57-12.7 97.49-14.45 97.49-17.35L97.49-17.35Q97.49-20.6 99.84-22.4 102.19-24.2 106.29-24.2L106.29-24.2Q113.24-24.2 115.74-18.7L115.74-18.7 112.69-17.2Q111.84-19.2 110.22-20.15 108.59-21.1 106.04-21.1L106.04-21.1Q103.44-21.1 102.07-20.15 100.69-19.2 100.69-17.45L100.69-17.45Q100.69-15.8 102.17-14.78 103.64-13.75 107.24-13.45L107.24-13.45Q111.69-13.05 113.87-11.28 116.04-9.5 116.04-6.6L116.04-6.6Q116.04-4.25 114.69-2.58 113.34-0.9 111.09-0.05 108.84 0.8 106.24 0.8L106.24 0.8ZM126.44 0L123.04 0 123.04-23.4 126.44-23.4 126.44 0ZM124.74-27.95Q123.59-27.95 122.82-28.75 122.04-29.55 122.04-30.7L122.04-30.7Q122.04-31.8 122.82-32.58 123.59-33.35 124.74-33.35L124.74-33.35Q125.84-33.35 126.64-32.58 127.44-31.8 127.44-30.65L127.44-30.65Q127.44-29.55 126.64-28.75 125.84-27.95 124.74-27.95L124.74-27.95ZM139.24 0L135.84 0 135.84-20.3 131.84-20.3 131.84-23.4 135.84-23.4 135.84-31.15 139.24-31.15 139.24-23.4 144.64-23.4 144.64-20.3 139.24-20.3 139.24 0ZM158.44-24.2Q161.59-24.2 164.14-22.65 166.69-21.1 168.14-18.43 169.59-15.75 169.59-12.45L169.59-12.45Q169.59-11.5 169.54-11L169.54-11 150.29-11Q150.49-7.4 152.64-4.85 154.79-2.3 158.49-2.3L158.49-2.3Q161.49-2.3 163.46-3.43 165.44-4.55 166.64-6.55L166.64-6.55 169.34-4.75Q167.69-2.15 164.99-0.68 162.29 0.8 158.59 0.8L158.59 0.8Q155.19 0.8 152.54-0.8 149.89-2.4 148.39-5.25 146.89-8.1 146.89-11.7L146.89-11.7Q146.89-15.3 148.36-18.15 149.84-21 152.46-22.6 155.09-24.2 158.44-24.2L158.44-24.2ZM150.49-13.8L166.19-13.8Q165.69-17.45 163.74-19.28 161.79-21.1 158.44-21.1L158.44-21.1Q155.19-21.1 153.11-19.03 151.04-16.95 150.49-13.8L150.49-13.8ZM196.58 0L196.58-34.1 207.98-34.1Q212.58-34.1 215.33-31.3 218.08-28.5 218.08-23.55L218.08-23.55Q218.08-18.65 215.21-15.85 212.33-13.05 207.58-13.05L207.58-13.05 200.33-13.05 200.33 0 196.58 0ZM200.33-16.15L207.48-16.15Q210.83-16.15 212.58-18.03 214.33-19.9 214.33-23.55L214.33-23.55Q214.33-27.2 212.58-29.1 210.83-31 207.48-31L207.48-31 200.33-31 200.33-16.15ZM231.58-24.2Q234.73-24.2 237.28-22.65 239.83-21.1 241.28-18.43 242.73-15.75 242.73-12.45L242.73-12.45Q242.73-11.5 242.68-11L242.68-11 223.43-11Q223.63-7.4 225.78-4.85 227.93-2.3 231.63-2.3L231.63-2.3Q234.63-2.3 236.6-3.43 238.58-4.55 239.78-6.55L239.78-6.55 242.48-4.75Q240.83-2.15 238.13-0.68 235.43 0.8 231.73 0.8L231.73 0.8Q228.33 0.8 225.68-0.8 223.03-2.4 221.53-5.25 220.03-8.1 220.03-11.7L220.03-11.7Q220.03-15.3 221.5-18.15 222.98-21 225.6-22.6 228.23-24.2 231.58-24.2L231.58-24.2ZM223.63-13.8L239.33-13.8Q238.83-17.45 236.88-19.28 234.93-21.1 231.58-21.1L231.58-21.1Q228.33-21.1 226.25-19.03 224.18-16.95 223.63-13.8L223.63-13.8ZM259.23-24.2Q260.43-24.2 261.53-23.85L261.53-23.85 261.53-20.75Q260.48-21.25 259.23-21.25L259.23-21.25Q257.08-21.25 255.23-20.05 253.38-18.85 252.25-16.57 251.13-14.3 251.13-11.2L251.13-11.2 251.13 0 247.73 0 247.73-23.4 251.13-23.4 251.13-18.7Q252.48-21.3 254.55-22.75 256.63-24.2 259.23-24.2L259.23-24.2ZM273.32-34.05Q271.57-34.05 270.45-32.85 269.32-31.65 269.32-29.75L269.32-29.75 269.32-23.4 274.72-23.4 274.72-20.3 269.32-20.3 269.32 0 265.92 0 265.92-20.3 262.92-20.3 262.92-23.4 265.92-23.4 265.92-29.75Q265.92-33 268-35.08 270.07-37.15 273.32-37.15L273.32-37.15 274.72-37.15 274.72-34.05 273.32-34.05ZM288.62 0.8Q285.27 0.8 282.62-0.8 279.97-2.4 278.47-5.28 276.97-8.15 276.97-11.75L276.97-11.75Q276.97-15.35 278.45-18.18 279.92-21 282.55-22.6 285.17-24.2 288.52-24.2L288.52-24.2Q291.87-24.2 294.52-22.6 297.17-21 298.67-18.15 300.17-15.3 300.17-11.7L300.17-11.7Q300.17-8.1 298.7-5.25 297.22-2.4 294.6-0.8 291.97 0.8 288.62 0.8L288.62 0.8ZM288.52-2.3Q290.92-2.3 292.8-3.5 294.67-4.7 295.72-6.85 296.77-9 296.77-11.7L296.77-11.7Q296.77-14.4 295.72-16.55 294.67-18.7 292.8-19.9 290.92-21.1 288.52-21.1L288.52-21.1Q286.17-21.1 284.32-19.9 282.47-18.7 281.42-16.57 280.37-14.45 280.37-11.75L280.37-11.75Q280.37-9 281.42-6.85 282.47-4.7 284.32-3.5 286.17-2.3 288.52-2.3L288.52-2.3ZM316.47-24.2Q317.67-24.2 318.77-23.85L318.77-23.85 318.77-20.75Q317.72-21.25 316.47-21.25L316.47-21.25Q314.32-21.25 312.47-20.05 310.62-18.85 309.49-16.57 308.37-14.3 308.37-11.2L308.37-11.2 308.37 0 304.97 0 304.97-23.4 308.37-23.4 308.37-18.7Q309.72-21.3 311.79-22.75 313.87-24.2 316.47-24.2L316.47-24.2ZM346.82-24.2Q350.07-24.2 352.22-21.93 354.37-19.65 354.37-15.65L354.37-15.65 354.37 0 350.97 0 350.97-14.15Q350.97-17.85 349.57-19.48 348.17-21.1 345.92-21.1L345.92-21.1Q343.17-21.1 341.64-18.98 340.12-16.85 339.87-13.2L339.87-13.2 339.87 0 336.47 0 336.47-14.15Q336.47-17.85 335.07-19.48 333.67-21.1 331.42-21.1L331.42-21.1Q328.37-21.1 326.84-18.55 325.32-16 325.32-11.7L325.32-11.7 325.32 0 321.92 0 321.92-23.4 325.32-23.4 325.32-19.75Q326.47-21.9 328.24-23.05 330.02-24.2 332.32-24.2L332.32-24.2Q334.87-24.2 336.77-22.83 338.67-21.45 339.42-18.9L339.42-18.9Q340.52-21.4 342.42-22.8 344.32-24.2 346.82-24.2L346.82-24.2ZM378.76-23.4L382.16-23.4 382.16 0 378.76 0 378.76-3.45Q377.31-1.45 375.21-0.33 373.11 0.8 370.61 0.8L370.61 0.8Q367.26 0.8 364.61-0.8 361.96-2.4 360.46-5.25 358.96-8.1 358.96-11.75L358.96-11.75Q358.96-15.35 360.44-18.18 361.91-21 364.54-22.6 367.16-24.2 370.51-24.2L370.51-24.2Q373.06-24.2 375.19-23.08 377.31-21.95 378.76-19.9L378.76-19.9 378.76-23.4ZM370.51-2.3Q372.91-2.3 374.79-3.5 376.66-4.7 377.71-6.85 378.76-9 378.76-11.7L378.76-11.7Q378.76-14.4 377.71-16.55 376.66-18.7 374.79-19.9 372.91-21.1 370.51-21.1L370.51-21.1Q368.16-21.1 366.31-19.9 364.46-18.7 363.41-16.57 362.36-14.45 362.36-11.75L362.36-11.75Q362.36-9 363.41-6.85 364.46-4.7 366.31-3.5 368.16-2.3 370.51-2.3L370.51-2.3ZM399.61-24.2Q402.06-24.2 404.14-23.2 406.21-22.2 407.44-20.25 408.66-18.3 408.66-15.65L408.66-15.65 408.66 0 405.26 0 405.26-14.15Q405.26-21.1 399.06-21.1L399.06-21.1Q395.46-21.1 393.66-18.55 391.86-16 391.86-11.7L391.86-11.7 391.86 0 388.46 0 388.46-23.4 391.86-23.4 391.86-19.5Q393.06-21.75 395.04-22.98 397.01-24.2 399.61-24.2L399.61-24.2ZM425.46 0.8Q422.06 0.8 419.41-0.8 416.76-2.4 415.26-5.25 413.76-8.1 413.76-11.7L413.76-11.7Q413.76-15.3 415.23-18.15 416.71-21 419.36-22.6 422.01-24.2 425.36-24.2L425.36-24.2Q428.21-24.2 430.33-22.98 432.46-21.75 434.21-19.5L434.21-19.5 431.71-17.55Q429.26-21.1 425.36-21.1L425.36-21.1Q423.01-21.1 421.13-19.9 419.26-18.7 418.21-16.55 417.16-14.4 417.16-11.7L417.16-11.7Q417.16-9 418.21-6.85 419.26-4.7 421.13-3.5 423.01-2.3 425.36-2.3L425.36-2.3Q427.76-2.3 429.31-3.13 430.86-3.95 432.11-5.55L432.11-5.55 434.76-3.7Q433.11-1.65 430.68-0.43 428.26 0.8 425.46 0.8L425.46 0.8ZM449.26-24.2Q452.41-24.2 454.96-22.65 457.51-21.1 458.96-18.43 460.41-15.75 460.41-12.45L460.41-12.45Q460.41-11.5 460.36-11L460.36-11 441.11-11Q441.31-7.4 443.46-4.85 445.61-2.3 449.31-2.3L449.31-2.3Q452.31-2.3 454.28-3.43 456.26-4.55 457.46-6.55L457.46-6.55 460.16-4.75Q458.51-2.15 455.81-0.68 453.11 0.8 449.41 0.8L449.41 0.8Q446.01 0.8 443.36-0.8 440.71-2.4 439.21-5.25 437.71-8.1 437.71-11.7L437.71-11.7Q437.71-15.3 439.18-18.15 440.66-21 443.28-22.6 445.91-24.2 449.26-24.2L449.26-24.2ZM441.31-13.8L457.01-13.8Q456.51-17.45 454.56-19.28 452.61-21.1 449.26-21.1L449.26-21.1Q446.01-21.1 443.93-19.03 441.86-16.95 441.31-13.8L441.31-13.8ZM490.05 0.8Q485.75 0.8 482.63-1.33 479.5-3.45 477.83-7.43 476.15-11.4 476.15-16.95L476.15-16.95Q476.15-22.55 477.78-26.58 479.4-30.6 482.43-32.73 485.45-34.85 489.6-34.85L489.6-34.85Q493.85-34.85 496.88-32.98 499.9-31.1 501.6-27.7L501.6-27.7 498.6-25.95Q497-28.9 494.85-30.18 492.7-31.45 489.6-31.45L489.6-31.45Q485.15-31.45 482.63-27.63 480.1-23.8 480.1-17L480.1-17Q480.1-12.55 481.25-9.3 482.4-6.05 484.55-4.33 486.7-2.6 489.55-2.6L489.55-2.6Q493.1-2.6 495.08-4.17 497.05-5.75 498.75-9.1L498.75-9.1 501.9-7.2Q500.1-3.3 497.13-1.25 494.15 0.8 490.05 0.8L490.05 0.8ZM517.95-24.2Q520.4-24.2 522.47-23.2 524.55-22.2 525.77-20.25 527-18.3 527-15.65L527-15.65 527 0 523.6 0 523.6-14.15Q523.6-21.1 517.4-21.1L517.4-21.1Q513.8-21.1 512-18.55 510.2-16 510.2-11.7L510.2-11.7 510.2 0 506.8 0 506.8-36.3 510.2-36.3 510.2-19.5Q511.4-21.75 513.37-22.98 515.35-24.2 517.95-24.2L517.95-24.2ZM543.6-24.2Q546.75-24.2 549.3-22.65 551.85-21.1 553.3-18.43 554.75-15.75 554.75-12.45L554.75-12.45Q554.75-11.5 554.7-11L554.7-11 535.45-11Q535.64-7.4 537.8-4.85 539.95-2.3 543.64-2.3L543.64-2.3Q546.64-2.3 548.62-3.43 550.6-4.55 551.8-6.55L551.8-6.55 554.5-4.75Q552.85-2.15 550.14-0.68 547.45 0.8 543.75 0.8L543.75 0.8Q540.35 0.8 537.7-0.8 535.05-2.4 533.55-5.25 532.05-8.1 532.05-11.7L532.05-11.7Q532.05-15.3 533.52-18.15 535-21 537.62-22.6 540.25-24.2 543.6-24.2L543.6-24.2ZM535.64-13.8L551.35-13.8Q550.85-17.45 548.89-19.28 546.95-21.1 543.6-21.1L543.6-21.1Q540.35-21.1 538.27-19.03 536.2-16.95 535.64-13.8L535.64-13.8ZM569.89 0.8Q566.49 0.8 563.84-0.8 561.19-2.4 559.69-5.25 558.19-8.1 558.19-11.7L558.19-11.7Q558.19-15.3 559.67-18.15 561.14-21 563.79-22.6 566.44-24.2 569.79-24.2L569.79-24.2Q572.64-24.2 574.77-22.98 576.89-21.75 578.64-19.5L578.64-19.5 576.14-17.55Q573.69-21.1 569.79-21.1L569.79-21.1Q567.44-21.1 565.57-19.9 563.69-18.7 562.64-16.55 561.59-14.4 561.59-11.7L561.59-11.7Q561.59-9 562.64-6.85 563.69-4.7 565.57-3.5 567.44-2.3 569.79-2.3L569.79-2.3Q572.19-2.3 573.74-3.13 575.29-3.95 576.54-5.55L576.54-5.55 579.19-3.7Q577.54-1.65 575.12-0.43 572.69 0.8 569.89 0.8L569.89 0.8ZM601.84 0L598.04 0 589.84-12.05 586.99-9.3 586.99 0 583.59 0 583.59-36.3 586.99-36.3 586.99-13.6 597.24-23.4 601.64-23.4 592.19-14.3 601.84 0Z" opacity="1" transform="matrix(1,0,0,1,0,0)" fill="#21272d" class="wordmark-text-0" data-fill-palette-color="primary" id="text-0"></path></svg></g></svg></g></svg></g></svg></g><g transform="matrix(1,0,0,1,407.3238,0)"><svg viewBox="0 0 103.7447984491794 85.83539195520657" height="85.83539195520657" width="103.7447984491794"><g><svg xmlns="http://www.w3.org/2000/svg" version="1.1" data-icon="check" data-container-transform="translate(0 2)" viewBox="0.24900000000000144 2.25 31.501 26.063" x="0" y="0" height="85.83539195520657" width="103.7447984491794" class="icon-icon-0" data-fill-palette-color="accent" id="icon-0"><path d="M27.375 0.25l-2.063 2.188-14.375 15.25-4.313-4.313-2.125-2.125-4.25 4.25 2.125 2.125 6.5 6.5 2.188 2.188 2.125-2.25 16.5-17.5 2.063-2.188-4.375-4.125z" transform="translate(0 2)" fill="#ea5141" data-fill-palette-color="accent"></path></svg></g></svg></g></svg></g><defs></defs></svg><rect width="395.52" height="66.42868360361462" fill="none" stroke="none" visibility="hidden"></rect></g></svg></g></svg>