<?xml version="1.0" standalone="no"?>
<!DOCTYPE svg PUBLIC "-//W3C//DTD SVG 20010904//EN"
 "http://www.w3.org/TR/2001/REC-SVG-20010904/DTD/svg10.dtd">
<svg version="1.0" xmlns="http://www.w3.org/2000/svg"
 width="512.000000pt" height="512.000000pt" viewBox="0 0 512.000000 512.000000"
 preserveAspectRatio="xMidYMid meet">

<g transform="translate(0.000000,512.000000) scale(0.100000,-0.100000)"
fill="#000000" stroke="none">
<path d="M2475 5079 c-22 -12 -62 -40 -90 -64 -101 -85 -135 -105 -180 -105
-24 0 -86 14 -140 30 -116 36 -193 39 -239 11 -32 -20 -67 -71 -140 -200 -22
-41 -52 -83 -67 -93 -18 -14 -61 -23 -155 -34 -225 -26 -255 -55 -280 -270
-20 -174 -28 -186 -164 -254 -100 -50 -147 -88 -171 -137 -27 -55 -23 -97 20
-237 17 -54 31 -109 31 -123 0 -36 -25 -79 -98 -168 -135 -166 -134 -213 9
-388 84 -103 94 -128 81 -196 -7 -31 -23 -94 -37 -140 -29 -95 -31 -128 -11
-174 20 -47 60 -80 166 -137 105 -57 137 -83 152 -120 5 -14 16 -80 23 -146
24 -213 54 -242 275 -264 105 -11 165 -31 183 -61 7 -11 -50 -221 -202 -741
-116 -400 -211 -742 -211 -762 0 -25 7 -40 26 -55 51 -40 55 -39 334 159 95
67 177 119 184 117 6 -3 53 -108 105 -233 51 -126 103 -239 114 -251 28 -31
86 -31 114 -1 14 16 79 224 203 653 101 347 187 645 192 663 9 31 11 32 58 32
38 0 50 -4 54 -17 3 -10 89 -308 192 -663 128 -442 193 -652 207 -668 28 -30
86 -30 114 0 11 13 62 126 114 252 52 125 99 230 105 233 7 2 108 -63 226
-146 139 -98 224 -151 240 -151 41 0 78 36 78 76 0 20 -95 362 -211 761 -152
523 -209 731 -202 742 18 30 78 50 183 61 221 22 250 49 275 263 7 67 18 134
23 147 14 37 47 62 147 116 150 81 194 136 182 228 -3 22 -20 85 -37 140 -16
54 -30 110 -30 123 0 38 24 81 89 160 143 175 144 222 9 388 -73 89 -98 132
-98 168 0 13 13 68 30 123 44 145 47 183 21 238 -23 47 -75 88 -181 141 -125
63 -134 77 -154 250 -26 214 -55 243 -280 269 -94 11 -137 20 -155 34 -15 10
-45 52 -67 93 -73 129 -108 180 -140 200 -46 28 -123 25 -239 -11 -54 -16
-116 -30 -140 -30 -45 0 -74 17 -190 113 -33 28 -74 56 -92 63 -47 20 -112 17
-158 -7z m138 -55 c17 -9 66 -45 109 -80 43 -35 93 -71 110 -81 48 -25 127
-20 242 16 54 17 113 31 132 31 49 0 95 -46 149 -151 83 -161 114 -181 297
-200 126 -12 172 -29 193 -69 8 -15 19 -76 25 -136 20 -198 37 -224 204 -314
52 -28 106 -62 120 -77 35 -35 34 -80 -4 -212 -49 -171 -43 -208 62 -337 91
-112 98 -124 98 -164 0 -41 -22 -80 -100 -175 -32 -38 -65 -84 -74 -102 -24
-47 -20 -118 14 -229 54 -178 41 -210 -111 -289 -99 -51 -152 -93 -175 -138
-9 -16 -22 -86 -30 -155 -23 -197 -32 -206 -214 -227 -69 -8 -139 -20 -157
-26 -45 -14 -91 -70 -151 -180 -66 -122 -89 -144 -150 -143 -26 0 -85 13 -132
28 -47 15 -108 30 -137 33 -66 7 -110 -14 -218 -103 -93 -77 -135 -98 -177
-89 -16 4 -71 40 -121 81 -122 98 -164 118 -230 111 -29 -3 -90 -18 -137 -33
-47 -15 -106 -28 -132 -28 -61 -1 -84 21 -150 143 -60 110 -106 166 -151 180
-18 6 -88 18 -157 26 -182 21 -191 30 -214 227 -8 69 -21 139 -30 155 -23 45
-78 89 -166 133 -43 22 -95 54 -114 71 -32 27 -36 37 -36 78 0 25 14 91 30
145 34 111 38 182 14 229 -9 18 -42 64 -74 102 -78 95 -100 134 -100 175 0 40
7 52 98 164 36 44 71 96 79 115 20 48 12 133 -21 236 -14 44 -26 101 -26 126
0 60 23 84 142 146 169 89 187 118 208 321 16 169 31 183 220 202 181 18 212
39 296 200 25 50 62 103 82 121 33 29 39 31 87 25 28 -3 76 -14 107 -25 158
-54 208 -50 308 27 183 139 201 147 263 116z"/>
<path d="M2330 4534 c-457 -83 -846 -414 -1004 -852 -60 -168 -86 -387 -67
-565 63 -576 472 -1029 1041 -1153 120 -26 400 -26 520 0 533 116 937 534
1031 1066 19 107 17 345 -5 453 -52 267 -170 490 -361 683 -198 199 -441 326
-708 369 -113 18 -344 18 -447 -1z m307 -494 c17 -10 36 -27 42 -38 5 -10 40
-109 76 -220 48 -148 72 -205 88 -217 18 -12 60 -15 237 -15 185 0 220 -2 250
-18 73 -36 102 -131 61 -197 -10 -17 -97 -88 -193 -158 -126 -91 -178 -134
-182 -152 -4 -17 14 -90 59 -228 36 -112 65 -216 65 -232 0 -39 -32 -90 -72
-116 -25 -15 -45 -19 -80 -16 -40 3 -66 18 -208 122 -89 64 -175 124 -191 132
-38 19 -47 14 -249 -132 -142 -104 -168 -119 -208 -122 -35 -3 -55 1 -80 16
-40 26 -72 77 -72 116 0 17 29 122 65 233 45 138 63 210 59 227 -4 18 -56 62
-185 156 -107 78 -185 142 -194 159 -35 68 -5 157 65 192 30 16 65 18 250 18
178 0 219 3 238 15 16 12 38 68 86 215 36 110 70 209 76 220 18 34 71 60 120
60 27 0 58 -8 77 -20z"/>
<path d="M1242 4811 c-72 -27 -112 -53 -162 -107 -54 -59 -88 -135 -106 -236
-13 -73 -13 -84 1 -97 28 -28 48 -2 62 83 27 163 104 257 242 299 67 21 76 26
76 48 0 19 -6 24 -30 26 -16 2 -54 -6 -83 -16z"/>
<path d="M816 4240 c-48 -31 -56 -53 -26 -72 24 -15 120 48 120 78 0 34 -35
31 -94 -6z"/>
<path d="M3704 1525 c-4 -8 2 -41 12 -73 16 -49 22 -57 44 -57 23 0 25 4 23
37 -3 57 -28 108 -53 108 -11 0 -23 -7 -26 -15z"/>
<path d="M3787 1273 c-14 -13 -5 -53 66 -298 70 -239 74 -250 99 -253 14 -2
28 3 30 10 7 16 -136 514 -153 534 -12 15 -31 18 -42 7z"/>
</g>
</svg>
