<svg xmlns="http://www.w3.org/2000/svg" version="1.1" xmlns:xlink="http://www.w3.org/1999/xlink" xmlns:svgjs="http://svgjs.dev/svgjs" width="128" height="128" viewBox="0 0 128 128"><g transform="matrix(0.8046875,0,0,0.8046875,12.760752631578946,21.35057370804344)"><svg viewBox="0 0 95 79" data-background-color="#f9f6ed" preserveAspectRatio="xMidYMid meet" height="106" width="128" xmlns="http://www.w3.org/2000/svg" xmlns:xlink="http://www.w3.org/1999/xlink"><g id="tight-bounds" transform="matrix(1,0,0,1,-0.24049999999999727,0.0009157963239374567)"><svg viewBox="0 0 95.481 78.99816840735213" height="78.99816840735213" width="95.481"><g><svg viewBox="0 0 95.481 78.99816840735213" height="78.99816840735213" width="95.481"><g><svg viewBox="0 0 95.481 78.99816840735213" height="78.99816840735213" width="95.481"><g id="textblocktransform"><svg viewBox="0 0 95.481 78.99816840735213" height="78.99816840735213" width="95.481" id="textblock"><g><svg viewBox="0 0 95.481 78.99816840735213" height="78.99816840735213" width="95.481"><g><svg viewBox="0 0 95.481 78.99816840735213" height="78.99816840735213" width="95.481"><g><svg xmlns="http://www.w3.org/2000/svg" version="1.1" data-icon="check" data-container-transform="translate(0 2)" viewBox="0.24900000000000144 2.25 31.501 26.063" x="0" y="0" height="78.99816840735213" width="95.481" class="icon-icon-0" data-fill-palette-color="accent" id="icon-0"><path d="M27.375 0.25l-2.063 2.188-14.375 15.25-4.313-4.313-2.125-2.125-4.25 4.25 2.125 2.125 6.5 6.5 2.188 2.188 2.125-2.25 16.5-17.5 2.063-2.188-4.375-4.125z" transform="translate(0 2)" fill="#ea5141" data-fill-palette-color="accent"></path></svg></g></svg></g></svg></g></svg></g></svg></g></svg></g><defs></defs></svg><rect width="95.481" height="78.99816840735213" fill="none" stroke="none" visibility="hidden"></rect></g></svg></g></svg>