<svg xmlns="http://www.w3.org/2000/svg" xmlns:xlink="http://www.w3.org/1999/xlink" version="1.1" id="Layer_1" x="0px" y="0px" viewBox="0 0 24 24" style="enable-background:new 0 0 24 24;" xml:space="preserve"><title>wedding-money-piggy</title><g><path d="M18.108,10.499c-0.203,0-0.4-0.084-0.541-0.231l-4.383-4.572c-1.007-1.011-1.257-2.559-0.616-3.847   c0.4-0.8,1.086-1.395,1.933-1.678c0.344-0.115,0.701-0.173,1.06-0.173c0.52,0,1.022,0.119,1.492,0.354   c0.322,0.161,0.615,0.371,0.869,0.626l0.186,0.186l0.186-0.186C18.925,0.348,19.764,0,20.658,0c0.894,0,1.733,0.347,2.364,0.978   c0.255,0.255,0.465,0.547,0.626,0.869c0.645,1.29,0.393,2.841-0.627,3.86l-4.372,4.561C18.509,10.414,18.312,10.499,18.108,10.499z    M15.561,1.498c-0.198,0-0.395,0.032-0.585,0.096c-0.467,0.156-0.845,0.484-1.065,0.924c-0.354,0.71-0.214,1.566,0.346,2.129   l3.852,4.017l3.841-4.007c0.571-0.571,0.712-1.429,0.357-2.14c-0.089-0.178-0.205-0.339-0.346-0.48   C21.614,1.691,21.151,1.5,20.658,1.5c-0.493,0-0.956,0.191-1.304,0.539l-0.716,0.716c-0.137,0.137-0.33,0.215-0.531,0.215   c-0.2,0-0.393-0.078-0.53-0.215l-0.716-0.716c-0.14-0.14-0.302-0.256-0.479-0.345C16.123,1.564,15.847,1.498,15.561,1.498z"></path><path d="M7.501,11.624c-0.044,0-0.088-0.004-0.131-0.012c-0.513-0.06-0.922-0.47-0.982-0.982c-0.008-0.043-0.012-0.087-0.012-0.131   s0.004-0.088,0.012-0.131c0.06-0.513,0.47-0.922,0.982-0.982c0.043-0.008,0.087-0.012,0.131-0.012s0.088,0.004,0.131,0.012   c0.513,0.06,0.922,0.47,0.982,0.982c0.008,0.043,0.012,0.087,0.012,0.131s-0.004,0.088-0.012,0.131   c-0.06,0.513-0.47,0.922-0.982,0.982C7.589,11.62,7.545,11.624,7.501,11.624z"></path><path d="M17.251,23.999c-0.345,0-0.644-0.234-0.727-0.568l-0.519-2.078c-1.451,0.751-3.084,1.146-4.753,1.146L11.096,22.5   c-1.598,0-3.177-0.395-4.598-1.147L5.979,23.43c-0.083,0.334-0.382,0.568-0.727,0.568c-0.061,0-0.122-0.008-0.182-0.022   c-0.195-0.049-0.359-0.17-0.462-0.342c-0.103-0.172-0.133-0.374-0.084-0.568l0.64-2.561c-0.929-0.699-1.714-1.541-2.341-2.508   H0.751c-0.414,0-0.75-0.336-0.75-0.75v-6c0-0.414,0.336-0.75,0.75-0.75H2.07C2.63,9.041,3.56,7.759,4.775,6.772l0.313-2.505   C5.122,3.982,5.239,3.713,5.425,3.49C5.71,3.149,6.13,2.953,6.576,2.953c0.351,0,0.692,0.124,0.961,0.349L9.5,4.938   c0.154,0.128,0.249,0.309,0.267,0.508c0.018,0.2-0.042,0.394-0.171,0.548c-0.143,0.172-0.353,0.27-0.576,0.27   c-0.175,0-0.345-0.062-0.48-0.174L6.575,4.454L6.225,7.265C6.2,7.464,6.093,7.649,5.932,7.77C4.69,8.709,3.785,9.99,3.317,11.474   c-0.099,0.313-0.386,0.524-0.715,0.524h-1.1v4.5h1.74c0.265,0,0.513,0.142,0.647,0.37C5.384,19.417,8.145,21,11.095,21l0.144-0.001   c4.559,0,8.262-3.365,8.262-7.5c0-0.224-0.011-0.451-0.033-0.675c-0.02-0.199,0.039-0.395,0.166-0.55   c0.127-0.155,0.307-0.251,0.506-0.271c0.023-0.003,0.052-0.004,0.08-0.004c0.384,0,0.703,0.291,0.741,0.676   c0.028,0.273,0.041,0.552,0.041,0.826c0,2.754-1.33,5.299-3.659,7.02l0.636,2.547c0.049,0.194,0.019,0.396-0.084,0.568   c-0.103,0.172-0.267,0.293-0.462,0.342C17.373,23.991,17.312,23.999,17.251,23.999z"></path></g></svg>