<svg xmlns="http://www.w3.org/2000/svg" xmlns:xlink="http://www.w3.org/1999/xlink" version="1.1" id="Ebene_1" x="0px" y="0px" viewBox="0 0 524 173" style="enable-background:new 0 0 524 173;" xml:space="preserve"><style type="text/css">
	.st0{fill:#B1B1B1;}
	.st1{fill:#585856;}
	.st2{fill:#E74615;}
	.st3{fill:#FFFFFF;}
</style><!-- <path class="st0" d="M494.6,161.5h-53.8c-12.1,0-21.9-9.8-21.9-21.9l0,0c0-12.1,9.8-21.9,21.9-21.9h53.8c12.1,0,21.9,9.8,21.9,21.9
	l0,0C516.5,151.7,506.7,161.5,494.6,161.5z"/> --><g><path class="st1" d="M254.5,31.1c0,6.9-1.9,12.1-5.6,15.7s-9.1,5.4-16.1,5.4h-11.5V10.7H234c6.5,0,11.5,1.8,15,5.4   C252.7,19.7,254.5,24.7,254.5,31.1z M249.4,31.3c0-5.4-1.4-9.5-4.1-12.2s-6.8-4.1-12.1-4.1h-7v33.2h5.9c5.8,0,10.1-1.4,13-4.2   S249.4,36.8,249.4,31.3z"></path><path class="st1" d="M299.8,31.4c0,6.6-1.7,11.9-5,15.7c-3.4,3.8-8,5.7-14,5.7c-6.1,0-10.8-1.9-14.2-5.6c-3.3-3.7-5-9-5-15.8   s1.7-12,5-15.7s8.1-5.6,14.2-5.6c6,0,10.6,1.9,14,5.7C298.1,19.5,299.8,24.8,299.8,31.4z M266.7,31.4c0,5.6,1.2,9.9,3.6,12.8   s5.9,4.4,10.4,4.4c4.6,0,8.1-1.4,10.4-4.3s3.5-7.2,3.5-12.8s-1.2-9.8-3.5-12.7s-5.8-4.3-10.4-4.3s-8.1,1.5-10.5,4.4   C267.9,21.7,266.7,25.9,266.7,31.4z"></path><path class="st1" d="M327.4,52.2l-14.1-36.8h-0.2c0.3,2.9,0.4,6.4,0.4,10.4v26.4H309V10.7h7.3l13.1,34.2h0.2l13.3-34.2h7.2v41.5   h-4.8V25.5c0-3.1,0.1-6.4,0.4-10h-0.2l-14.2,36.7H327.4z"></path><path class="st1" d="M387.7,52.2L382.5,39h-16.6l-5.1,13.2h-4.9l16.4-41.7h4.1l16.3,41.7H387.7z M381,34.7l-4.8-12.9   c-0.6-1.6-1.3-3.6-1.9-6c-0.4,1.8-1,3.8-1.8,6l-4.9,12.9H381z"></path><path class="st1" d="M398.4,52.2V10.7h4.8v41.5H398.4z"></path><path class="st1" d="M447,52.2h-5.5l-22.7-34.8h-0.2c0.3,4.1,0.5,7.8,0.5,11.2v23.6h-4.5V10.7h5.5l22.6,34.7h0.2   c0-0.5-0.1-2.2-0.3-4.9c-0.1-2.8-0.2-4.8-0.1-5.9V10.8h4.5V52.2z"></path><path class="st2" d="M250.3,78c0,4.6-1.4,8.2-4.1,10.7s-6.6,3.8-11.7,3.8h-3.2v13.8h-11.2V64.8h14.4c5.2,0,9.2,1.1,11.8,3.4   C249,70.5,250.3,73.8,250.3,78z M231.4,83.4h2c1.7,0,3-0.5,4-1.4s1.5-2.3,1.5-3.9c0-2.8-1.6-4.2-4.7-4.2h-2.9v9.5H231.4z"></path><path class="st2" d="M268.1,91.2v15.1h-11.2V64.8h13.6c11.3,0,16.9,4.1,16.9,12.3c0,4.8-2.3,8.5-7,11.2l12.1,18.1h-12.7L271,91.3   h-2.9V91.2z M268.1,82.7h2.1c3.9,0,5.9-1.7,5.9-5.2c0-2.9-1.9-4.3-5.8-4.3h-2.2V82.7z"></path><path class="st2" d="M296.3,106.3V64.8h11.3v41.5H296.3z"></path><path class="st2" d="M335,73.4c-2.7,0-4.7,1.1-6.2,3.3c-1.5,2.2-2.2,5.2-2.2,9c0,8,3,12,9.1,12c1.8,0,3.6-0.3,5.3-0.8   c1.7-0.5,3.5-1.1,5.2-1.8v9.5c-3.5,1.5-7.4,2.3-11.8,2.3c-6.3,0-11.1-1.8-14.4-5.5c-3.3-3.6-5-8.9-5-15.8c0-4.3,0.8-8.1,2.4-11.3   c1.6-3.3,3.9-5.8,7-7.5c3-1.8,6.6-2.6,10.7-2.6c4.5,0,8.8,1,12.9,2.9l-3.4,8.8c-1.5-0.7-3.1-1.3-4.6-1.8   C338.4,73.6,336.8,73.4,335,73.4z"></path><path class="st2" d="M378.9,106.3h-24.6V64.8h24.6v9h-13.4v6.5h12.4v9h-12.4v7.8h13.4V106.3z"></path><path class="st2" d="M238.7,127.4c-2.7,0-4.8,1.1-6.2,3.3c-1.5,2.2-2.2,5.2-2.2,9c0,8,3,12,9.1,12c1.8,0,3.6-0.3,5.3-0.8   c1.7-0.5,3.5-1.1,5.2-1.8v9.5c-3.5,1.5-7.4,2.3-11.8,2.3c-6.3,0-11.1-1.8-14.4-5.5c-3.3-3.6-5-8.9-5-15.8c0-4.3,0.8-8.1,2.4-11.3   c1.6-3.3,3.9-5.8,7-7.5c3-1.8,6.6-2.6,10.7-2.6c4.5,0,8.8,1,12.9,2.9l-3.4,8.8c-1.5-0.7-3.1-1.3-4.6-1.8   C242.1,127.7,240.4,127.4,238.7,127.4z"></path><path class="st2" d="M293.5,160.3h-11.3v-16.9h-13v16.9h-11.3v-41.5h11.3v15.4h13v-15.4h11.3V160.3z"></path><path class="st2" d="M327.1,160.3h-24.6v-41.5h24.6v9h-13.4v6.5h12.4v9h-12.4v7.8h13.4V160.3z"></path><path class="st2" d="M352.9,127.4c-2.7,0-4.8,1.1-6.2,3.3c-1.5,2.2-2.2,5.2-2.2,9c0,8,3,12,9.1,12c1.8,0,3.6-0.3,5.3-0.8   c1.7-0.5,3.5-1.1,5.2-1.8v9.5c-3.5,1.5-7.4,2.3-11.8,2.3c-6.3,0-11.1-1.8-14.4-5.5c-3.3-3.6-5-8.9-5-15.8c0-4.3,0.8-8.1,2.4-11.3   c1.6-3.3,3.9-5.8,7-7.5c3-1.8,6.6-2.6,10.7-2.6c4.5,0,8.8,1,12.9,2.9l-3.4,8.8c-1.5-0.7-3.1-1.3-4.6-1.8   C356.3,127.7,354.6,127.4,352.9,127.4z"></path><path class="st2" d="M407.6,160.3h-12.7l-8.2-15.9l-3.3,2v13.9h-11.3v-41.5h11.3v18c0.6-1.1,1.7-2.9,3.4-5.3l8.7-12.7h12.3   l-13.1,18.6L407.6,160.3z"></path></g><g><path class="st2" d="M184.8,160.7H62.7c-3.3,0-6.3-1.6-8.3-4.2l-46.7-65c-2.6-3.5-2.6-8.3,0-11.9l46.7-65c1.9-2.6,5-4.2,8.3-4.2   h122.1c5.6,0,10.2,4.6,10.2,10.2v130.1C194.9,156.2,190.4,160.7,184.8,160.7z M62.7,18.1c-0.8,0-1.5,0.4-1.9,1l-46.7,65   c-0.6,0.8-0.6,2,0,2.8l46.7,65c0.5,0.6,1.2,1,2,1h122.1c1.3,0,2.4-1.1,2.4-2.4v-130c0-1.3-1.1-2.4-2.4-2.4H62.7z"></path></g><g><path class="st2" d="M59,105.7c-11.1,0-20.1-9-20.1-20.1s9-20.1,20.1-20.1s20.1,9,20.1,20.1S70.1,105.7,59,105.7z M59,73.2   c-6.8,0-12.4,5.5-12.4,12.4S52.1,98,59,98c6.8,0,12.4-5.5,12.4-12.4S65.8,73.2,59,73.2z"></path></g><path class="st2" d="M163,35.6v11.3c-5.2-1.8-10.4-2.9-15.6-3.2v-8.1h-11.6v8.3c-7.9,0.9-13.9,3.2-17.8,6.9c-4,3.7-5.9,8.9-5.9,15.5  c0,4.3,0.7,8,2,10.9s3.4,5.5,6.4,7.9c2.9,2.3,6.7,4.5,11.5,6.4c4.2,1.6,7.6,3.1,10.1,4.2c2.5,1.2,4.3,2.2,5.3,3.1  c1.1,0.9,1.6,2,1.6,3.4c0,1.9-0.7,3.3-2.2,4.1c-1.5,0.8-3.8,1.2-7,1.2c-3.8,0-8.3-0.8-13.4-2.4c-5.1-1.6-9.8-3.6-14.1-5.9v20  c7.6,3.5,15.5,5.5,23.7,5.9v11.3h11.6v-11.6c6.6-0.9,11.8-2.9,15.6-6.2v17.8h7.8V35.6H163z M148.8,75.6c-3.8-1.4-6.9-2.6-9-3.7  c-2.2-1.1-3.7-2-4.6-2.9c-0.9-0.9-1.3-2-1.3-3.3c0-1.5,0.6-2.7,1.8-3.5S139,61,142,61c6.2,0,13.2,1.9,20.9,5.6v16.6  C159.6,80.5,154.9,77.9,148.8,75.6z"></path><!-- <g><path class="st3" d="M436.2,130.1h6c2.7,0,4.7,0.4,6,1.2s1.9,2,1.9,3.7c0,1.2-0.3,2.1-0.8,2.9s-1.3,1.2-2.2,1.3v0.1
		c1.2,0.3,2.1,0.8,2.7,1.5c0.5,0.8,0.8,1.8,0.8,3c0,1.8-0.6,3.1-1.9,4.1s-3,1.5-5.2,1.5h-7.3V130.1z M440.3,137.8h2.4
		c1.1,0,1.9-0.2,2.4-0.5s0.7-0.9,0.7-1.7c0-0.7-0.3-1.3-0.8-1.6c-0.5-0.3-1.4-0.5-2.6-0.5h-2.2v4.3H440.3z M440.3,141.1v5.1h2.7
		c1.1,0,2-0.2,2.5-0.6s0.8-1.1,0.8-2c0-1.6-1.1-2.4-3.4-2.4h-2.6V141.1z"/><path class="st3" d="M465.6,149.5h-11.2v-19.4h11.2v3.4h-7.1v4.3h6.6v3.4h-6.6v5h7.1V149.5z"/><path class="st3" d="M477.1,149.5H473v-16h-5.3v-3.4h14.6v3.4H477L477.1,149.5L477.1,149.5z"/><path class="st3" d="M497.3,149.5l-1.4-4.6h-7.1l-1.4,4.6H483l6.8-19.5h5l6.9,19.5H497.3z M494.9,141.4c-1.3-4.2-2-6.5-2.2-7.1
		c-0.2-0.5-0.3-1-0.4-1.3c-0.3,1.1-1.1,3.9-2.5,8.4H494.9z"/></g> --></svg>