<?xml version="1.0" encoding="UTF-8"?>
<svg xmlns="http://www.w3.org/2000/svg" xmlns:xlink="http://www.w3.org/1999/xlink" width="2000px" height="143px" viewBox="0 0 2780 800" version="1.1">

<defs>
<clipPath id="clip1">
  <path d="M 1.800781 10.632812 L 2784.027344 10.632812 L 2784.027344 530 L 1.800781 530 Z M 1.800781 10.632812 "/>
</clipPath>
<clipPath id="clip2">
  <path d="M 1.800781 497 L 2784.027344 497 L 2784.027344 593.265625 L 1.800781 593.265625 Z M 1.800781 497 "/>
</clipPath>
<clipPath id="clip3">
  <path d="M 167.863281 176.726562 L 2617.960938 176.726562 L 2617.960938 331.515625 L 167.863281 331.515625 Z M 167.863281 176.726562 "/>
</clipPath>
<clipPath id="clip4">
  <path d="M 2867.054688 1.949219 L 3596.832031 1.949219 L 3596.832031 600 L 2867.054688 600 Z M 2867.054688 1.949219 "/>
</clipPath>
</defs>
<g id="surface1">
<g clip-path="url(#clip1)" clip-rule="nonzero">
<path style="fill:none;stroke-width:9.018103;stroke-linecap:butt;stroke-linejoin:miter;stroke:rgb(12.941176%,15.294118%,17.647059%);stroke-opacity:1;stroke-miterlimit:4;" d="M 0.000208248 -0.0000291198 L 395.51986 -0.0000291198 L 395.51986 69.216212 L 0.000208248 69.216212 Z M 0.000208248 -0.0000291198 " transform="matrix(7.034347,0,0,7.035526,1.799316,10.633017)"/>
</g>
<g clip-path="url(#clip2)" clip-rule="nonzero">
<path style=" stroke:none;fill-rule:nonzero;fill:rgb(12.941176%,15.294118%,17.647059%);fill-opacity:1;" d="M 1.800781 497.605469 L 2784.023438 497.605469 L 2784.023438 593.265625 L 1.800781 593.265625 Z M 1.800781 497.605469 "/>
</g>
<g clip-path="url(#clip3)" clip-rule="nonzero">
<path style=" stroke:none;fill-rule:nonzero;fill:rgb(12.941176%,15.294118%,17.647059%);fill-opacity:1;" d="M 288.085938 307.246094 L 318.058594 189.164062 L 332.535156 189.164062 L 295.425781 328.25 L 279.519531 328.25 L 250.566406 216.492188 L 220.796875 328.25 L 205.097656 328.25 L 167.984375 189.164062 L 183.6875 189.164062 L 213.457031 306.226562 L 244.449219 189.164062 L 256.886719 189.164062 Z M 382.898438 229.542969 C 391.464844 229.542969 399.210938 231.652344 406.144531 235.867188 C 413.078125 240.082031 418.515625 245.820312 422.457031 253.078125 C 426.398438 260.367188 428.371094 268.496094 428.371094 277.46875 C 428.371094 280.054688 428.300781 282.023438 428.164062 283.382812 L 349.664062 283.382812 C 350.207031 293.171875 353.402344 301.535156 359.246094 308.46875 C 365.09375 315.402344 373.042969 318.867188 383.101562 318.867188 C 391.257812 318.867188 398.015625 317.332031 403.371094 314.261719 C 408.753906 311.214844 413.078125 306.972656 416.339844 301.535156 L 427.351562 308.875 C 422.863281 315.945312 416.949219 321.480469 409.609375 325.476562 C 402.269531 329.5 393.570312 331.511719 383.511719 331.511719 C 374.265625 331.511719 366.042969 329.335938 358.839844 324.988281 C 351.632812 320.636719 345.992188 314.585938 341.914062 306.835938 C 337.835938 299.085938 335.796875 290.316406 335.796875 280.527344 C 335.796875 270.738281 337.796875 261.96875 341.792969 254.222656 C 345.816406 246.472656 351.390625 240.421875 358.511719 236.070312 C 365.664062 231.71875 373.792969 229.542969 382.898438 229.542969 Z M 350.480469 271.964844 L 414.503906 271.964844 C 413.144531 262.039062 409.816406 254.589844 404.511719 249.613281 C 399.210938 244.664062 392.007812 242.1875 382.898438 242.1875 C 374.0625 242.1875 366.816406 245.003906 361.164062 250.632812 C 355.535156 256.289062 351.972656 263.398438 350.480469 271.964844 Z M 496.472656 229.542969 C 505.582031 229.542969 513.695312 231.71875 520.820312 236.070312 C 527.96875 240.421875 533.542969 246.429688 537.539062 254.097656 C 541.5625 261.792969 543.574219 270.535156 543.574219 280.324219 C 543.574219 290.25 541.535156 299.085938 537.457031 306.835938 C 533.378906 314.585938 527.738281 320.636719 520.535156 324.988281 C 513.328125 329.335938 505.171875 331.511719 496.066406 331.511719 C 489.269531 331.511719 483.015625 329.976562 477.304688 326.902344 C 471.597656 323.859375 466.769531 319.617188 462.828125 314.179688 L 462.828125 328.25 L 448.964844 328.25 L 448.964844 180.191406 L 462.828125 180.191406 L 462.828125 247.082031 C 466.769531 241.507812 471.625 237.183594 477.386719 234.113281 C 483.179688 231.066406 489.539062 229.542969 496.472656 229.542969 Z M 496.472656 318.867188 C 502.863281 318.867188 508.570312 317.238281 513.601562 313.972656 C 518.628906 310.710938 522.574219 306.15625 525.425781 300.3125 C 528.28125 294.464844 529.710938 287.800781 529.710938 280.324219 C 529.710938 272.984375 528.28125 266.429688 525.425781 260.664062 C 522.574219 254.875 518.628906 250.347656 513.601562 247.082031 C 508.570312 243.820312 502.863281 242.1875 496.472656 242.1875 C 489.949219 242.1875 484.128906 243.820312 479.019531 247.082031 C 473.933594 250.347656 469.964844 254.902344 467.109375 260.746094 C 464.257812 266.59375 462.828125 273.1875 462.828125 280.527344 C 462.828125 287.871094 464.257812 294.464844 467.109375 300.3125 C 469.964844 306.15625 473.933594 310.710938 479.019531 313.972656 C 484.128906 317.238281 489.949219 318.867188 496.472656 318.867188 Z M 596.753906 331.511719 C 587.507812 331.511719 579.394531 329.542969 572.40625 325.597656 C 565.390625 321.65625 560.050781 316.082031 556.378906 308.875 L 568.816406 302.757812 C 573.847656 313.5 583.703125 318.867188 598.382812 318.867188 C 605.453125 318.867188 611.296875 317.578125 615.917969 314.996094 C 620.542969 312.410156 622.851562 308.398438 622.851562 302.960938 C 622.851562 297.386719 620.988281 293.242188 617.265625 290.523438 C 613.511719 287.800781 606.949219 286.035156 597.566406 285.21875 C 584.519531 284.132812 575.179688 281.207031 569.550781 276.449219 C 563.898438 271.691406 561.070312 265.371094 561.070312 257.484375 C 561.070312 248.648438 564.265625 241.78125 570.652344 236.886719 C 577.042969 231.992188 585.808594 229.542969 596.957031 229.542969 C 615.851562 229.542969 628.699219 237.023438 635.496094 251.976562 L 623.054688 258.097656 C 620.746094 252.65625 617.386719 248.648438 612.984375 246.0625 C 608.550781 243.480469 602.871094 242.1875 595.9375 242.1875 C 588.867188 242.1875 583.472656 243.480469 579.746094 246.0625 C 575.996094 248.648438 574.121094 252.316406 574.121094 257.074219 C 574.121094 261.5625 576.132812 265.191406 580.15625 267.964844 C 584.152344 270.765625 591.042969 272.574219 600.832031 273.390625 C 612.929688 274.480469 621.941406 277.429688 627.867188 282.242188 C 633.769531 287.082031 636.71875 293.445312 636.71875 301.332031 C 636.71875 307.71875 634.882812 313.1875 631.210938 317.726562 C 627.542969 322.296875 622.648438 325.734375 616.53125 328.046875 C 610.414062 330.359375 603.820312 331.511719 596.753906 331.511719 Z M 679.128906 328.25 L 665.265625 328.25 L 665.265625 232.808594 L 679.128906 232.808594 Z M 672.195312 214.25 C 669.070312 214.25 666.460938 213.160156 664.367188 210.984375 C 662.246094 208.8125 661.1875 206.160156 661.1875 203.03125 C 661.1875 200.042969 662.246094 197.484375 664.367188 195.363281 C 666.460938 193.269531 669.070312 192.222656 672.195312 192.222656 C 675.1875 192.222656 677.769531 193.269531 679.945312 195.363281 C 682.121094 197.484375 683.207031 200.109375 683.207031 203.238281 C 683.207031 206.226562 682.121094 208.8125 679.945312 210.984375 C 677.769531 213.160156 675.1875 214.25 672.195312 214.25 Z M 731.328125 328.25 L 717.464844 328.25 L 717.464844 245.453125 L 701.152344 245.453125 L 701.152344 232.808594 L 717.464844 232.808594 L 717.464844 201.199219 L 731.328125 201.199219 L 731.328125 232.808594 L 753.351562 232.808594 L 753.351562 245.453125 L 731.328125 245.453125 Z M 809.628906 229.542969 C 818.191406 229.542969 825.941406 231.652344 832.871094 235.867188 C 839.804688 240.082031 845.242188 245.820312 849.183594 253.078125 C 853.125 260.367188 855.097656 268.496094 855.097656 277.46875 C 855.097656 280.054688 855.03125 282.023438 854.894531 283.382812 L 776.390625 283.382812 C 776.933594 293.171875 780.128906 301.535156 785.972656 308.46875 C 791.820312 315.402344 799.773438 318.867188 809.832031 318.867188 C 817.988281 318.867188 824.742188 317.332031 830.097656 314.261719 C 835.480469 311.214844 839.804688 306.972656 843.066406 301.535156 L 854.078125 308.875 C 849.59375 315.945312 843.679688 321.480469 836.339844 325.476562 C 829 329.5 820.296875 331.511719 810.238281 331.511719 C 800.996094 331.511719 792.769531 329.335938 785.566406 324.988281 C 778.363281 320.636719 772.722656 314.585938 768.644531 306.835938 C 764.566406 299.085938 762.527344 290.316406 762.527344 280.527344 C 762.527344 270.738281 764.523438 261.96875 768.519531 254.222656 C 772.542969 246.472656 778.117188 240.421875 785.242188 236.070312 C 792.390625 231.71875 800.519531 229.542969 809.628906 229.542969 Z M 777.207031 271.964844 L 841.230469 271.964844 C 839.871094 262.039062 836.542969 254.589844 831.242188 249.613281 C 825.941406 244.664062 818.734375 242.1875 809.628906 242.1875 C 800.792969 242.1875 793.546875 245.003906 787.890625 250.632812 C 782.261719 256.289062 778.703125 263.398438 777.207031 271.964844 Z M 965.164062 328.25 L 965.164062 189.164062 L 1011.652344 189.164062 C 1024.160156 189.164062 1034.152344 192.972656 1041.628906 200.585938 C 1049.105469 208.199219 1052.84375 218.734375 1052.84375 232.195312 C 1052.84375 245.519531 1048.941406 255.988281 1041.136719 263.601562 C 1033.308594 271.214844 1022.9375 275.023438 1010.023438 275.023438 L 980.457031 275.023438 L 980.457031 328.25 Z M 980.457031 262.378906 L 1009.617188 262.378906 C 1018.722656 262.378906 1025.65625 259.824219 1030.414062 254.710938 C 1035.171875 249.625 1037.550781 242.121094 1037.550781 232.195312 C 1037.550781 222.269531 1035.171875 214.726562 1030.414062 209.558594 C 1025.65625 204.390625 1018.722656 201.808594 1009.617188 201.808594 L 980.457031 201.808594 Z M 1107.894531 229.542969 C 1116.460938 229.542969 1124.207031 231.652344 1131.140625 235.867188 C 1138.074219 240.082031 1143.511719 245.820312 1147.453125 253.078125 C 1151.394531 260.367188 1153.367188 268.496094 1153.367188 277.46875 C 1153.367188 280.054688 1153.296875 282.023438 1153.164062 283.382812 L 1074.660156 283.382812 C 1075.203125 293.171875 1078.398438 301.535156 1084.242188 308.46875 C 1090.089844 315.402344 1098.042969 318.867188 1108.101562 318.867188 C 1116.257812 318.867188 1123.011719 317.332031 1128.367188 314.261719 C 1133.75 311.214844 1138.074219 306.972656 1141.335938 301.535156 L 1152.347656 308.875 C 1147.863281 315.945312 1141.949219 321.480469 1134.609375 325.476562 C 1127.265625 329.5 1118.566406 331.511719 1108.507812 331.511719 C 1099.265625 331.511719 1091.039062 329.335938 1083.835938 324.988281 C 1076.632812 320.636719 1070.988281 314.585938 1066.910156 306.835938 C 1062.832031 299.085938 1060.792969 290.316406 1060.792969 280.527344 C 1060.792969 270.738281 1062.792969 261.96875 1066.789062 254.222656 C 1070.8125 246.472656 1076.386719 240.421875 1083.507812 236.070312 C 1090.660156 231.71875 1098.789062 229.542969 1107.894531 229.542969 Z M 1075.476562 271.964844 L 1139.5 271.964844 C 1138.140625 262.039062 1134.8125 254.589844 1129.511719 249.613281 C 1124.207031 244.664062 1117.003906 242.1875 1107.894531 242.1875 C 1099.0625 242.1875 1091.816406 245.003906 1086.160156 250.632812 C 1080.53125 256.289062 1076.972656 263.398438 1075.476562 271.964844 Z M 1220.65625 229.542969 C 1223.917969 229.542969 1227.042969 230.019531 1230.035156 230.972656 L 1230.035156 243.617188 C 1227.179688 242.257812 1224.054688 241.578125 1220.65625 241.578125 C 1214.808594 241.578125 1209.371094 243.207031 1204.34375 246.472656 C 1199.3125 249.734375 1195.261719 254.464844 1192.191406 260.664062 C 1189.144531 266.835938 1187.621094 274.140625 1187.621094 282.566406 L 1187.621094 328.25 L 1173.757812 328.25 L 1173.757812 232.808594 L 1187.621094 232.808594 L 1187.621094 251.976562 C 1191.292969 244.90625 1195.941406 239.402344 1201.570312 235.457031 C 1207.222656 231.515625 1213.585938 229.542969 1220.65625 229.542969 Z M 1278.113281 189.367188 C 1273.355469 189.367188 1269.457031 191 1266.410156 194.261719 C 1263.339844 197.527344 1261.800781 201.742188 1261.800781 206.90625 L 1261.800781 232.808594 L 1283.824219 232.808594 L 1283.824219 245.453125 L 1261.800781 245.453125 L 1261.800781 328.25 L 1247.9375 328.25 L 1247.9375 245.453125 L 1235.703125 245.453125 L 1235.703125 232.808594 L 1247.9375 232.808594 L 1247.9375 206.90625 C 1247.9375 198.070312 1250.765625 190.824219 1256.417969 185.167969 C 1262.046875 179.539062 1269.277344 176.726562 1278.113281 176.726562 L 1283.824219 176.726562 L 1283.824219 189.367188 Z M 1340.507812 331.511719 C 1331.402344 331.511719 1323.246094 329.335938 1316.039062 324.988281 C 1308.835938 320.636719 1303.195312 314.546875 1299.117188 306.714844 C 1295.039062 298.910156 1293 290.113281 1293 280.324219 C 1293 270.535156 1295.011719 261.792969 1299.035156 254.097656 C 1303.03125 246.429688 1308.605469 240.421875 1315.753906 236.070312 C 1322.878906 231.71875 1330.992188 229.542969 1340.101562 229.542969 C 1349.207031 229.542969 1357.363281 231.71875 1364.570312 236.070312 C 1371.773438 240.421875 1377.414062 246.472656 1381.492188 254.222656 C 1385.570312 261.96875 1387.609375 270.738281 1387.609375 280.527344 C 1387.609375 290.316406 1385.613281 299.085938 1381.617188 306.835938 C 1377.59375 314.585938 1372.019531 320.636719 1364.894531 324.988281 C 1357.746094 329.335938 1349.617188 331.511719 1340.507812 331.511719 Z M 1340.101562 318.867188 C 1346.625 318.867188 1352.445312 317.238281 1357.554688 313.972656 C 1362.640625 310.710938 1366.609375 306.15625 1369.464844 300.3125 C 1372.316406 294.464844 1373.746094 287.871094 1373.746094 280.527344 C 1373.746094 273.1875 1372.316406 266.59375 1369.464844 260.746094 C 1366.609375 254.902344 1362.640625 250.347656 1357.554688 247.082031 C 1352.445312 243.820312 1346.625 242.1875 1340.101562 242.1875 C 1333.710938 242.1875 1328.003906 243.820312 1322.972656 247.082031 C 1317.945312 250.347656 1314 254.875 1311.148438 260.664062 C 1308.292969 266.429688 1306.863281 272.984375 1306.863281 280.324219 C 1306.863281 287.800781 1308.292969 294.464844 1311.148438 300.3125 C 1314 306.15625 1317.945312 310.710938 1322.972656 313.972656 C 1328.003906 317.238281 1333.710938 318.867188 1340.101562 318.867188 Z M 1454.082031 229.542969 C 1457.34375 229.542969 1460.472656 230.019531 1463.460938 230.972656 L 1463.460938 243.617188 C 1460.609375 242.257812 1457.480469 241.578125 1454.082031 241.578125 C 1448.238281 241.578125 1442.800781 243.207031 1437.769531 246.472656 C 1432.742188 249.734375 1428.691406 254.464844 1425.617188 260.664062 C 1422.574219 266.835938 1421.050781 274.140625 1421.050781 282.566406 L 1421.050781 328.25 L 1407.183594 328.25 L 1407.183594 232.808594 L 1421.050781 232.808594 L 1421.050781 251.976562 C 1424.722656 244.90625 1429.371094 239.402344 1434.996094 235.457031 C 1440.652344 231.515625 1447.015625 229.542969 1454.082031 229.542969 Z M 1577.851562 229.542969 C 1586.6875 229.542969 1594.027344 232.628906 1599.875 238.804688 C 1605.71875 245.003906 1608.640625 253.542969 1608.640625 264.417969 L 1608.640625 328.25 L 1594.777344 328.25 L 1594.777344 270.535156 C 1594.777344 260.476562 1592.871094 253.226562 1589.066406 248.796875 C 1585.261719 244.390625 1580.296875 242.1875 1574.179688 242.1875 C 1566.707031 242.1875 1560.886719 245.070312 1556.726562 250.835938 C 1552.59375 256.628906 1550.1875 264.484375 1549.507812 274.410156 L 1549.507812 328.25 L 1535.644531 328.25 L 1535.644531 270.535156 C 1535.644531 260.476562 1533.742188 253.226562 1529.933594 248.796875 C 1526.128906 244.390625 1521.167969 242.1875 1515.050781 242.1875 C 1506.757812 242.1875 1500.53125 245.65625 1496.371094 252.589844 C 1492.238281 259.523438 1490.171875 268.835938 1490.171875 280.527344 L 1490.171875 328.25 L 1476.308594 328.25 L 1476.308594 232.808594 L 1490.171875 232.808594 L 1490.171875 247.695312 C 1493.300781 241.847656 1497.269531 237.363281 1502.082031 234.234375 C 1506.921875 231.109375 1512.46875 229.542969 1518.71875 229.542969 C 1525.652344 229.542969 1531.703125 231.40625 1536.867188 235.132812 C 1542.03125 238.886719 1545.636719 244.226562 1547.675781 251.160156 C 1550.664062 244.363281 1554.742188 239.0625 1559.910156 235.253906 C 1565.074219 231.449219 1571.054688 229.542969 1577.851562 229.542969 Z M 1708.105469 232.808594 L 1721.96875 232.808594 L 1721.96875 328.25 L 1708.105469 328.25 L 1708.105469 314.179688 C 1704.164062 319.617188 1699.335938 323.859375 1693.628906 326.902344 C 1687.917969 329.976562 1681.664062 331.511719 1674.867188 331.511719 C 1665.761719 331.511719 1657.605469 329.335938 1650.402344 324.988281 C 1643.195312 320.636719 1637.554688 314.585938 1633.476562 306.835938 C 1629.398438 299.085938 1627.359375 290.25 1627.359375 280.324219 C 1627.359375 270.535156 1629.371094 261.792969 1633.394531 254.097656 C 1637.390625 246.429688 1642.964844 240.421875 1650.113281 236.070312 C 1657.238281 231.71875 1665.351562 229.542969 1674.460938 229.542969 C 1681.394531 229.542969 1687.753906 231.066406 1693.546875 234.113281 C 1699.308594 237.183594 1704.164062 241.507812 1708.105469 247.082031 Z M 1674.460938 318.867188 C 1680.984375 318.867188 1686.804688 317.238281 1691.914062 313.972656 C 1697 310.710938 1700.96875 306.15625 1703.824219 300.3125 C 1706.675781 294.464844 1708.105469 287.871094 1708.105469 280.527344 C 1708.105469 273.1875 1706.675781 266.59375 1703.824219 260.746094 C 1700.96875 254.902344 1697 250.347656 1691.914062 247.082031 C 1686.804688 243.820312 1680.984375 242.1875 1674.460938 242.1875 C 1668.070312 242.1875 1662.363281 243.820312 1657.332031 247.082031 C 1652.304688 250.347656 1648.363281 254.875 1645.507812 260.664062 C 1642.652344 266.429688 1641.226562 272.984375 1641.226562 280.324219 C 1641.226562 287.800781 1642.652344 294.464844 1645.507812 300.3125 C 1648.363281 306.15625 1652.304688 310.710938 1657.332031 313.972656 C 1662.363281 317.238281 1668.070312 318.867188 1674.460938 318.867188 Z M 1793.132812 229.542969 C 1799.792969 229.542969 1805.949219 230.902344 1811.605469 233.625 C 1817.234375 236.34375 1821.71875 240.351562 1825.0625 245.65625 C 1828.378906 250.957031 1830.039062 257.210938 1830.039062 264.417969 L 1830.039062 328.25 L 1816.171875 328.25 L 1816.171875 270.535156 C 1816.171875 251.636719 1807.746094 242.1875 1790.890625 242.1875 C 1781.101562 242.1875 1773.761719 245.65625 1768.867188 252.589844 C 1763.972656 259.523438 1761.527344 268.835938 1761.527344 280.527344 L 1761.527344 328.25 L 1747.660156 328.25 L 1747.660156 232.808594 L 1761.527344 232.808594 L 1761.527344 248.714844 C 1764.789062 242.597656 1769.113281 237.863281 1774.496094 234.519531 C 1779.851562 231.203125 1786.0625 229.542969 1793.132812 229.542969 Z M 1898.550781 331.511719 C 1889.304688 331.511719 1881.082031 329.335938 1873.878906 324.988281 C 1866.671875 320.636719 1861.03125 314.585938 1856.953125 306.835938 C 1852.875 299.085938 1850.835938 290.316406 1850.835938 280.527344 C 1850.835938 270.738281 1852.835938 261.96875 1856.832031 254.222656 C 1860.855469 246.472656 1866.46875 240.421875 1873.675781 236.070312 C 1880.878906 231.71875 1889.035156 229.542969 1898.140625 229.542969 C 1905.890625 229.542969 1912.648438 231.203125 1918.410156 234.519531 C 1924.203125 237.863281 1929.476562 242.597656 1934.234375 248.714844 L 1924.039062 256.667969 C 1917.378906 247.015625 1908.746094 242.1875 1898.140625 242.1875 C 1891.753906 242.1875 1886.003906 243.820312 1880.890625 247.082031 C 1875.808594 250.347656 1871.839844 254.902344 1868.984375 260.746094 C 1866.128906 266.59375 1864.703125 273.1875 1864.703125 280.527344 C 1864.703125 287.871094 1866.128906 294.464844 1868.984375 300.3125 C 1871.839844 306.15625 1875.808594 310.710938 1880.890625 313.972656 C 1886.003906 317.238281 1891.753906 318.867188 1898.140625 318.867188 C 1904.667969 318.867188 1910.035156 317.742188 1914.25 315.484375 C 1918.464844 313.253906 1922.269531 309.964844 1925.667969 305.613281 L 1936.476562 313.160156 C 1931.992188 318.734375 1926.445312 323.179688 1919.835938 326.496094 C 1913.257812 329.839844 1906.164062 331.511719 1898.550781 331.511719 Z M 1995.609375 229.542969 C 2004.171875 229.542969 2011.921875 231.652344 2018.851562 235.867188 C 2025.785156 240.082031 2031.222656 245.820312 2035.164062 253.078125 C 2039.105469 260.367188 2041.078125 268.496094 2041.078125 277.46875 C 2041.078125 280.054688 2041.011719 282.023438 2040.875 283.382812 L 1962.371094 283.382812 C 1962.914062 293.171875 1966.109375 301.535156 1971.957031 308.46875 C 1977.800781 315.402344 1985.753906 318.867188 1995.8125 318.867188 C 2003.96875 318.867188 2010.722656 317.332031 2016.078125 314.261719 C 2021.460938 311.214844 2025.785156 306.972656 2029.046875 301.535156 L 2040.058594 308.875 C 2035.574219 315.945312 2029.660156 321.480469 2022.320312 325.476562 C 2014.980469 329.5 2006.277344 331.511719 1996.21875 331.511719 C 1986.976562 331.511719 1978.753906 329.335938 1971.546875 324.988281 C 1964.34375 320.636719 1958.703125 314.585938 1954.625 306.835938 C 1950.546875 299.085938 1948.507812 290.316406 1948.507812 280.527344 C 1948.507812 270.738281 1950.503906 261.96875 1954.5 254.222656 C 1958.523438 246.472656 1964.097656 240.421875 1971.222656 236.070312 C 1978.371094 231.71875 1986.5 229.542969 1995.609375 229.542969 Z M 1963.1875 271.964844 L 2027.214844 271.964844 C 2025.855469 262.039062 2022.523438 254.589844 2017.222656 249.613281 C 2011.921875 244.664062 2004.714844 242.1875 1995.609375 242.1875 C 1986.773438 242.1875 1979.527344 245.003906 1973.871094 250.632812 C 1968.246094 256.289062 1964.683594 263.398438 1963.1875 271.964844 Z M 2161.953125 331.511719 C 2150.261719 331.511719 2140.175781 328.617188 2131.691406 322.824219 C 2123.183594 317.0625 2116.660156 308.765625 2112.117188 297.945312 C 2107.550781 287.148438 2105.265625 274.207031 2105.265625 259.117188 C 2105.265625 243.886719 2107.484375 230.796875 2111.914062 219.835938 C 2116.320312 208.90625 2122.640625 200.542969 2130.878906 194.753906 C 2139.085938 188.988281 2148.835938 186.105469 2160.117188 186.105469 C 2171.671875 186.105469 2181.566406 188.648438 2189.804688 193.734375 C 2198.015625 198.84375 2204.433594 206.023438 2209.054688 215.269531 L 2196.820312 222.40625 C 2192.46875 214.386719 2187.371094 208.632812 2181.527344 205.152344 C 2175.679688 201.699219 2168.542969 199.972656 2160.117188 199.972656 C 2148.019531 199.972656 2138.542969 205.167969 2131.691406 215.554688 C 2124.816406 225.96875 2121.375 240.421875 2121.375 258.910156 C 2121.375 271.011719 2122.9375 281.480469 2126.066406 290.316406 C 2129.191406 299.15625 2133.675781 305.914062 2139.523438 310.589844 C 2145.367188 315.292969 2152.164062 317.644531 2159.914062 317.644531 C 2169.5625 317.644531 2177.082031 315.511719 2182.464844 311.242188 C 2187.820312 306.945312 2192.808594 300.242188 2197.429688 291.132812 L 2210.277344 298.882812 C 2205.382812 309.488281 2198.898438 317.578125 2190.824219 323.152344 C 2182.722656 328.726562 2173.097656 331.511719 2161.953125 331.511719 Z M 2275.730469 229.542969 C 2282.390625 229.542969 2288.535156 230.902344 2294.164062 233.625 C 2299.816406 236.34375 2304.304688 240.351562 2307.621094 245.65625 C 2310.964844 250.957031 2312.636719 257.210938 2312.636719 264.417969 L 2312.636719 328.25 L 2298.769531 328.25 L 2298.769531 270.535156 C 2298.769531 251.636719 2290.34375 242.1875 2273.488281 242.1875 C 2263.699219 242.1875 2256.359375 245.65625 2251.464844 252.589844 C 2246.570312 259.523438 2244.125 268.835938 2244.125 280.527344 L 2244.125 328.25 L 2230.257812 328.25 L 2230.257812 180.191406 L 2244.125 180.191406 L 2244.125 248.714844 C 2247.386719 242.597656 2251.695312 237.863281 2257.050781 234.519531 C 2262.433594 231.203125 2268.660156 229.542969 2275.730469 229.542969 Z M 2380.332031 229.542969 C 2388.894531 229.542969 2396.644531 231.652344 2403.578125 235.867188 C 2410.507812 240.082031 2415.945312 245.820312 2419.890625 253.078125 C 2423.832031 260.367188 2425.800781 268.496094 2425.800781 277.46875 C 2425.800781 280.054688 2425.734375 282.023438 2425.597656 283.382812 L 2347.097656 283.382812 C 2347.613281 293.171875 2350.808594 301.535156 2356.679688 308.46875 C 2362.523438 315.402344 2370.464844 318.867188 2380.496094 318.867188 C 2388.652344 318.867188 2395.421875 317.332031 2400.804688 314.261719 C 2406.1875 311.214844 2410.507812 306.972656 2413.773438 301.535156 L 2424.78125 308.875 C 2420.296875 315.945312 2414.371094 321.480469 2407.003906 325.476562 C 2399.6875 329.5 2391.003906 331.511719 2380.945312 331.511719 C 2371.699219 331.511719 2363.476562 329.335938 2356.269531 324.988281 C 2349.066406 320.636719 2343.425781 314.585938 2339.347656 306.835938 C 2335.269531 299.085938 2333.230469 290.316406 2333.230469 280.527344 C 2333.230469 270.738281 2335.230469 261.96875 2339.226562 254.222656 C 2343.25 246.472656 2348.820312 240.421875 2355.945312 236.070312 C 2363.09375 231.71875 2371.222656 229.542969 2380.332031 229.542969 Z M 2347.871094 271.964844 L 2411.9375 271.964844 C 2410.578125 262.039062 2407.234375 254.589844 2401.90625 249.613281 C 2396.628906 244.664062 2389.441406 242.1875 2380.332031 242.1875 C 2371.496094 242.1875 2364.25 245.003906 2358.597656 250.632812 C 2352.96875 256.289062 2349.394531 263.398438 2347.871094 271.964844 Z M 2487.542969 331.511719 C 2478.300781 331.511719 2470.078125 329.335938 2462.871094 324.988281 C 2455.667969 320.636719 2450.027344 314.585938 2445.949219 306.835938 C 2441.871094 299.085938 2439.832031 290.316406 2439.832031 280.527344 C 2439.832031 270.738281 2441.84375 261.96875 2445.867188 254.222656 C 2449.863281 246.472656 2455.464844 240.421875 2462.667969 236.070312 C 2469.871094 231.71875 2478.027344 229.542969 2487.136719 229.542969 C 2494.882812 229.542969 2501.652344 231.203125 2507.445312 234.519531 C 2513.207031 237.863281 2518.46875 242.597656 2523.226562 248.714844 L 2513.03125 256.667969 C 2506.371094 247.015625 2497.738281 242.1875 2487.136719 242.1875 C 2480.746094 242.1875 2475.011719 243.820312 2469.925781 247.082031 C 2464.816406 250.347656 2460.832031 254.902344 2457.976562 260.746094 C 2455.125 266.59375 2453.695312 273.1875 2453.695312 280.527344 C 2453.695312 287.871094 2455.125 294.464844 2457.976562 300.3125 C 2460.832031 306.15625 2464.816406 310.710938 2469.925781 313.972656 C 2475.011719 317.238281 2480.746094 318.867188 2487.136719 318.867188 C 2493.660156 318.867188 2499.03125 317.742188 2503.246094 315.484375 C 2507.457031 313.253906 2511.265625 309.964844 2514.664062 305.613281 L 2525.46875 313.160156 C 2520.984375 318.734375 2515.453125 323.179688 2508.871094 326.496094 C 2502.265625 329.839844 2495.15625 331.511719 2487.542969 331.511719 Z M 2617.839844 328.25 L 2602.339844 328.25 L 2568.902344 279.101562 L 2557.277344 290.316406 L 2557.277344 328.25 L 2543.414062 328.25 L 2543.414062 180.191406 L 2557.277344 180.191406 L 2557.277344 272.777344 L 2599.078125 232.808594 L 2617.023438 232.808594 L 2578.484375 269.925781 Z M 2617.839844 328.25 "/>
</g>
<g clip-path="url(#clip4)" clip-rule="nonzero">
<!-- <path style=" stroke:none;fill-rule:nonzero;fill:rgb(91.764706%,31.764706%,25.490196%);fill-opacity:1;" d="M 3495.480469 0 L 3447.6875 50.699219 L 3114.664062 404.050781 L 3014.746094 304.113281 L 2965.515625 254.878906 L 2867.054688 353.351562 L 2916.285156 402.589844 L 3066.871094 553.199219 L 3117.558594 603.898438 L 3166.789062 551.761719 L 3549.039062 146.277344 L 3596.832031 95.578125 Z M 3495.480469 0 "/> -->
</g>
</g>
</svg>
