<?xml version="1.0" standalone="no"?>
<!DOCTYPE svg PUBLIC "-//W3C//DTD SVG 20010904//EN"
 "https://www.w3.org/TR/2001/REC-SVG-20010904/DTD/svg10.dtd">
<svg version="1.0" xmlns="https://www.w3.org/2000/svg"
 width="100.000000pt" height="40.000000pt" viewBox="0 0 499.000000 499.000000"
 preserveAspectRatio="xMidYMid meet">

<g transform="translate(0.000000,499.000000) scale(0.100000,-0.100000)"
fill="rgb(255, 127, 80)" stroke="none">
<path d="M3112 4078 c-7 -7 -12 -30 -12 -52 l0 -41 -73 -30 c-39 -16 -75 -31
-78 -33 -3 -1 -19 9 -35 23 -37 32 -55 31 -93 0 -46 -39 -48 -61 -11 -100 l32
-33 -25 -48 c-13 -27 -27 -61 -31 -76 -6 -25 -11 -28 -49 -28 -56 0 -67 -13
-67 -75 0 -62 11 -75 67 -75 38 0 43 -3 49 -27 4 -16 18 -50 31 -76 l24 -48
-30 -34 c-20 -23 -28 -41 -24 -54 6 -23 67 -81 85 -81 7 0 26 14 44 31 l32 31
33 -18 c19 -9 52 -23 74 -29 38 -11 40 -14 43 -56 4 -58 16 -69 72 -69 73 0
80 5 80 61 0 45 2 49 28 55 15 4 49 18 75 31 l48 24 30 -26 c17 -14 41 -25 53
-25 24 0 86 57 86 79 0 7 -14 29 -30 48 l-30 34 19 37 c10 20 24 54 30 75 12
35 15 37 56 37 56 0 67 15 63 87 l-3 58 -52 3 c-31 2 -53 8 -53 14 0 6 -14 41
-31 78 l-31 67 31 31 c17 17 31 35 31 41 0 18 -71 91 -88 91 -9 0 -30 -14 -48
-31 l-32 -31 -38 20 c-22 11 -56 25 -76 31 -36 12 -38 15 -38 55 0 23 -5 47
-12 54 -16 16 -110 16 -126 0z m164 -319 c63 -39 88 -83 92 -163 4 -67 2 -74
-30 -120 -42 -64 -94 -91 -169 -90 -106 1 -185 74 -196 180 -5 45 -1 62 22
109 15 31 38 63 51 72 72 47 166 52 230 12z"/>
<path d="M2065 3343 c-127 -11 -289 -66 -395 -135 -133 -86 -256 -231 -318
-373 -50 -116 -63 -175 -82 -357 -12 -115 -38 -192 -111 -324 -30 -54 -53
-101 -52 -106 2 -4 -2 -8 -7 -8 -17 0 -11 -56 8 -73 12 -11 41 -17 91 -19 l74
-3 -2 -195 c-3 -264 11 -322 84 -363 11 -6 85 -14 165 -17 l145 -5 2 -113 c1
-122 9 -142 51 -142 14 0 84 20 156 45 72 24 298 101 501 170 289 98 375 131
393 151 21 24 22 32 22 236 l0 210 45 60 c56 75 110 187 137 287 17 60 21 105
21 216 0 123 -3 150 -26 228 -89 292 -306 514 -582 596 -68 20 -218 43 -260
39 -11 -1 -38 -3 -60 -5z m285 -207 c8 -1 18 -5 22 -10 3 -5 17 -10 29 -11 19
-1 24 -8 27 -38 2 -20 -2 -53 -8 -74 -9 -34 -8 -40 11 -53 12 -8 48 -39 80
-69 l59 -54 49 22 c31 15 56 21 70 16 24 -7 61 -61 79 -114 16 -44 0 -70 -58
-96 -40 -18 -41 -20 -35 -54 4 -20 10 -69 14 -110 l6 -74 48 -14 c65 -19 75
-42 52 -119 -9 -33 -24 -67 -32 -76 -20 -22 -59 -23 -105 -3 l-35 14 -34 -47
c-18 -26 -50 -63 -70 -82 l-37 -35 24 -45 c13 -25 23 -52 24 -62 1 -37 -119
-106 -164 -94 -18 4 -34 22 -51 55 l-24 49 -43 -10 c-24 -5 -71 -10 -106 -10
-39 0 -65 -5 -67 -12 -1 -6 -8 -30 -14 -54 -17 -60 -43 -71 -121 -47 -71 22
-94 43 -87 82 3 15 8 44 12 63 6 31 4 37 -17 47 -13 6 -50 34 -81 63 -53 48
-60 52 -83 41 -14 -6 -23 -14 -21 -19 3 -4 -15 -8 -39 -10 -41 -3 -45 0 -73
38 -17 23 -35 57 -41 76 -15 45 2 73 59 99 31 14 40 23 35 34 -3 9 -9 57 -11
108 -6 90 -6 92 -32 98 -48 10 -91 43 -91 68 0 33 30 118 49 140 16 19 65 20
117 3 16 -6 26 1 49 36 16 23 46 60 69 80 l40 38 -23 48 c-30 64 -23 85 42
122 52 30 127 41 127 19 0 -5 4 -8 8 -5 4 2 9 -4 9 -16 1 -11 9 -31 18 -44 12
-19 21 -23 38 -18 12 4 60 10 106 13 l84 6 14 48 c16 54 39 70 88 60 17 -3 37
-6 45 -7z"/>
<path d="M2057 2824 c-3 -4 2 -23 13 -43 17 -34 22 -37 53 -33 91 11 213 -62
256 -152 17 -34 29 -45 53 -50 49 -10 58 -7 58 14 0 40 -72 161 -93 157 -7 -1
-11 3 -10 10 4 17 -64 66 -78 57 -7 -4 -9 -3 -6 3 11 17 -91 43 -167 43 -40 0
-75 -3 -79 -6z"/>
<path d="M1866 2708 c-85 -98 -106 -255 -52 -375 15 -34 38 -71 51 -83 l23
-22 27 40 26 40 -28 43 c-26 39 -28 50 -28 135 0 89 1 94 33 140 l34 47 -18
38 c-9 22 -21 39 -25 39 -4 0 -24 -19 -43 -42z"/>
<path d="M2091 2587 c-56 -29 -82 -114 -50 -165 36 -57 128 -67 176 -19 53 53
35 155 -32 183 -42 17 -63 17 -94 1z"/>
<path d="M2382 2376 c-18 -40 -83 -106 -126 -129 -31 -16 -59 -21 -116 -22
-76 0 -105 -13 -95 -43 3 -7 1 -11 -3 -8 -4 3 -13 -4 -20 -14 -11 -17 -8 -20
31 -31 64 -17 173 -7 240 24 68 31 137 98 171 166 36 70 34 76 -22 79 -43 2
-50 0 -60 -22z"/>
<path d="M3361 3041 c-10 -6 -12 -19 -7 -44 6 -32 4 -38 -21 -51 -15 -7 -37
-23 -47 -35 -18 -20 -21 -20 -43 -5 -31 20 -48 13 -68 -25 -16 -32 -15 -34 27
-64 14 -10 15 -22 10 -71 -7 -57 -9 -60 -39 -68 -26 -7 -33 -14 -33 -34 0 -47
18 -67 54 -60 29 6 36 2 70 -40 32 -38 37 -50 28 -63 -24 -32 -25 -44 -6 -58
30 -22 66 -28 75 -12 24 40 25 41 84 32 55 -8 59 -10 67 -40 7 -26 14 -33 34
-33 47 0 67 18 60 55 -6 30 -3 35 42 68 46 33 50 34 77 20 27 -14 29 -14 46 8
10 13 19 33 19 44 0 23 -35 49 -52 39 -7 -5 -8 -2 -3 6 4 7 11 38 14 69 6 52
8 56 39 65 34 10 39 25 22 71 -9 24 -14 26 -43 21 -29 -5 -36 -1 -71 40 l-39
46 18 31 c18 30 18 31 -5 49 -31 25 -64 23 -79 -5 -11 -21 -18 -23 -64 -20
-52 5 -87 28 -87 59 0 16 -56 19 -79 5z m221 -241 c32 -36 38 -50 38 -88 0
-86 -57 -142 -145 -142 -39 0 -52 5 -86 38 -61 57 -66 128 -12 192 35 42 58
51 118 46 44 -3 54 -8 87 -46z"/>
</g>
</svg>
