<?xml version="1.0" standalone="no"?>
<!DOCTYPE svg PUBLIC "-//W3C//DTD SVG 20010904//EN"
 "http://www.w3.org/TR/2001/REC-SVG-20010904/DTD/svg10.dtd">
<svg version="1.0" xmlns="http://www.w3.org/2000/svg"
 width="2000.000000pt" height="1500.000000pt" viewBox="0 0 2000.000000 1500.000000"
 preserveAspectRatio="xMidYMid meet">

<g transform="translate(0.000000,1500.000000) scale(0.100000,-0.100000)"
fill="#000000" stroke="none">
<path d="M7706 10087 c-9 -12 -20 -45 -26 -72 -7 -35 -10 -820 -8 -2545 3
-2472 3 -2495 23 -2535 16 -32 26 -41 52 -43 27 -3 35 2 50 30 17 32 18 143
18 2578 0 2419 -1 2547 -18 2578 -22 40 -68 45 -91 9z"/>
<path d="M6042 10077 c-18 -19 -22 -35 -22 -95 0 -50 -4 -74 -12 -76 -60 -14
-157 -52 -199 -77 l-51 -30 -54 51 c-71 67 -89 66 -166 -7 -93 -90 -95 -108
-15 -192 29 -30 43 -52 37 -56 -6 -4 -9 -14 -6 -22 3 -8 2 -12 -3 -9 -10 7
-68 -116 -79 -169 l-8 -40 -78 -5 c-105 -7 -116 -20 -116 -139 1 -119 11 -131
114 -131 l75 0 11 -42 c13 -52 46 -130 78 -181 l23 -39 -50 -53 c-69 -73 -68
-89 13 -172 53 -55 69 -66 95 -65 27 1 91 32 66 32 -5 0 2 8 15 17 14 9 29 23
33 30 12 19 33 16 75 -11 30 -20 129 -58 190 -72 8 -2 12 -26 12 -74 0 -63 3
-74 25 -96 25 -25 30 -26 121 -22 114 4 117 6 124 118 l5 74 40 8 c55 12 206
88 199 100 -12 19 22 -6 76 -54 31 -29 61 -48 75 -48 16 0 47 22 90 61 84 79
87 106 18 180 l-47 50 27 55 c15 30 24 60 21 66 -4 6 -2 8 4 4 6 -4 17 16 27
51 9 32 18 64 20 71 3 8 27 12 75 12 62 0 74 3 95 25 23 22 25 32 25 114 0 85
-1 91 -26 110 -21 17 -41 21 -95 21 -73 0 -78 4 -84 52 -5 37 -74 188 -87 188
-19 0 -5 27 43 77 46 48 51 58 45 86 -4 21 -27 52 -66 91 -77 75 -102 77 -169
13 -41 -39 -91 -71 -77 -49 7 12 -153 85 -170 78 -8 -3 -14 -1 -14 4 0 5 -12
10 -27 12 -26 3 -26 4 -24 75 2 68 0 74 -25 98 -24 23 -35 25 -114 25 -78 0
-89 -2 -108 -23z m193 -531 c65 -17 142 -66 178 -111 16 -20 40 -61 54 -93 34
-77 30 -189 -8 -272 -24 -50 -95 -140 -112 -140 -4 0 -24 -10 -45 -23 -44 -27
-74 -32 -169 -31 -81 1 -158 32 -218 88 -19 18 -37 30 -41 27 -3 -3 -5 -1 -3
4 1 6 -11 37 -27 70 -25 53 -29 71 -29 150 0 77 4 98 26 145 74 155 232 230
394 186z"/>
<path d="M10810 9251 c0 -319 4 -582 8 -585 21 -13 157 -27 257 -27 160 0 229
23 309 104 81 82 107 147 114 280 10 209 -62 358 -206 425 -47 22 -72 26 -137
26 -92 0 -158 -24 -212 -76 l-33 -32 0 232 0 232 -50 0 -50 0 0 -579z m435
120 c123 -56 188 -229 152 -405 -39 -190 -158 -263 -392 -240 l-90 9 0 256 0
256 29 41 c60 87 205 127 301 83z"/>
<path d="M8285 9783 c-12 -2 -34 -15 -50 -28 l-30 -24 30 -26 c29 -24 40 -25
76 -11 39 17 55 -22 224 -536 l167 -508 48 0 c46 0 49 2 59 33 5 17 64 201
131 407 67 206 131 404 142 440 11 36 23 68 27 72 3 4 76 -208 161 -470 l156
-477 49 0 49 0 178 545 c97 300 178 551 178 558 0 8 -15 12 -45 12 l-44 0 -85
-262 c-46 -145 -117 -364 -156 -488 -39 -124 -73 -229 -75 -235 -2 -5 -4 -3
-4 5 -1 14 -46 156 -227 718 l-85 262 -48 0 -47 0 -40 -127 c-140 -442 -270
-843 -274 -843 -3 0 -35 93 -71 208 -246 767 -235 738 -306 768 -32 14 -49 15
-88 7z"/>
<path d="M12371 9684 c-26 -33 -26 -55 -3 -82 29 -35 67 -38 96 -8 31 30 33
65 6 94 -29 31 -73 29 -99 -4z"/>
<path d="M12772 9227 l3 -443 26 -49 c35 -69 84 -96 178 -96 86 0 125 17 182
78 l42 46 -34 28 c-41 34 -46 35 -54 9 -10 -30 -70 -71 -113 -77 -52 -7 -99
18 -118 62 -11 27 -14 95 -14 315 l0 280 125 0 125 0 0 40 0 40 -125 0 -125 0
0 105 0 105 -50 0 -51 0 3 -443z"/>
<path d="M11818 9477 c-105 -30 -163 -108 -156 -211 7 -106 18 -115 330 -259
89 -41 112 -69 112 -136 0 -56 -13 -82 -61 -118 -33 -26 -44 -28 -122 -28 -93
0 -139 14 -218 67 l-41 28 -27 -32 -26 -31 28 -23 c86 -70 210 -110 311 -101
156 15 251 105 252 239 0 127 -33 160 -268 262 -149 66 -172 86 -172 151 0 55
28 91 83 106 51 14 155 6 196 -16 41 -20 44 -20 65 17 19 30 19 31 0 45 -53
39 -211 61 -286 40z"/>
<path d="M10215 9467 c-90 -30 -161 -88 -208 -169 -75 -127 -88 -335 -30 -460
17 -36 47 -81 67 -101 79 -80 206 -115 341 -96 71 10 193 59 219 88 13 14 12
19 -9 45 l-23 28 -44 -25 c-100 -60 -259 -72 -345 -28 -57 29 -109 91 -127
152 -9 29 -16 58 -16 65 0 9 45 13 168 16 191 5 252 21 325 87 51 46 67 85 67
161 0 100 -49 172 -148 217 -64 30 -178 39 -237 20z m205 -99 c24 -13 52 -35
63 -49 28 -38 33 -108 12 -153 -38 -79 -122 -106 -327 -106 l-138 0 6 43 c10
64 42 143 78 189 69 92 208 126 306 76z"/>
<path d="M13557 9469 c-61 -14 -110 -44 -160 -98 -117 -125 -158 -350 -96
-517 30 -81 112 -162 194 -193 83 -32 214 -32 305 -1 64 21 150 68 150 82 0 4
-10 19 -23 33 l-22 26 -45 -25 c-25 -14 -72 -32 -105 -40 -194 -51 -345 33
-378 211 l-6 31 167 4 c126 3 179 9 216 22 124 45 181 117 181 227 0 56 -5 73
-30 114 -65 105 -210 157 -348 124z m191 -99 c62 -28 85 -61 90 -130 5 -71
-22 -115 -93 -150 -46 -22 -64 -25 -212 -28 l-163 -4 0 33 c0 99 89 241 175
280 55 25 144 25 203 -1z"/>
<path d="M12382 9096 l3 -375 30 -31 c53 -56 149 -62 203 -14 l27 24 -34 29
c-32 28 -35 29 -57 15 -30 -20 -62 -10 -75 23 -5 13 -9 175 -9 364 l0 339 -45
0 -46 0 3 -374z"/>
<path d="M4230 8804 c-333 -40 -577 -139 -815 -330 -126 -101 -251 -236 -239
-256 4 -6 2 -8 -3 -5 -12 8 -47 -35 -94 -114 -45 -76 -90 -158 -90 -164 0 -2
-9 -26 -20 -52 -55 -126 -92 -278 -109 -445 -23 -226 -31 -280 -56 -365 -13
-48 -43 -126 -66 -173 -23 -47 -40 -91 -39 -99 1 -7 -2 -10 -7 -7 -10 6 -49
-72 -44 -87 1 -5 -2 -6 -7 -3 -5 4 -12 -2 -15 -11 -3 -10 -26 -49 -51 -87 -57
-89 -62 -115 -36 -169 31 -63 66 -77 201 -77 l109 0 3 -402 c3 -392 4 -404 25
-443 29 -54 65 -91 116 -118 39 -21 57 -22 287 -27 l245 -5 3 -202 2 -201 36
-31 c19 -17 44 -31 55 -31 11 0 79 21 152 46 73 25 197 67 277 94 80 26 244
82 365 123 121 41 393 134 604 206 211 71 394 137 408 146 13 9 33 30 43 48
19 30 20 53 20 394 l0 363 69 91 c371 489 397 1172 64 1692 -232 363 -598 610
-1013 683 -85 15 -315 26 -380 18z m466 -379 c42 -14 81 -22 88 -18 6 3 8 3 4
-2 -4 -4 7 -15 25 -24 45 -23 56 -70 33 -148 -32 -104 -32 -105 16 -133 24
-13 47 -23 53 -21 5 1 7 -1 3 -4 -11 -11 40 -48 53 -39 7 4 9 3 6 -2 -3 -6 26
-41 65 -79 39 -39 67 -63 63 -55 -6 12 -5 12 4 4 10 -9 27 -4 71 21 69 39 117
46 153 22 35 -23 117 -182 117 -227 -1 -47 -22 -70 -108 -116 -71 -38 -73 -40
-67 -69 18 -88 25 -150 25 -242 l0 -101 85 -28 c96 -31 115 -46 122 -101 4
-39 -40 -180 -72 -230 -24 -36 -73 -39 -165 -8 -45 15 -82 25 -84 24 -1 -2
-21 -34 -44 -70 -23 -36 -76 -99 -117 -139 -41 -39 -75 -76 -75 -82 0 -5 16
-38 35 -72 63 -112 42 -167 -86 -229 -42 -20 -90 -39 -105 -42 -49 -9 -89 25
-131 110 -32 64 -41 75 -58 70 -58 -16 -229 -36 -289 -33 l-70 3 -22 -87 c-35
-141 -67 -155 -229 -100 -103 35 -105 36 -121 77 -15 40 -15 46 10 126 l26 84
-23 17 c-12 10 -25 18 -29 18 -15 0 -125 90 -182 149 l-60 60 -72 -39 c-100
-55 -168 -52 -194 9 -7 17 -17 28 -23 24 -5 -3 -7 -1 -4 4 4 6 -7 36 -23 67
-31 57 -38 112 -20 146 6 11 41 36 78 57 93 52 91 49 75 108 -8 27 -16 111
-18 185 l-4 135 -55 16 c-30 9 -57 15 -59 12 -3 -2 -23 13 -46 35 -52 49 -53
80 -8 207 27 75 38 92 65 108 33 20 34 20 110 -1 42 -11 84 -23 93 -27 12 -4
26 11 54 60 22 36 75 103 120 148 l81 82 -33 65 c-41 82 -44 140 -9 175 13 13
61 42 107 65 124 63 165 50 222 -68 16 -34 33 -65 37 -67 4 -2 38 2 76 10 38
8 123 15 189 17 l119 3 24 75 c24 77 43 106 77 121 30 12 38 11 121 -16z"/>
<path d="M4238 7908 l-47 -10 37 -74 36 -74 89 0 c62 0 105 -6 148 -20 33 -11
65 -17 71 -14 6 4 8 3 5 -3 -4 -6 14 -23 40 -39 61 -38 139 -135 164 -205 l21
-56 60 -7 c108 -11 118 -9 118 19 0 14 -5 25 -11 25 -5 0 -7 5 -4 10 8 14 -65
171 -76 164 -5 -3 -6 1 -3 9 5 14 -95 124 -156 171 -42 33 -151 82 -221 100
-71 17 -196 19 -271 4z"/>
<path d="M3904 7724 c-187 -213 -225 -471 -104 -712 36 -71 102 -162 118 -162
4 0 28 33 55 73 l47 73 -44 77 c-77 136 -87 284 -27 412 16 36 28 65 27 65 -2
0 14 19 35 42 l38 42 -38 70 c-21 39 -43 72 -48 73 -5 2 -31 -22 -59 -53z"/>
<path d="M4314 7502 c4 -8 2 -10 -8 -6 -37 14 -124 -64 -146 -132 -22 -66 12
-203 48 -189 7 3 10 0 7 -6 -16 -25 78 -69 149 -69 74 0 152 54 182 125 14 35
19 126 7 139 -4 3 -8 13 -9 21 -4 28 -49 74 -93 96 -49 25 -149 40 -137 21z"/>
<path d="M4789 7156 c-5 -6 -9 -14 -9 -18 0 -17 -68 -114 -106 -151 -42 -42
-146 -107 -170 -107 -8 0 -13 -4 -10 -9 3 -4 -57 -8 -132 -7 l-138 1 -47 -75
c-25 -41 -42 -78 -38 -83 4 -4 34 -14 67 -24 79 -22 230 -22 314 0 77 21 189
73 197 93 3 8 9 12 13 9 11 -7 122 105 157 157 38 57 93 180 93 208 0 12 -179
17 -191 6z"/>
<path d="M6528 8296 c-69 -16 -82 -33 -73 -95 5 -35 11 -49 18 -44 8 4 8 2 0
-9 -7 -8 -10 -18 -6 -22 4 -4 0 -4 -8 -1 -17 6 -116 -65 -126 -91 -7 -19 -20
-18 -54 7 -16 11 -29 17 -29 12 0 -4 -4 -2 -9 6 -17 26 -55 4 -83 -49 -38 -69
-36 -83 18 -117 41 -25 45 -31 40 -58 -3 -16 -9 -62 -12 -102 l-7 -72 -38 -6
c-22 -4 -49 -15 -61 -24 -21 -17 -21 -20 -8 -80 14 -65 45 -102 72 -85 7 4 29
10 50 11 34 4 38 1 63 -42 15 -25 32 -42 37 -38 6 3 8 2 5 -4 -4 -5 5 -20 18
-31 31 -27 31 -30 1 -83 -18 -31 -22 -48 -15 -60 13 -26 114 -80 133 -73 9 4
28 26 43 51 23 39 29 44 52 38 14 -3 58 -8 98 -12 71 -5 72 -6 78 -37 10 -52
26 -85 44 -90 25 -8 124 21 139 41 7 10 10 29 7 42 -19 76 -19 76 27 106 23
15 58 43 76 62 34 33 41 33 73 6 20 -16 54 -24 75 -16 8 3 28 31 44 62 33 66
29 79 -31 113 -37 21 -40 25 -34 53 4 16 10 61 14 100 l6 69 41 9 c23 4 50 17
60 28 16 18 17 26 6 76 -16 76 -26 86 -82 80 -25 -3 -52 -8 -61 -12 -10 -4
-19 3 -28 21 -6 15 -32 51 -57 80 l-46 54 27 46 27 46 -20 27 c-11 14 -27 25
-37 25 -9 -1 -14 0 -11 4 8 7 -42 32 -64 32 -11 0 -30 -19 -47 -45 -22 -36
-32 -45 -48 -40 -11 3 -54 10 -95 16 -41 6 -77 13 -79 15 -3 2 -12 25 -20 51
-19 55 -38 63 -103 49z m245 -379 c125 -53 181 -199 123 -323 -85 -182 -354
-174 -433 13 -32 78 -8 196 53 257 61 61 179 85 257 53z"/>
<path d="M10850 8119 c-100 -20 -169 -107 -190 -239 -6 -39 -10 -330 -10 -728
l0 -663 48 3 47 3 3 373 2 372 121 0 120 0 -3 43 -3 42 -117 3 -118 3 0 133 0
133 93 -1 c85 -1 97 2 160 32 55 27 75 44 102 85 61 92 64 240 8 322 -49 70
-159 106 -263 84z m136 -95 c90 -43 98 -205 15 -284 -46 -44 -97 -60 -187 -60
l-69 0 6 108 c4 87 10 118 30 158 42 85 123 117 205 78z"/>
<path d="M8303 8009 c-30 -15 -48 -33 -62 -63 -32 -66 -29 -82 19 -84 37 -3
42 0 51 28 12 34 35 50 73 50 l26 0 0 -515 0 -515 45 0 45 0 0 515 0 515 143
0 c163 0 203 -9 254 -53 54 -47 73 -97 73 -192 0 -96 -12 -144 -47 -185 -47
-57 -95 -74 -220 -78 l-113 -4 0 -45 0 -45 118 3 c109 4 122 6 184 37 72 35
114 77 150 152 19 38 23 62 23 155 0 105 -2 114 -33 177 -20 40 -49 81 -74
103 -68 58 -110 65 -377 65 -219 0 -239 -2 -278 -21z"/>
<path d="M10315 7741 c-53 -14 -93 -40 -131 -86 l-38 -44 -16 37 c-10 20 -30
50 -45 65 l-28 28 -33 -32 -33 -32 19 -25 c44 -55 50 -108 50 -429 l0 -303 45
0 45 0 1 278 c1 152 1 282 0 289 -2 15 76 110 112 137 23 17 46 22 123 24 l94
4 0 38 c0 22 -4 41 -9 44 -17 11 -125 15 -156 7z"/>
<path d="M11495 7737 c-161 -42 -267 -165 -296 -344 -36 -220 86 -426 283
-479 281 -74 527 142 505 446 -12 174 -112 314 -262 365 -67 22 -169 28 -230
12z m192 -92 c66 -20 135 -81 169 -152 22 -45 29 -74 32 -143 8 -163 -46 -273
-163 -331 -60 -29 -70 -31 -148 -27 -68 3 -93 9 -130 31 -109 64 -164 182
-154 330 15 223 190 353 394 292z"/>
<path d="M12445 7741 c-52 -13 -92 -39 -129 -82 -20 -24 -37 -41 -39 -38 -2 2
-16 25 -30 51 -39 68 -55 74 -94 36 l-32 -31 24 -31 c40 -54 45 -95 45 -418
l0 -308 50 0 50 0 0 293 c0 318 -2 303 59 370 48 52 94 69 182 65 l79 -3 0 42
c0 23 -4 44 -9 47 -17 11 -125 15 -156 7z"/>
<path d="M13055 7736 c-55 -13 -138 -65 -155 -96 -15 -27 -26 -25 -39 8 -6 15
-25 42 -42 60 l-31 34 -34 -33 -33 -32 24 -31 c39 -51 44 -104 45 -423 l0
-303 50 0 50 0 0 297 -1 296 29 41 c61 83 197 128 272 89 21 -11 45 -36 60
-63 25 -45 25 -46 28 -352 l4 -308 44 0 44 0 0 288 c0 318 -2 309 69 380 46
45 85 63 150 69 65 5 112 -14 145 -60 20 -27 21 -45 26 -312 5 -267 6 -285 26
-312 46 -63 143 -82 204 -40 19 12 35 27 37 32 1 6 -13 21 -32 34 -27 18 -39
21 -47 13 -18 -18 -53 -14 -71 6 -13 15 -16 57 -19 287 -3 254 -4 272 -25 310
-46 86 -116 126 -222 128 -87 1 -155 -29 -216 -94 l-45 -48 -14 27 c-47 89
-168 136 -281 108z"/>
<path d="M15382 7735 c-70 -19 -87 -29 -142 -81 l-46 -43 -17 37 c-9 21 -30
51 -47 67 l-30 29 -31 -30 -31 -31 26 -37 c34 -50 36 -76 39 -421 l2 -300 48
-3 47 -3 0 289 0 290 46 51 c26 28 67 64 93 79 39 23 57 27 123 27 83 0 110
-12 152 -69 20 -26 21 -44 26 -305 4 -245 7 -280 23 -304 44 -67 143 -88 207
-44 19 12 35 27 37 32 1 6 -13 21 -32 34 -27 18 -39 21 -47 13 -14 -14 -47
-15 -68 -2 -13 8 -16 55 -20 287 -5 260 -6 281 -27 318 -27 51 -68 90 -116
110 -56 23 -152 28 -215 10z"/>
<path d="M16233 7732 c-146 -52 -227 -163 -255 -349 -13 -89 0 -209 31 -278
29 -66 93 -128 164 -161 58 -27 70 -29 187 -29 131 1 184 14 267 65 l33 19
-21 35 -20 35 -61 -29 c-83 -39 -182 -55 -261 -41 -160 28 -235 140 -224 335
11 208 112 326 277 326 108 -1 181 -48 196 -126 6 -33 8 -34 50 -34 49 0 52 6
32 72 -17 56 -78 121 -140 148 -73 32 -185 37 -255 12z"/>
<path d="M9422 7723 c-51 -18 -144 -100 -176 -157 -60 -103 -86 -286 -56 -396
27 -102 90 -185 174 -229 122 -64 322 -48 452 37 l43 28 -25 32 -25 32 -38
-24 c-57 -36 -136 -56 -220 -56 -127 1 -213 54 -251 157 -35 94 -41 89 133 96
218 8 310 40 375 132 20 28 27 52 30 101 10 158 -110 265 -296 263 -42 0 -96
-7 -120 -16z m204 -78 c112 -33 155 -151 88 -242 -42 -56 -109 -73 -289 -73
-175 0 -166 -6 -141 85 39 147 140 242 262 244 17 1 53 -6 80 -14z"/>
<path d="M14359 7724 c-224 -69 -327 -344 -228 -609 27 -72 96 -147 167 -182
49 -24 69 -28 142 -28 100 0 155 21 211 79 l36 38 19 -38 c29 -57 65 -79 132
-79 44 0 65 5 90 24 32 23 33 24 15 43 -27 30 -53 42 -66 29 -16 -16 -53 -13
-71 5 -14 13 -16 61 -16 368 l0 353 -112 6 c-168 10 -268 7 -319 -9z m298 -74
l33 0 0 -242 c0 -277 -5 -296 -79 -359 -48 -42 -98 -59 -172 -59 -100 1 -166
48 -216 155 -26 55 -28 70 -28 176 0 113 1 118 35 185 59 116 145 158 304 149
49 -3 104 -5 123 -5z"/>
<path d="M17042 7723 c-59 -21 -152 -109 -184 -175 -48 -97 -61 -160 -56 -277
3 -89 8 -116 32 -167 89 -197 334 -261 563 -148 40 20 75 40 78 43 2 4 -7 20
-19 36 l-24 29 -53 -26 c-77 -37 -124 -48 -209 -48 -130 0 -222 63 -255 174
-24 79 -28 76 98 76 238 0 370 47 424 150 48 90 23 216 -55 280 -80 66 -235
90 -340 53z m205 -78 c90 -27 137 -107 114 -193 -12 -42 -38 -70 -91 -98 -29
-15 -64 -19 -209 -22 l-173 -4 7 43 c15 91 45 152 104 210 78 77 146 94 248
64z"/>
<path d="M9100 5780 l0 -590 50 0 50 0 0 292 0 292 68 67 c74 72 111 89 192
89 61 0 129 -35 155 -80 18 -32 20 -57 25 -312 5 -261 6 -278 26 -305 45 -60
142 -77 202 -34 40 28 40 40 0 68 -28 20 -33 20 -54 6 -30 -19 -62 -9 -75 24
-5 13 -9 137 -9 275 0 277 -5 306 -57 367 -45 54 -107 76 -208 75 -96 0 -151
-21 -219 -84 l-46 -43 0 242 0 241 -50 0 -50 0 0 -590z"/>
<path d="M11670 5775 l0 -595 45 0 45 0 2 163 3 162 131 3 131 3 85 -148 c96
-168 122 -193 198 -193 44 0 101 28 100 48 -1 17 -57 46 -85 44 -39 -3 -44 3
-128 144 -65 109 -76 134 -58 134 21 0 100 84 116 122 26 63 24 162 -4 217
-46 90 -121 134 -226 134 -100 0 -198 -49 -235 -117 -7 -14 -17 -26 -22 -26
-4 0 -8 113 -8 250 l0 250 -45 0 -45 0 0 -595z m448 123 c44 -27 62 -66 62
-134 0 -53 -2 -59 -43 -99 -54 -55 -92 -65 -246 -65 l-124 0 6 53 c7 69 55
173 99 215 66 62 172 75 246 30z"/>
<path d="M8530 6007 c-203 -45 -327 -264 -290 -516 13 -94 37 -147 91 -206 84
-91 218 -130 366 -107 71 11 223 72 223 90 0 4 -10 20 -23 36 l-23 28 -42 -21
c-58 -30 -147 -51 -212 -51 -125 0 -217 54 -261 153 -20 45 -24 68 -23 162 0
140 23 205 98 281 60 59 123 81 208 71 89 -11 168 -77 168 -141 0 -12 10 -16
45 -16 50 0 53 6 34 71 -18 57 -63 105 -132 138 -73 35 -151 44 -227 28z"/>
<path d="M11101 6009 c-180 -35 -300 -209 -301 -435 0 -190 78 -320 225 -376
85 -32 243 -31 329 2 75 29 126 59 126 73 0 7 -8 22 -18 35 l-18 23 -54 -24
c-131 -58 -266 -62 -358 -12 -99 54 -137 142 -130 303 5 126 31 195 96 260
114 114 333 85 373 -49 12 -38 14 -39 56 -39 23 0 43 4 43 8 0 5 -7 31 -15 58
-26 88 -107 152 -220 173 -66 12 -72 12 -134 0z"/>
<path d="M10255 6001 c-181 -47 -293 -234 -283 -472 3 -87 7 -103 41 -172 42
-86 86 -127 175 -163 114 -47 301 -27 415 46 l48 30 -23 30 c-12 16 -23 30
-25 30 -1 0 -28 -13 -60 -29 -199 -100 -407 -41 -457 130 -9 29 -16 58 -16 65
0 8 46 13 168 16 189 5 246 20 319 83 54 46 73 89 73 165 0 101 -48 172 -148
217 -56 26 -172 39 -227 24z m195 -103 c83 -43 109 -117 72 -202 -18 -40 -29
-50 -79 -73 -54 -25 -70 -27 -220 -31 -112 -3 -163 -1 -163 6 0 37 27 126 53
176 34 63 86 113 138 132 58 21 149 17 199 -8z"/>
</g>
</svg>
