<?xml version="1.0" standalone="no"?>
<!DOCTYPE svg PUBLIC "-//W3C//DTD SVG 20010904//EN"
 "https://www.w3.org/TR/2001/REC-SVG-20010904/DTD/svg10.dtd">
<svg version="1.0" xmlns="https://www.w3.org/2000/svg"
 width="865.000000pt" height="865.000000pt" viewBox="0 0 865.000000 865.000000"
 preserveAspectRatio="xMidYMid meet">

<g transform="translate(0.000000,865.000000) scale(0.100000,-0.100000)"
fill="#000000" stroke="none">
<path d="M5384 7079 c-15 -17 -19 -36 -19 -95 l0 -73 -30 -7 c-43 -9 -161 -60
-195 -84 l-28 -20 -52 50 c-69 66 -94 66 -167 4 -62 -53 -87 -95 -78 -131 3
-14 26 -46 50 -72 l45 -48 -31 -57 c-17 -31 -28 -64 -25 -72 3 -8 1 -12 -4 -9
-5 3 -17 -21 -26 -55 l-17 -60 -64 0 c-62 0 -100 -11 -115 -34 -4 -6 -8 -54
-8 -107 0 -123 9 -134 115 -134 l72 0 21 -70 c12 -38 37 -96 56 -128 l36 -59
-50 -47 c-42 -40 -50 -53 -50 -84 0 -30 8 -45 48 -85 88 -90 121 -99 173 -50
13 13 36 34 51 46 l26 24 44 -25 c49 -29 104 -51 166 -67 l42 -11 0 -72 c0
-107 12 -117 139 -117 126 0 135 8 134 114 l0 74 71 21 c78 23 172 72 169 87
-1 5 7 10 17 10 10 0 16 -4 13 -9 -2 -4 15 -28 40 -52 65 -66 96 -63 172 15
91 91 93 115 18 189 l-44 43 41 82 c22 45 40 86 40 91 0 6 5 27 11 48 l10 37
73 0 c106 0 116 12 116 135 0 82 -3 98 -20 115 -22 22 -19 21 -105 22 l-61 0
-23 73 c-12 41 -37 99 -56 129 l-33 55 49 50 c72 74 69 98 -20 184 -38 37 -77
67 -86 67 -26 0 -57 -19 -96 -60 -34 -34 -78 -62 -64 -40 7 11 -100 63 -177
85 l-58 16 0 73 c0 63 -3 75 -23 94 -21 19 -35 22 -119 22 -84 0 -97 -2 -114
-21z m673 -205 c-3 -3 -12 -4 -19 -1 -8 3 -5 6 6 6 11 1 17 -2 13 -5z m-87
-34 c0 -5 -5 -10 -11 -10 -5 0 -7 5 -4 10 3 6 8 10 11 10 2 0 4 -4 4 -10z
m136 -20 c0 -12 -4 -16 -9 -11 -5 5 -6 14 -3 20 10 15 12 14 12 -9z m-156 -27
c0 -3 -7 -3 -15 1 -8 3 -15 0 -15 -6 0 -6 -3 -9 -6 -5 -11 10 6 26 21 20 8 -3
15 -7 15 -10z m164 -114 c-3 -5 -10 -7 -15 -3 -5 3 -7 10 -3 15 3 5 10 7 15 3
5 -3 7 -10 3 -15z m-1164 -74 c0 -1 -6 -7 -13 -13 -10 -8 -13 -6 -13 7 0 11 6
17 13 14 7 -3 13 -6 13 -8z m0 -28 c0 -2 -10 -12 -22 -23 l-23 -19 19 23 c18
21 26 27 26 19z m621 -31 c107 -25 185 -87 236 -186 25 -48 28 -66 28 -145 0
-74 -5 -99 -24 -137 -36 -75 -95 -134 -167 -169 -55 -27 -77 -32 -142 -33 -92
-1 -164 27 -236 94 -192 177 -107 506 148 575 65 17 88 18 157 1z m170 -53
c13 -16 12 -17 -3 -4 -10 7 -18 15 -18 17 0 8 8 3 21 -13z m366 -25 c-3 -8 -6
-5 -6 6 -1 11 2 17 5 13 3 -3 4 -12 1 -19z m-296 -28 c9 13 10 13 6 0 -2 -8
-10 -15 -17 -15 -7 0 -15 7 -17 15 -4 13 -3 13 6 0 10 -13 12 -13 22 0z
m-1104 -106 c-3 -3 -12 -4 -19 -1 -8 3 -5 6 6 6 11 1 17 -2 13 -5z m1653 -18
c0 -3 -4 -8 -10 -11 -5 -3 -10 -1 -10 4 0 6 5 11 10 11 6 0 10 -2 10 -4z
m-1633 -192 c-3 -3 -12 -4 -19 -1 -8 3 -5 6 6 6 11 1 17 -2 13 -5z m1623 -15
c0 -5 -4 -9 -8 -9 -5 0 -9 7 -9 15 0 8 4 12 9 9 4 -3 8 -9 8 -15z m-1193 -71
c-3 -8 -6 -5 -6 6 -1 11 2 17 5 13 3 -3 4 -12 1 -19z m656 -42 c6 -15 -17 -16
-30 -1 -4 4 -2 5 5 1 6 -4 12 -2 12 3 0 15 7 14 13 -3z m327 -36 c6 -11 8 -20
6 -20 -3 0 -10 9 -16 20 -6 11 -8 20 -6 20 3 0 10 -9 16 -20z m-29 -37 c-12
-20 -14 -14 -5 12 4 9 9 14 11 11 3 -2 0 -13 -6 -23z m-1195 -43 c0 -12 -4
-16 -9 -11 -5 5 -6 14 -3 20 10 15 12 14 12 -9z m739 -10 c-3 -5 -12 -10 -18
-10 -7 0 -6 4 3 10 19 12 23 12 15 0z m-709 -27 c-4 -9 -3 -19 3 -22 5 -3 3
-11 -4 -18 -11 -10 -13 -8 -11 15 5 41 6 42 12 42 3 0 3 -8 0 -17z m1168 -94
c-3 -5 -10 -7 -15 -3 -5 3 -7 10 -3 15 3 5 10 7 15 3 5 -3 7 -10 3 -15z
m-1234 -105 c0 -8 -19 -13 -24 -6 -3 5 1 9 9 9 8 0 15 -2 15 -3z m323 -14 c-7
-8 -52 -7 -47 1 2 4 15 6 28 5 13 0 22 -3 19 -6z m634 4 c-3 -3 -12 -4 -19 -1
-8 3 -5 6 6 6 11 1 17 -2 13 -5z m-747 -8 c0 -2 -6 -9 -14 -15 -11 -9 -16 -9
-22 0 -4 7 -3 9 4 5 6 -3 13 -2 17 4 6 10 15 14 15 6z m907 -40 c-3 -7 0 -20
6 -27 10 -11 9 -11 -5 0 -15 11 -15 41 -1 41 3 0 3 -6 0 -14z m-1019 -24 c7 7
12 9 12 6 0 -3 -6 -11 -13 -17 -11 -8 -18 -6 -33 12 -19 22 -19 22 2 5 16 -14
23 -15 32 -6z m652 8 c0 -5 -5 -10 -11 -10 -5 0 -7 5 -4 10 3 6 8 10 11 10 2
0 4 -4 4 -10z m-199 -203 c-10 -9 -11 -8 -5 6 3 10 9 15 12 12 3 -3 0 -11 -7
-18z"/>
<path d="M3555 5804 c-118 -17 -214 -37 -210 -44 3 -4 -3 -6 -14 -3 -27 7
-160 -41 -296 -107 -377 -183 -681 -555 -785 -960 -24 -96 -36 -174 -50 -330
-13 -147 -40 -278 -76 -373 -26 -67 -145 -292 -218 -411 -40 -66 -43 -89 -22
-141 26 -61 64 -75 199 -75 l117 0 0 -392 c1 -423 2 -435 54 -503 15 -19 48
-47 74 -62 l47 -28 250 -5 250 -5 5 -208 5 -209 28 -24 c48 -41 13 -50 527
126 212 72 423 144 470 160 47 16 245 83 440 150 195 67 369 126 385 131 34
11 63 33 88 69 15 22 17 61 17 391 l0 367 44 54 c106 130 184 275 245 453 129
381 102 781 -76 1139 -210 423 -581 712 -1048 816 -87 20 -375 35 -450 24z
m320 -39 c22 -8 33 -14 24 -15 -9 0 -32 7 -50 15 -44 18 -26 19 26 0z m656
-242 c-11 -5 -11 -7 0 -14 8 -5 9 -9 3 -9 -5 0 -18 6 -27 13 -15 11 -14 12 10
13 16 1 22 -1 14 -3z m124 -82 c3 -5 2 -12 -3 -15 -5 -3 -9 1 -9 9 0 17 3 19
12 6z m-583 -27 c135 -45 151 -71 117 -192 -12 -42 -23 -82 -26 -89 -3 -7 0
-13 6 -13 6 0 29 -11 50 -24 21 -14 42 -22 47 -18 4 4 4 2 1 -4 -8 -14 39 -48
54 -39 5 4 8 3 7 -2 -2 -5 26 -41 62 -80 l64 -72 72 40 c124 67 158 54 233
-90 66 -127 52 -167 -79 -231 -53 -26 -69 -38 -64 -50 17 -43 35 -186 32 -269
l-2 -94 95 -31 c92 -30 94 -32 108 -71 13 -39 12 -46 -19 -139 -48 -146 -78
-163 -203 -121 -41 14 -79 25 -84 25 -5 0 -24 -26 -43 -57 -19 -31 -73 -96
-121 -145 l-87 -88 40 -76 c32 -61 39 -83 35 -111 -8 -47 -17 -56 -112 -108
-92 -50 -148 -58 -183 -27 -11 9 -37 49 -57 87 -21 39 -39 72 -41 73 -1 2 -35
-4 -76 -13 -45 -10 -117 -16 -189 -16 l-116 -1 -19 -81 c-22 -98 -52 -137
-106 -137 -47 0 -191 50 -222 77 -33 29 -34 72 -4 172 16 56 19 76 10 79 -36
12 -146 96 -211 161 l-73 74 -78 -42 c-85 -45 -108 -49 -150 -24 -32 19 -108
150 -117 200 -8 46 12 87 55 110 20 12 55 31 77 43 22 12 41 23 43 25 1 1 -5
33 -14 71 -11 44 -18 113 -18 190 l-1 121 -73 22 c-132 39 -150 78 -103 223
47 143 78 160 217 117 65 -20 69 -20 79 -4 31 54 129 176 173 217 28 26 53 52
57 57 3 6 -10 42 -30 80 -58 117 -44 155 79 219 97 50 119 55 160 38 29 -12
42 -29 75 -94 l40 -79 53 15 c30 8 114 17 193 19 l140 5 22 72 c31 100 53 126
106 126 23 0 77 -12 119 -26z m162 -44 c-6 -5 -24 21 -24 34 0 6 6 1 14 -10 8
-10 12 -21 10 -24z m-33 13 c13 -16 12 -17 -3 -4 -10 7 -18 15 -18 17 0 8 8 3
21 -13z m-1640 -166 c-10 -9 -11 -8 -5 6 3 10 9 15 12 12 3 -3 0 -11 -7 -18z
m9 -23 c0 -8 -19 -13 -24 -6 -3 5 1 9 9 9 8 0 15 -2 15 -3z m2343 -69 c-3 -9
-8 -14 -10 -11 -3 3 -2 9 2 15 9 16 15 13 8 -4z m-2440 -35 c-7 -27 -13 -25
-11 4 1 14 5 23 9 20 4 -2 5 -13 2 -24z m1922 -80 c3 -6 -1 -7 -9 -4 -18 7
-21 14 -7 14 6 0 13 -4 16 -10z m-2002 -35 c-3 -9 -8 -14 -10 -11 -3 3 -2 9 2
15 9 16 15 13 8 -4z m2630 0 c-3 -9 -8 -14 -10 -11 -3 3 -2 9 2 15 9 16 15 13
8 -4z m-2080 -80 c-3 -9 -8 -14 -10 -11 -3 3 -2 9 2 15 9 16 15 13 8 -4z
m1852 -265 c3 -6 -1 -7 -9 -4 -18 7 -21 14 -7 14 6 0 13 -4 16 -10z m-69 -57
c-2 -9 -9 -19 -17 -21 -11 -3 -11 -1 1 7 13 10 13 11 0 11 -13 0 -13 1 0 10
19 12 19 13 16 -7z m-2189 -55 c-3 -8 -6 -5 -6 6 -1 11 2 17 5 13 3 -3 4 -12
1 -19z m2621 -73 c-3 -3 -9 2 -12 12 -6 14 -5 15 5 6 7 -7 10 -15 7 -18z
m-2401 -347 c-3 -8 -6 -5 -6 6 -1 11 2 17 5 13 3 -3 4 -12 1 -19z m6 -57 c21
10 21 9 3 -5 -20 -16 -37 -13 -35 7 0 9 2 9 6 0 3 -10 10 -10 26 -2z m-125
-91 c-7 -10 -14 -17 -17 -15 -4 4 18 35 25 35 2 0 -1 -9 -8 -20z m1912 -165
c0 -5 -5 -3 -10 5 -5 8 -10 20 -10 25 0 6 5 3 10 -5 5 -8 10 -19 10 -25z m-36
-19 c-3 -9 -10 -16 -15 -16 -5 0 -4 9 3 20 14 22 21 20 12 -4z m498 -128 c-7
-7 -12 -8 -12 -2 0 6 3 14 7 17 3 4 9 5 12 2 2 -3 -1 -11 -7 -17z m-12 -29 c0
-6 -4 -7 -10 -4 -5 3 -10 11 -10 16 0 6 5 7 10 4 6 -3 10 -11 10 -16z m-2156
5 c21 -8 21 -24 0 -24 -9 0 -12 5 -8 12 5 8 2 9 -10 5 -10 -4 -15 -3 -11 3 7
12 8 12 29 4z m-861 -17 c3 -8 -1 -14 -8 -14 -7 0 -11 6 -8 14 3 7 6 13 8 13
2 0 5 -6 8 -13z m2857 -212 c-6 -8 -8 -20 -4 -27 5 -10 4 -10 -6 -1 -11 10
-11 15 0 28 7 8 15 15 17 15 3 0 0 -7 -7 -15z m-437 -35 c3 -11 1 -18 -4 -14
-5 3 -9 12 -9 20 0 20 7 17 13 -6z m-7 -31 c3 -6 1 -16 -6 -22 -10 -9 -11 -9
-5 2 4 8 2 17 -6 22 -9 6 -10 9 -2 9 6 0 15 -5 19 -11z m-38 -29 c-7 -10 -14
-17 -17 -15 -4 4 18 35 25 35 2 0 -1 -9 -8 -20z m-765 -95 c-3 -9 -8 -14 -10
-11 -3 3 -2 9 2 15 9 16 15 13 8 -4z m-1282 -752 c13 -16 12 -17 -3 -4 -10 7
-18 15 -18 17 0 8 8 3 21 -13z m2124 -31 c-3 -3 -11 0 -18 7 -9 10 -8 11 6 5
10 -3 15 -9 12 -12z m-180 -62 c-3 -5 -12 -10 -18 -10 -7 0 -6 4 3 10 19 12
23 12 15 0z"/>
<path d="M3573 4909 c-18 -5 -33 -12 -33 -15 0 -3 17 -37 37 -77 l37 -72 77 4
c139 6 252 -41 352 -148 34 -37 65 -65 69 -64 4 2 5 -3 3 -10 -3 -6 3 -34 14
-62 15 -40 25 -51 47 -56 30 -7 164 -11 164 -6 0 2 -7 28 -16 58 -23 78 -72
171 -86 163 -7 -4 -8 -3 -4 4 9 14 -23 64 -35 56 -5 -3 -8 -2 -7 3 9 26 -115
132 -203 172 -35 17 -91 37 -124 46 -66 17 -239 19 -292 4z m57 -13 c0 -2 -7
-7 -16 -10 -8 -3 -12 -2 -9 4 6 10 25 14 25 6z m235 -14 c-3 -3 -11 0 -18 7
-9 10 -8 11 6 5 10 -3 15 -9 12 -12z m-48 2 c-3 -3 -12 -4 -19 -1 -8 3 -5 6 6
6 11 1 17 -2 13 -5z m208 -202 c-3 -3 -11 0 -18 7 -9 10 -8 11 6 5 10 -3 15
-9 12 -12z m53 -37 c-3 -3 -9 2 -12 12 -6 14 -5 15 5 6 7 -7 10 -15 7 -18z"/>
<path d="M3251 4723 c-127 -137 -178 -278 -168 -463 7 -147 50 -257 146 -373
l40 -48 50 75 c28 41 51 80 51 86 0 5 -13 29 -30 51 -72 101 -98 256 -62 375
22 70 63 145 103 185 l22 22 -38 71 c-21 39 -41 75 -45 79 -4 5 -35 -22 -69
-60z m27 -38 c-3 -3 -9 2 -12 12 -6 14 -5 15 5 6 7 -7 10 -15 7 -18z m-28 0
c0 -8 -4 -15 -10 -15 -5 0 -7 7 -4 15 4 8 8 15 10 15 2 0 4 -7 4 -15z m1 -48
c-10 -9 -11 -8 -5 6 3 10 9 15 12 12 3 -3 0 -11 -7 -18z m85 -30 c4 -3 -3 -4
-15 -2 -15 3 -21 0 -18 -8 3 -7 10 -11 16 -9 7 1 9 -3 6 -9 -5 -8 -12 -6 -22
4 -9 8 -13 20 -9 25 6 11 31 10 42 -1z m-154 -29 c-7 -7 -12 -8 -12 -2 0 6 3
14 7 17 3 4 9 5 12 2 2 -3 -1 -11 -7 -17z m-12 -538 c-6 -11 -13 -20 -16 -20
-2 0 0 9 6 20 6 11 13 20 16 20 2 0 0 -9 -6 -20z m161 -53 c-10 -9 -11 -8 -5
6 3 10 9 15 12 12 3 -3 0 -11 -7 -18z"/>
<path d="M3630 4497 c-84 -40 -130 -107 -130 -190 0 -121 85 -207 204 -207 67
0 93 9 139 49 48 43 69 91 68 161 0 111 -80 192 -195 197 -33 1 -72 -3 -86
-10z m241 -114 c-12 -20 -14 -14 -5 12 4 9 9 14 11 11 3 -2 0 -13 -6 -23z"/>
<path d="M4114 4115 c-54 -113 -171 -210 -291 -242 -52 -14 -187 -15 -231 -2
-13 4 -110 -133 -111 -156 -2 -29 172 -60 279 -51 161 13 286 71 400 186 57
57 86 96 118 160 23 47 45 100 48 118 l7 32 -59 0 c-33 0 -76 3 -96 6 -37 6
-37 6 -64 -51z m79 -185 c-3 -10 -11 -24 -19 -31 -10 -8 -10 -3 2 20 18 35 24
40 17 11z m-193 -24 c-7 -7 -13 -7 -20 0 -6 6 -3 10 10 10 13 0 16 -4 10 -10z
m126 -17 c3 -6 -1 -17 -10 -25 -9 -8 -11 -9 -6 -2 15 18 12 31 -6 24 -8 -3
-12 -2 -9 4 8 13 22 13 31 -1z m-528 -80 c-3 -8 -7 -3 -11 10 -4 17 -3 21 5
13 5 -5 8 -16 6 -23z m452 -25 c0 -2 -9 0 -20 6 -11 6 -20 13 -20 16 0 2 9 0
20 -6 11 -6 20 -13 20 -16z m-153 -60 c-3 -3 -12 -4 -19 -1 -8 3 -5 6 6 6 11
1 17 -2 13 -5z"/>
<path d="M5905 5305 c-5 -2 -29 -9 -52 -15 -57 -14 -68 -37 -50 -99 12 -43 12
-49 -2 -60 -14 -11 -14 -11 2 -7 9 3 17 0 17 -5 0 -7 -9 -9 -22 -5 -22 5 -81
-32 -118 -75 -13 -16 -17 -16 -57 8 -62 36 -82 29 -119 -41 -18 -33 -30 -66
-27 -73 3 -8 25 -27 50 -44 41 -29 44 -33 37 -62 -4 -18 -10 -61 -13 -97 l-6
-64 -42 -11 c-23 -5 -50 -18 -60 -27 -15 -16 -16 -24 -4 -80 18 -88 32 -95
131 -72 21 4 28 0 44 -28 10 -18 37 -52 60 -76 38 -39 40 -44 27 -65 -46 -72
-47 -74 -28 -95 26 -28 116 -75 133 -68 8 3 26 26 42 51 21 37 31 45 47 40 11
-4 54 -9 96 -12 l75 -5 13 -59 c14 -69 27 -76 106 -58 76 17 92 37 77 95 -16
61 -17 59 31 87 23 14 57 41 75 62 32 34 35 36 52 20 11 -10 24 -14 31 -9 8 4
10 3 5 -4 -9 -15 42 -28 62 -15 25 15 74 111 68 130 -3 10 -26 30 -51 43 -37
20 -45 29 -40 45 4 11 9 55 12 97 l6 77 54 16 c62 18 75 39 61 95 -25 98 -44
111 -115 86 l-43 -15 -16 31 c-9 17 -36 53 -61 79 l-44 47 25 41 c14 22 26 50
26 61 0 25 -41 52 -66 44 -15 -5 -16 -4 -4 5 12 8 8 13 -20 25 -43 18 -62 9
-92 -45 -18 -31 -27 -38 -43 -34 -11 4 -55 11 -98 17 l-77 12 -11 40 c-17 62
-44 85 -84 71z m-18 -41 c-3 -3 -12 -4 -19 -1 -8 3 -5 6 6 6 11 1 17 -2 13 -5z
m80 -76 c-3 -8 -6 -5 -6 6 -1 11 2 17 5 13 3 -3 4 -12 1 -19z m407 -14 c4 -10
2 -13 -6 -8 -8 5 -9 1 -4 -12 5 -14 4 -16 -4 -8 -6 6 -8 18 -4 27 8 21 10 21
18 1z m-849 -242 c-3 -3 0 -11 6 -19 17 -20 5 -16 -14 5 -15 16 -15 19 -2 19
8 0 13 -3 10 -5z m616 -29 c97 -50 147 -160 120 -263 -34 -132 -172 -209 -297
-166 -139 47 -202 190 -140 322 57 123 194 169 317 107z m327 -38 c-3 -3 -9 2
-12 12 -6 14 -5 15 5 6 7 -7 10 -15 7 -18z m-563 -393 c-3 -3 -11 0 -18 7 -9
10 -8 11 6 5 10 -3 15 -9 12 -12z m-238 -33 c-8 -13 -13 -15 -18 -7 -10 15 -4
25 15 25 11 0 12 -4 3 -18z m171 -244 c-3 -3 -9 2 -12 12 -6 14 -5 15 5 6 7
-7 10 -15 7 -18z m-22 -22 c-3 -4 -6 -1 -6 6 0 7 -4 9 -10 6 -6 -4 -7 1 -3 11
6 15 7 15 15 -1 6 -9 7 -19 4 -22z"/>
</g>
</svg>
