<svg xmlns="http://www.w3.org/2000/svg" version="1.1" xmlns:xlink="http://www.w3.org/1999/xlink" xmlns:svgjs="http://svgjs.dev/svgjs" width="2000" height="2000" viewBox="0 0 2000 2000"><g transform="matrix(1,0,0,1,0,0.0006120920573948752)"><svg viewBox="0 0 280 280" data-background-color="#f9f6ed" preserveAspectRatio="xMidYMid meet" height="2000" width="2000" xmlns="http://www.w3.org/2000/svg" xmlns:xlink="http://www.w3.org/1999/xlink"><g id="tight-bounds" transform="matrix(1,0,0,1,0,-0.00008569288803528252)"><svg viewBox="0 0 280 280" height="280" width="280"><g><svg viewBox="0 0 280 280" height="280" width="280"><g><svg viewBox="0 0 280 280" height="280" width="280"><g id="textblocktransform"><svg viewBox="0 0 280 280" height="280" width="280" id="textblock"><g><svg viewBox="0 0 280 280" height="280" width="280"><g transform="matrix(1,0,0,1,90.50252531694167,99.04724666948513)"><svg viewBox="0 0 98.99494936611666 81.90550666102975" height="81.90550666102975" width="98.99494936611666"><g id="icon-0"><svg xmlns="http://www.w3.org/2000/svg" version="1.1" data-icon="check" data-container-transform="translate(0 2)" viewBox="0.24900000000000144 2.25 31.501 26.063" x="0" y="0" height="81.90550666102975" width="98.99494936611666" class="icon-xg-0" data-fill-palette-color="accent" id="xg-0"><path d="M27.375 0.25l-2.063 2.188-14.375 15.25-4.313-4.313-2.125-2.125-4.25 4.25 2.125 2.125 6.5 6.5 2.188 2.188 2.125-2.25 16.5-17.5 2.063-2.188-4.375-4.125z" transform="translate(0 2)" fill="#ea5141" data-fill-palette-color="accent"></path></svg></g></svg></g><g id="text-0"><path d="M22.541 95.601l-12.705-8.403 0.599-1.715 14.892 10.119-0.656 1.88-14.393-1.19 11.971 8.125-0.65 1.861-17.954-1.352 0.65-1.861 15.05 1.311-12.543-8.49 0.51-1.461z" fill="#21272d" data-fill-palette-color="primary"></path><path d="M19.112 79.345c0.488-0.955 1.166-1.698 2.032-2.229 0.866-0.531 1.816-0.81 2.85-0.838 1.034-0.028 2.05 0.214 3.048 0.724v0c0.288 0.147 0.504 0.269 0.648 0.366v0l-4.471 8.746c1.121 0.496 2.234 0.617 3.337 0.362 1.107-0.261 1.947-0.952 2.52-2.072v0c0.463-0.906 0.68-1.746 0.65-2.519-0.039-0.769-0.268-1.493-0.687-2.17v0l1.442-0.804c0.536 0.9 0.818 1.875 0.846 2.924 0.031 1.043-0.24 2.125-0.813 3.246v0c-0.526 1.029-1.241 1.822-2.144 2.38-0.894 0.555-1.889 0.838-2.984 0.85-1.095 0.012-2.188-0.261-3.278-0.818v0c-1.09-0.557-1.953-1.28-2.588-2.169-0.629-0.885-0.985-1.851-1.067-2.898-0.077-1.044 0.143-2.071 0.659-3.081zM21.998 85.374l3.644-7.129c-1.184-0.42-2.203-0.473-3.058-0.161-0.852 0.306-1.538 0.968-2.057 1.984v0c-0.501 0.98-0.6 1.945-0.298 2.895 0.308 0.953 0.898 1.757 1.769 2.411z" fill="#21272d" data-fill-palette-color="primary"></path><path d="M27.6 65.189c0.634-0.95 1.425-1.646 2.374-2.088 0.954-0.438 1.968-0.601 3.042-0.487 1.076 0.123 2.123 0.524 3.141 1.204v0c1.03 0.687 1.807 1.512 2.331 2.473 0.524 0.962 0.762 1.968 0.714 3.02-0.043 1.055-0.381 2.057-1.015 3.007v0c-0.47 0.704-1.063 1.246-1.781 1.627-0.718 0.381-1.497 0.589-2.338 0.622v0l1.467 0.98-0.962 1.442-15.404-10.283 0.963-1.441 6.959 4.645c-0.303-0.798-0.414-1.604-0.333-2.418 0.081-0.815 0.361-1.582 0.842-2.303zM36.894 71.393c0.447-0.669 0.675-1.377 0.685-2.123 0.014-0.752-0.188-1.478-0.605-2.178-0.408-0.702-1.001-1.313-1.779-1.833v0c-0.767-0.512-1.55-0.819-2.349-0.923-0.795-0.109-1.538-0.013-2.226 0.288-0.685 0.295-1.251 0.778-1.698 1.447v0c-0.451 0.675-0.685 1.391-0.702 2.149-0.018 0.757 0.18 1.489 0.593 2.195 0.408 0.702 0.992 1.307 1.754 1.815v0c0.767 0.512 1.552 0.821 2.357 0.929 0.811 0.111 1.562 0.013 2.255-0.294 0.693-0.307 1.264-0.798 1.715-1.472z" fill="#21272d" data-fill-palette-color="primary"></path><path d="M46.357 61.654c-0.748 0.881-1.596 1.497-2.542 1.847-0.943 0.345-1.907 0.402-2.893 0.17v0l0.427-1.682c1.428 0.391 2.738-0.116 3.931-1.521v0c0.57-0.671 0.918-1.332 1.046-1.981 0.128-0.65-0.068-1.195-0.588-1.636v0c-0.53-0.45-1.074-0.605-1.634-0.467-0.565 0.134-1.265 0.613-2.1 1.438v0c-1.159 1.163-2.194 1.819-3.104 1.966-0.915 0.153-1.747-0.089-2.497-0.725v0c-0.844-0.717-1.241-1.577-1.192-2.582 0.05-1.004 0.526-2.039 1.431-3.104v0c1.531-1.804 3.286-2.425 5.264-1.864v0l-0.426 1.682c-0.701-0.216-1.355-0.216-1.962-0.001-0.603 0.21-1.184 0.646-1.745 1.306v0c-0.574 0.676-0.89 1.298-0.946 1.863-0.056 0.566 0.141 1.04 0.592 1.423v0c0.43 0.365 0.939 0.467 1.525 0.308 0.592-0.156 1.324-0.667 2.196-1.534v0c1.084-1.065 2.095-1.686 3.031-1.865 0.938-0.169 1.784 0.067 2.54 0.708v0c0.608 0.516 0.983 1.132 1.124 1.848 0.132 0.716 0.063 1.461-0.205 2.234-0.278 0.774-0.702 1.497-1.273 2.169z" fill="#21272d" data-fill-palette-color="primary"></path><path d="M53.795 52.996l-1.218 1.233-8.494-8.388 1.218-1.233zM43.041 43.593c-0.276 0.279-0.603 0.415-0.983 0.407-0.375-0.003-0.701-0.142-0.98-0.417v0c-0.269-0.266-0.405-0.584-0.407-0.953-0.002-0.37 0.134-0.694 0.409-0.973v0c0.266-0.269 0.586-0.407 0.961-0.414 0.379-0.012 0.708 0.12 0.987 0.395v0c0.269 0.266 0.403 0.591 0.4 0.975 0.007 0.384-0.122 0.711-0.387 0.98z" fill="#21272d" data-fill-palette-color="primary"></path><path d="M59.498 47.905l-1.312 1.132-6.77-7.84-1.546 1.335-1.031-1.195 1.546-1.335-2.583-2.991 1.312-1.133 2.583 2.991 2.085-1.8 1.031 1.195-2.085 1.8z" fill="#21272d" data-fill-palette-color="primary"></path><path d="M60.866 31.292c0.869-0.629 1.81-0.983 2.823-1.062 1.013-0.079 1.986 0.104 2.919 0.549 0.934 0.445 1.729 1.122 2.386 2.029v0c0.19 0.262 0.326 0.469 0.411 0.62v0l-7.957 5.76c0.774 0.951 1.71 1.564 2.809 1.839 1.104 0.27 2.166 0.037 3.186-0.702v0c0.825-0.597 1.399-1.246 1.723-1.948 0.315-0.703 0.439-1.452 0.375-2.245v0l1.65-0.061c0.069 1.045-0.123 2.042-0.575 2.989-0.447 0.943-1.18 1.784-2.199 2.522v0c-0.936 0.678-1.933 1.06-2.992 1.147-1.049 0.088-2.063-0.111-3.044-0.599-0.981-0.487-1.83-1.227-2.548-2.218v0c-0.718-0.992-1.158-2.028-1.32-3.108-0.158-1.074-0.036-2.097 0.365-3.067 0.406-0.965 1.068-1.779 1.988-2.445zM60.697 37.974l6.486-4.695c-0.864-0.912-1.747-1.423-2.651-1.533-0.898-0.114-1.809 0.163-2.734 0.833v0c-0.891 0.645-1.418 1.46-1.581 2.444-0.158 0.989 0.002 1.973 0.48 2.951z" fill="#21272d" data-fill-palette-color="primary"></path><path d="M86.467 30.406l-7.076-15.891 5.316-2.367c1.426-0.635 2.76-0.709 4.001-0.223 1.243 0.493 2.207 1.506 2.889 3.039v0c0.68 1.527 0.767 2.923 0.261 4.187-0.503 1.271-1.493 2.235-2.97 2.892v0l-3.384 1.507 2.707 6.08zM84.858 22.099l3.336-1.486c1.037-0.462 1.7-1.103 1.989-1.925 0.286-0.828 0.176-1.81-0.33-2.948v0c-0.504-1.131-1.16-1.87-1.97-2.217-0.81-0.347-1.733-0.29-2.769 0.172v0l-3.337 1.485z" fill="#21272d" data-fill-palette-color="primary"></path><path d="M100.242 11.887c1.024-0.32 2.029-0.357 3.015-0.11 0.985 0.247 1.85 0.729 2.593 1.448 0.744 0.719 1.283 1.613 1.618 2.683v0c0.097 0.309 0.161 0.548 0.192 0.718v0l-9.375 2.932c0.431 1.148 1.124 2.027 2.079 2.637 0.961 0.607 2.042 0.723 3.244 0.347v0c0.972-0.304 1.723-0.737 2.253-1.299 0.522-0.567 0.878-1.237 1.068-2.01v0l1.584 0.467c-0.267 1.013-0.765 1.897-1.495 2.651-0.723 0.752-1.685 1.316-2.887 1.692v0c-1.103 0.345-2.17 0.39-3.2 0.136-1.022-0.25-1.921-0.761-2.696-1.535-0.775-0.774-1.346-1.745-1.712-2.913v0c-0.366-1.169-0.453-2.291-0.263-3.366 0.192-1.069 0.632-2 1.321-2.792 0.691-0.786 1.578-1.348 2.661-1.686zM97.959 18.169l7.641-2.391c-0.529-1.139-1.205-1.904-2.026-2.295-0.815-0.394-1.767-0.42-2.857-0.08v0c-1.05 0.329-1.809 0.933-2.276 1.815-0.465 0.888-0.625 1.871-0.482 2.951z" fill="#21272d" data-fill-palette-color="primary"></path><path d="M116.05 7.943c0.404-0.084 0.8-0.104 1.19-0.058v0l0.322 1.545c-0.385-0.095-0.787-0.1-1.204-0.012v0c-0.714 0.149-1.335 0.489-1.864 1.02-0.537 0.526-0.912 1.205-1.125 2.037-0.219 0.839-0.221 1.774-0.006 2.804v0l1.166 5.596-1.697 0.354-2.435-11.687 1.697-0.353 0.488 2.343c0.272-0.956 0.7-1.748 1.287-2.376 0.593-0.629 1.32-1.034 2.181-1.213z" fill="#21272d" data-fill-palette-color="primary"></path><path d="M124.565 1.658c-0.593 0.078-1.054 0.347-1.382 0.806-0.322 0.452-0.441 0.998-0.357 1.639v0l0.422 3.212 2.731-0.359 0.205 1.565-2.731 0.359 1.349 10.271-1.719 0.225-1.348-10.27-1.525 0.2-0.205-1.565 1.524-0.2-0.422-3.213c-0.144-1.098 0.086-2.04 0.69-2.827 0.61-0.795 1.464-1.264 2.563-1.408v0l0.706-0.093 0.205 1.565z" fill="#21272d" data-fill-palette-color="primary"></path><path d="M135.681 18.805c-1.134 0.048-2.166-0.184-3.096-0.695-0.923-0.505-1.66-1.235-2.209-2.189-0.55-0.954-0.85-2.043-0.902-3.267v0c-0.052-1.223 0.153-2.327 0.614-3.31 0.461-0.976 1.127-1.758 1.998-2.345 0.871-0.581 1.873-0.895 3.006-0.943v0c1.141-0.048 2.173 0.18 3.096 0.685 0.923 0.512 1.66 1.238 2.209 2.179 0.549 0.948 0.85 2.033 0.901 3.256v0c0.052 1.223-0.153 2.33-0.613 3.32-0.461 0.99-1.123 1.775-1.987 2.356-0.87 0.587-1.876 0.905-3.017 0.953zM135.563 17.22c0.818-0.034 1.538-0.268 2.16-0.7 0.615-0.432 1.086-1.023 1.412-1.774 0.327-0.744 0.471-1.576 0.432-2.497v0c-0.039-0.914-0.252-1.728-0.64-2.441-0.388-0.72-0.907-1.27-1.557-1.648-0.656-0.379-1.393-0.551-2.211-0.516v0c-0.797 0.034-1.5 0.266-2.108 0.698-0.615 0.432-1.086 1.017-1.413 1.753-0.327 0.737-0.471 1.565-0.432 2.486v0c0.039 0.935 0.253 1.759 0.641 2.472 0.388 0.72 0.907 1.27 1.556 1.649 0.642 0.379 1.362 0.552 2.16 0.518z" fill="#21272d" data-fill-palette-color="primary"></path><path d="M151.535 6.315c0.412 0.023 0.8 0.107 1.164 0.25v0l-0.088 1.577c-0.348-0.192-0.734-0.299-1.16-0.323v0c-0.728-0.041-1.416 0.128-2.064 0.505-0.654 0.37-1.192 0.929-1.612 1.677-0.428 0.755-0.671 1.657-0.73 2.708v0l-0.318 5.707-1.73-0.096 0.664-11.919 1.73 0.096-0.133 2.39c0.509-0.853 1.128-1.508 1.856-1.963 0.735-0.455 1.542-0.658 2.421-0.609z" fill="#21272d" data-fill-palette-color="primary"></path><path d="M169.113 9.11c1.091 0.188 1.93 0.727 2.516 1.617 0.588 0.883 0.765 1.996 0.534 3.338v0l-1.358 7.869-1.708-0.295 1.228-7.117c0.214-1.24 0.134-2.172-0.24-2.795-0.374-0.623-0.937-0.999-1.69-1.129v0c-0.922-0.159-1.702 0.073-2.34 0.696-0.631 0.624-1.096 1.538-1.394 2.743v0l-1.146 6.639-1.708-0.294 1.228-7.118c0.214-1.24 0.134-2.172-0.24-2.795-0.374-0.623-0.937-0.999-1.69-1.129v0c-1.024-0.177-1.867 0.118-2.529 0.883-0.656 0.766-1.108 1.868-1.356 3.305v0l-1.015 5.887-1.708-0.295 2.029-11.763 1.708 0.294-0.315 1.83c0.51-0.652 1.097-1.119 1.76-1.402 0.656-0.285 1.371-0.36 2.144-0.227v0c0.854 0.147 1.56 0.506 2.117 1.077 0.558 0.571 0.888 1.305 0.992 2.202v0c0.517-0.769 1.131-1.334 1.841-1.692 0.719-0.365 1.499-0.474 2.339-0.329z" fill="#21272d" data-fill-palette-color="primary"></path><path d="M187.029 14.682l1.648 0.539-3.712 11.346-1.647-0.539 0.548-1.677c-0.682 0.493-1.42 0.813-2.213 0.959-0.8 0.144-1.605 0.083-2.415-0.183v0c-1.079-0.353-1.964-0.932-2.656-1.737-0.687-0.797-1.122-1.735-1.305-2.815-0.182-1.08-0.081-2.208 0.304-3.385v0c0.381-1.164 0.959-2.125 1.736-2.884 0.774-0.753 1.672-1.251 2.693-1.497 1.019-0.238 2.068-0.181 3.147 0.172v0c0.824 0.269 1.519 0.699 2.085 1.29 0.567 0.591 0.977 1.293 1.232 2.107v0zM179.683 23.601c0.778 0.254 1.534 0.288 2.268 0.102 0.728-0.189 1.376-0.578 1.944-1.166 0.567-0.582 0.993-1.311 1.28-2.187v0c0.284-0.869 0.37-1.706 0.257-2.51-0.111-0.811-0.404-1.507-0.88-2.09-0.482-0.585-1.112-1.004-1.889-1.259v0c-0.758-0.248-1.498-0.277-2.22-0.085-0.728 0.189-1.374 0.571-1.938 1.146-0.565 0.575-0.99 1.301-1.276 2.177v0c-0.291 0.889-0.38 1.736-0.267 2.54 0.111 0.811 0.404 1.507 0.88 2.09 0.469 0.58 1.082 0.995 1.841 1.242z" fill="#21272d" data-fill-palette-color="primary"></path><path d="M199.065 19.384c0.756 0.349 1.383 0.828 1.881 1.437 0.502 0.603 0.8 1.294 0.896 2.073 0.104 0.775-0.033 1.572-0.411 2.39v0l-3.348 7.25-1.574-0.727 3.028-6.557c0.989-2.142 0.525-3.656-1.392-4.541v0c-1.112-0.513-2.127-0.505-3.046 0.026-0.919 0.53-1.684 1.457-2.295 2.781v0l-2.505 5.423-1.574-0.727 5.005-10.837 1.574 0.727-0.835 1.807c0.691-0.529 1.43-0.84 2.215-0.932 0.788-0.098 1.581 0.037 2.381 0.407z" fill="#21272d" data-fill-palette-color="primary"></path><path d="M205.945 37.778c-0.984-0.606-1.716-1.379-2.195-2.319-0.489-0.939-0.696-1.954-0.621-3.047 0.075-1.093 0.433-2.161 1.074-3.204v0c0.642-1.043 1.43-1.846 2.367-2.408 0.932-0.557 1.926-0.834 2.982-0.831 1.052 0.009 2.065 0.313 3.037 0.912v0c0.826 0.508 1.437 1.13 1.832 1.866 0.399 0.73 0.648 1.578 0.748 2.544v0l-1.6 0.179c-0.078-1.461-0.683-2.54-1.813-3.236v0c-0.68-0.418-1.398-0.622-2.156-0.611-0.757 0.01-1.481 0.235-2.171 0.675-0.687 0.434-1.27 1.04-1.749 1.819v0c-0.483 0.785-0.763 1.582-0.841 2.39-0.081 0.814 0.045 1.562 0.377 2.243 0.332 0.681 0.838 1.23 1.518 1.648v0c0.691 0.425 1.336 0.657 1.935 0.694 0.595 0.043 1.217-0.055 1.865-0.294v0l0.659 1.507c-0.844 0.296-1.728 0.407-2.651 0.332-0.923-0.075-1.789-0.361-2.597-0.859z" fill="#21272d" data-fill-palette-color="primary"></path><path d="M224.38 35.231c0.847 0.658 1.451 1.463 1.81 2.412 0.359 0.95 0.456 1.935 0.29 2.957-0.166 1.021-0.593 1.974-1.281 2.859v0c-0.198 0.255-0.358 0.444-0.48 0.567v0l-7.757-6.026c-0.697 1.009-1.023 2.079-0.979 3.211 0.049 1.136 0.571 2.09 1.565 2.862v0c0.804 0.625 1.588 0.994 2.352 1.109 0.763 0.105 1.517 0.016 2.261-0.269v0l0.52 1.567c-0.984 0.359-1.995 0.454-3.031 0.285-1.03-0.165-2.043-0.633-3.036-1.406v0c-0.912-0.709-1.558-1.559-1.938-2.551-0.378-0.982-0.471-2.012-0.277-3.09 0.193-1.078 0.665-2.101 1.416-3.067v0c0.751-0.967 1.623-1.679 2.615-2.137 0.987-0.452 2.003-0.621 3.046-0.507 1.04 0.12 2.007 0.528 2.904 1.224zM217.918 36.939l6.322 4.912c0.634-1.084 0.877-2.076 0.729-2.974-0.142-0.894-0.663-1.691-1.564-2.392v0c-0.869-0.675-1.798-0.953-2.789-0.834-0.994 0.125-1.894 0.554-2.698 1.288z" fill="#21272d" data-fill-palette-color="primary"></path><path d="M233.036 61.045c-0.976-1.084-1.549-2.266-1.721-3.546-0.172-1.27 0.052-2.569 0.673-3.895 0.625-1.331 1.638-2.627 3.038-3.888v0c1.416-1.275 2.817-2.165 4.203-2.672 1.39-0.502 2.696-0.613 3.919-0.335 1.227 0.284 2.312 0.949 3.255 1.998v0c0.966 1.074 1.56 2.205 1.78 3.395 0.21 1.19 0.079 2.386-0.393 3.589v0l-1.689-0.535c0.383-1.076 0.491-2.03 0.326-2.861-0.17-0.837-0.608-1.646-1.312-2.429v0c-1.012-1.125-2.289-1.572-3.831-1.341-1.541 0.231-3.171 1.119-4.889 2.666v0c-1.125 1.012-1.967 2.035-2.528 3.067-0.561 1.032-0.815 2.015-0.761 2.948 0.058 0.938 0.411 1.768 1.06 2.488v0c0.805 0.895 1.63 1.415 2.475 1.562 0.845 0.137 1.888 0.041 3.127-0.288v0l0.349 1.837c-1.396 0.433-2.691 0.506-3.883 0.22-1.198-0.282-2.264-0.942-3.198-1.98z" fill="#21272d" data-fill-palette-color="primary"></path><path d="M252.7 65.566c0.479 0.681 0.781 1.41 0.907 2.187 0.132 0.773 0.044 1.521-0.265 2.243-0.299 0.723-0.817 1.344-1.553 1.862v0l-6.533 4.594-0.997-1.418 5.908-4.155c1.93-1.357 2.287-2.899 1.073-4.627v0c-0.704-1.002-1.587-1.503-2.648-1.505-1.061-0.002-2.188 0.416-3.381 1.255v0l-4.887 3.436-0.997-1.418 15.149-10.653 0.997 1.418-7.013 4.932c0.864-0.111 1.658-0.01 2.383 0.304 0.731 0.31 1.35 0.825 1.857 1.545z" fill="#21272d" data-fill-palette-color="primary"></path><path d="M260.604 78.812c0.506 0.946 0.73 1.926 0.672 2.94-0.058 1.014-0.371 1.954-0.938 2.818-0.567 0.865-1.345 1.562-2.334 2.091v0c-0.285 0.152-0.508 0.26-0.669 0.323v0l-4.633-8.661c-1.047 0.638-1.781 1.483-2.201 2.535-0.417 1.058-0.329 2.142 0.265 3.251v0c0.48 0.898 1.046 1.554 1.697 1.971 0.654 0.407 1.379 0.631 2.174 0.674v0l-0.162 1.643c-1.045-0.073-2.007-0.397-2.884-0.973-0.874-0.57-1.608-1.41-2.202-2.52v0c-0.545-1.019-0.789-2.059-0.732-3.119 0.054-1.051 0.389-2.029 1.004-2.935 0.615-0.906 1.463-1.648 2.542-2.226v0c1.08-0.577 2.165-0.874 3.257-0.888 1.086-0.011 2.082 0.247 2.99 0.776 0.901 0.532 1.619 1.299 2.154 2.3zM254.006 77.742l3.776 7.06c1.02-0.733 1.646-1.539 1.877-2.419 0.234-0.874 0.082-1.815-0.456-2.822v0c-0.519-0.97-1.255-1.603-2.208-1.896-0.959-0.291-1.955-0.265-2.989 0.077z" fill="#21272d" data-fill-palette-color="primary"></path><path d="M255.263 97.82c-0.428-1.073-0.553-2.13-0.376-3.171 0.168-1.045 0.609-1.983 1.321-2.815 0.712-0.832 1.637-1.475 2.775-1.928v0c1.137-0.453 2.249-0.627 3.336-0.52 1.08 0.11 2.043 0.481 2.888 1.115 0.838 0.636 1.469 1.484 1.892 2.544v0c0.359 0.901 0.478 1.764 0.355 2.591-0.116 0.824-0.422 1.653-0.918 2.488v0l-1.39-0.812c0.81-1.219 0.969-2.445 0.477-3.678v0c-0.296-0.741-0.75-1.334-1.364-1.778-0.614-0.444-1.329-0.696-2.145-0.755-0.81-0.062-1.639 0.076-2.489 0.415v0c-0.856 0.341-1.557 0.813-2.102 1.415-0.551 0.605-0.897 1.279-1.037 2.024-0.14 0.745-0.062 1.487 0.234 2.229v0c0.301 0.754 0.68 1.325 1.138 1.712 0.452 0.39 1.009 0.683 1.671 0.877v0l-0.371 1.603c-0.854-0.267-1.629-0.706-2.325-1.317-0.695-0.611-1.219-1.358-1.57-2.239z" fill="#21272d" data-fill-palette-color="primary"></path><path d="M260.886 114.113l-0.535-1.865 4.761-5.71-1.75-1.012-4.562 1.307-0.478-1.666 17.804-5.101 0.478 1.666-11.129 3.188 6.241 3.654 0.617 2.152-5.79-3.353z" fill="#21272d" data-fill-palette-color="primary"></path><path d="M16.237 192.646l15.174-1.332 0.598 1.715-17.953 1.352-0.657-1.88 12.005-8.029-14.427 1.093-0.649-1.86 14.892-10.119 0.65 1.861-12.595 8.343 15.102-1.164 0.51 1.461z" fill="#21272d" data-fill-palette-color="primary"></path><path d="M30.475 200.893c0.488 0.955 0.694 1.94 0.617 2.952-0.077 1.013-0.407 1.946-0.99 2.8-0.583 0.854-1.374 1.537-2.372 2.047v0c-0.288 0.147-0.513 0.251-0.676 0.311v0l-4.471-8.746c-1.059 0.619-1.808 1.45-2.248 2.493-0.437 1.05-0.369 2.135 0.205 3.256v0c0.463 0.906 1.017 1.574 1.66 2.002 0.647 0.419 1.367 0.657 2.162 0.714v0l-0.193 1.64c-1.044-0.092-1.999-0.434-2.866-1.026-0.864-0.586-1.582-1.439-2.154-2.56v0c-0.526-1.029-0.751-2.073-0.674-3.132 0.074-1.05 0.426-2.022 1.058-2.917 0.632-0.895 1.493-1.621 2.583-2.178v0c1.09-0.557 2.181-0.833 3.273-0.827 1.086 0.009 2.077 0.286 2.975 0.831 0.891 0.549 1.595 1.329 2.111 2.34zM23.898 199.701l3.645 7.129c1.033-0.714 1.674-1.508 1.921-2.385 0.251-0.87 0.116-1.813-0.404-2.829v0c-0.501-0.98-1.225-1.626-2.172-1.937-0.953-0.308-1.95-0.301-2.99 0.022z" fill="#21272d" data-fill-palette-color="primary"></path><path d="M38.214 213.772c0.634 0.95 0.973 1.947 1.018 2.993 0.039 1.049-0.2 2.048-0.717 2.996-0.526 0.947-1.298 1.76-2.316 2.44v0c-1.03 0.687-2.089 1.089-3.179 1.204-1.089 0.115-2.11-0.051-3.062-0.499-0.958-0.444-1.754-1.141-2.388-2.091v0c-0.47-0.704-0.743-1.46-0.819-2.269-0.077-0.809 0.031-1.608 0.322-2.398v0l-1.468 0.98-0.962-1.442 15.404-10.282 0.962 1.442-6.96 4.645c0.853 0.026 1.64 0.233 2.362 0.62 0.721 0.387 1.323 0.941 1.803 1.661zM28.921 219.976c0.447 0.669 1.013 1.152 1.697 1.447 0.689 0.301 1.437 0.393 2.244 0.276 0.805-0.107 1.597-0.421 2.375-0.94v0c0.767-0.512 1.351-1.117 1.753-1.815 0.406-0.693 0.602-1.415 0.588-2.167-0.01-0.746-0.238-1.454-0.685-2.123v0c-0.451-0.675-1.022-1.166-1.715-1.472-0.693-0.307-1.444-0.405-2.255-0.294-0.805 0.107-1.588 0.415-2.349 0.923v0c-0.767 0.512-1.354 1.119-1.762 1.821-0.414 0.706-0.612 1.438-0.594 2.195 0.018 0.757 0.252 1.474 0.703 2.149z" fill="#21272d" data-fill-palette-color="primary"></path><path d="M36.627 232.654c-0.748-0.881-1.218-1.817-1.41-2.809-0.188-0.986-0.087-1.947 0.301-2.881v0l1.59 0.693c-0.617 1.345-0.329 2.72 0.864 4.126v0c0.57 0.671 1.165 1.122 1.785 1.354 0.62 0.231 1.19 0.126 1.709-0.315v0c0.53-0.45 0.771-0.962 0.726-1.536-0.041-0.579-0.4-1.348-1.078-2.306v0c-0.96-1.333-1.439-2.46-1.437-3.382-0.002-0.927 0.371-1.709 1.122-2.346v0c0.844-0.717 1.758-0.969 2.741-0.757 0.983 0.212 1.926 0.85 2.83 1.914v0c1.531 1.804 1.86 3.636 0.986 5.498v0l-1.591-0.694c0.327-0.656 0.433-1.302 0.319-1.935-0.11-0.629-0.445-1.273-1.006-1.935v0c-0.574-0.676-1.136-1.088-1.685-1.235-0.549-0.147-1.049-0.03-1.5 0.353v0c-0.43 0.365-0.614 0.85-0.551 1.456 0.058 0.61 0.443 1.415 1.157 2.415v0c0.875 1.243 1.324 2.341 1.349 3.294 0.015 0.953-0.355 1.75-1.11 2.391v0c-0.608 0.516-1.277 0.786-2.006 0.81-0.728 0.014-1.452-0.175-2.172-0.566-0.719-0.4-1.363-0.936-1.933-1.607z" fill="#21272d" data-fill-palette-color="primary"></path><path d="M45.3 241.44l-1.218-1.234 8.494-8.388 1.218 1.234zM54.837 230.804c-0.276-0.279-0.407-0.608-0.395-0.988 0.007-0.374 0.15-0.699 0.429-0.975v0c0.269-0.266 0.589-0.398 0.958-0.395 0.37 0.002 0.692 0.143 0.968 0.422v0c0.266 0.269 0.4 0.591 0.402 0.966 0.007 0.379-0.128 0.707-0.407 0.982v0c-0.269 0.266-0.596 0.395-0.98 0.388-0.384 0.002-0.709-0.131-0.975-0.4z" fill="#21272d" data-fill-palette-color="primary"></path><path d="M51.696 247.178l-1.312-1.133 6.77-7.84-1.547-1.335 1.032-1.195 1.546 1.335 2.583-2.991 1.312 1.133-2.583 2.991 2.085 1.8-1.031 1.195-2.085-1.8z" fill="#21272d" data-fill-palette-color="primary"></path><path d="M68.349 244.417c0.869 0.629 1.5 1.412 1.891 2.349 0.391 0.937 0.522 1.919 0.39 2.945-0.131 1.026-0.526 1.993-1.183 2.901v0c-0.19 0.262-0.343 0.456-0.46 0.584v0l-7.957-5.76c-0.662 1.032-0.952 2.113-0.87 3.243 0.088 1.134 0.642 2.069 1.662 2.807v0c0.825 0.597 1.621 0.94 2.389 1.029 0.766 0.079 1.516-0.036 2.25-0.346v0l0.573 1.549c-0.972 0.392-1.978 0.521-3.019 0.387-1.035-0.13-2.063-0.564-3.083-1.301v0c-0.936-0.678-1.611-1.505-2.023-2.484-0.411-0.969-0.539-1.995-0.383-3.079 0.156-1.084 0.594-2.122 1.312-3.114v0c0.718-0.992 1.565-1.733 2.54-2.224 0.971-0.486 1.981-0.689 3.027-0.611 1.043 0.084 2.024 0.459 2.944 1.125zM61.949 246.343l6.485 4.695c0.596-1.105 0.806-2.104 0.628-2.997-0.172-0.889-0.72-1.668-1.645-2.337v0c-0.891-0.645-1.83-0.892-2.815-0.739-0.989 0.158-1.874 0.618-2.653 1.378z" fill="#21272d" data-fill-palette-color="primary"></path><path d="M81.611 266.547l7.076-15.891 5.316 2.367c1.426 0.635 2.374 1.577 2.842 2.824 0.466 1.254 0.357 2.648-0.326 4.181v0c-0.68 1.527-1.659 2.525-2.937 2.995-1.281 0.476-2.66 0.385-4.137-0.272v0l-3.384-1.507-2.707 6.079zM86.708 259.792l3.336 1.486c1.037 0.462 1.957 0.525 2.762 0.191 0.807-0.341 1.464-1.08 1.97-2.218v0c0.504-1.131 0.614-2.114 0.33-2.948-0.284-0.834-0.944-1.482-1.981-1.943v0l-3.337-1.486z" fill="#21272d" data-fill-palette-color="primary"></path><path d="M104.052 261.98c1.024 0.32 1.871 0.863 2.54 1.627 0.669 0.764 1.104 1.654 1.306 2.668 0.202 1.014 0.135 2.057-0.2 3.126v0c-0.097 0.309-0.18 0.542-0.251 0.7v0l-9.375-2.932c-0.3 1.189-0.231 2.306 0.206 3.351 0.444 1.047 1.266 1.758 2.468 2.133v0c0.972 0.304 1.836 0.376 2.592 0.217 0.752-0.168 1.426-0.516 2.023-1.043v0l1.036 1.286c-0.797 0.681-1.71 1.123-2.74 1.327-1.023 0.206-2.135 0.121-3.336-0.255v0c-1.103-0.345-2.005-0.916-2.708-1.711-0.698-0.788-1.145-1.72-1.341-2.798-0.196-1.078-0.112-2.201 0.254-3.369v0c0.366-1.169 0.933-2.141 1.701-2.917 0.767-0.769 1.659-1.283 2.677-1.541 1.016-0.252 2.065-0.208 3.148 0.131zM98.596 265.841l7.641 2.39c0.214-1.238 0.095-2.251-0.356-3.041-0.445-0.788-1.213-1.352-2.303-1.694v0c-1.05-0.329-2.018-0.264-2.904 0.195-0.888 0.465-1.58 1.181-2.078 2.15z" fill="#21272d" data-fill-palette-color="primary"></path><path d="M118.653 265.61c0.404 0.084 0.775 0.225 1.113 0.422v0l-0.322 1.545c-0.315-0.241-0.681-0.405-1.098-0.492v0c-0.714-0.149-1.419-0.085-2.117 0.191-0.702 0.268-1.317 0.741-1.844 1.418-0.536 0.682-0.911 1.539-1.125 2.569v0l-1.166 5.596-1.697-0.353 2.434-11.687 1.697 0.353-0.488 2.344c0.631-0.768 1.34-1.323 2.128-1.665 0.795-0.34 1.623-0.421 2.485-0.241z" fill="#21272d" data-fill-palette-color="primary"></path><path d="M127.535 261.772c-0.593-0.078-1.108 0.063-1.544 0.422-0.428 0.353-0.684 0.85-0.768 1.491v0l-0.422 3.212 2.732 0.359-0.206 1.565-2.731-0.359-1.349 10.271-1.718-0.226 1.348-10.271-1.524-0.2 0.206-1.565 1.524 0.2 0.422-3.212c0.144-1.098 0.61-1.949 1.396-2.553 0.795-0.61 1.741-0.843 2.839-0.699v0l0.706 0.092-0.205 1.565z" fill="#21272d" data-fill-palette-color="primary"></path><path d="M135.144 279.994c-1.134-0.048-2.143-0.366-3.027-0.954-0.877-0.581-1.55-1.37-2.017-2.367-0.467-0.997-0.675-2.108-0.624-3.331v0c0.052-1.223 0.349-2.305 0.891-3.246 0.542-0.934 1.271-1.657 2.188-2.17 0.916-0.505 1.941-0.734 3.075-0.686v0c1.141 0.048 2.15 0.363 3.027 0.944 0.877 0.588 1.55 1.373 2.018 2.357 0.468 0.99 0.676 2.097 0.624 3.32v0c-0.052 1.223-0.349 2.309-0.891 3.257-0.543 0.948-1.269 1.675-2.178 2.18-0.917 0.512-1.945 0.744-3.086 0.696zM135.159 278.404c0.818 0.034 1.555-0.138 2.211-0.516 0.649-0.379 1.168-0.928 1.557-1.648 0.388-0.713 0.602-1.531 0.64-2.452v0c0.039-0.914-0.105-1.743-0.432-2.486-0.326-0.75-0.797-1.342-1.412-1.774-0.622-0.432-1.342-0.666-2.16-0.7v0c-0.797-0.034-1.517 0.139-2.16 0.518-0.649 0.379-1.168 0.921-1.555 1.628-0.388 0.707-0.601 1.52-0.64 2.441v0c-0.039 0.935 0.104 1.774 0.431 2.517 0.326 0.75 0.797 1.342 1.412 1.774 0.608 0.432 1.311 0.665 2.108 0.698z" fill="#21272d" data-fill-palette-color="primary"></path><path d="M150.825 266.99c0.412-0.023 0.807 0.017 1.185 0.12v0l0.088 1.576c-0.367-0.152-0.763-0.216-1.189-0.192v0c-0.728 0.041-1.393 0.284-1.995 0.731-0.609 0.44-1.081 1.056-1.416 1.846-0.341 0.797-0.483 1.722-0.424 2.773v0l0.318 5.707-1.731 0.096-0.664-11.919 1.731-0.096 0.133 2.39c0.411-0.905 0.953-1.624 1.626-2.158 0.68-0.534 1.459-0.825 2.338-0.874z" fill="#21272d" data-fill-palette-color="primary"></path><path d="M166.943 264.361c1.091-0.188 2.062 0.039 2.913 0.681 0.849 0.635 1.39 1.624 1.621 2.966v0l1.358 7.869-1.708 0.295-1.228-7.117c-0.214-1.24-0.602-2.091-1.163-2.553-0.561-0.462-1.218-0.627-1.971-0.498v0c-0.922 0.159-1.579 0.639-1.971 1.44-0.386 0.799-0.517 1.817-0.395 3.052v0l1.146 6.639-1.708 0.295-1.228-7.117c-0.214-1.24-0.602-2.091-1.163-2.553-0.561-0.462-1.218-0.627-1.971-0.498v0c-1.024 0.177-1.719 0.736-2.087 1.679-0.361 0.942-0.418 2.131-0.169 3.568v0l1.016 5.887-1.708 0.295-2.03-11.764 1.708-0.294 0.316 1.83c0.262-0.785 0.658-1.422 1.188-1.912 0.523-0.488 1.171-0.799 1.944-0.932v0c0.854-0.147 1.639-0.046 2.356 0.305 0.717 0.351 1.274 0.932 1.672 1.743v0c0.229-0.898 0.618-1.635 1.168-2.212 0.555-0.584 1.253-0.949 2.094-1.094z" fill="#21272d" data-fill-palette-color="primary"></path><path d="M183.318 260.02l1.648-0.539 3.711 11.346-1.647 0.539-0.549-1.677c-0.259 0.801-0.665 1.495-1.219 2.081-0.56 0.589-1.246 1.015-2.056 1.281v0c-1.079 0.353-2.135 0.409-3.169 0.168-1.025-0.236-1.931-0.736-2.716-1.5-0.785-0.764-1.37-1.734-1.755-2.91v0c-0.381-1.164-0.482-2.281-0.305-3.353 0.18-1.065 0.609-1.998 1.289-2.799 0.681-0.794 1.561-1.368 2.639-1.721v0c0.824-0.269 1.639-0.333 2.445-0.192 0.806 0.142 1.553 0.466 2.239 0.972v0zM182.663 271.556c0.778-0.254 1.408-0.674 1.89-1.258 0.475-0.582 0.768-1.279 0.879-2.09 0.113-0.804 0.027-1.644-0.26-2.52v0c-0.284-0.869-0.71-1.595-1.276-2.177-0.569-0.588-1.217-0.977-1.945-1.166-0.734-0.187-1.49-0.153-2.268 0.101v0c-0.758 0.248-1.372 0.662-1.841 1.243-0.475 0.582-0.771 1.272-0.886 2.07-0.115 0.798-0.03 1.634 0.257 2.511v0c0.291 0.889 0.72 1.625 1.286 2.206 0.569 0.588 1.217 0.977 1.945 1.166 0.721 0.191 1.461 0.163 2.219-0.086z" fill="#21272d" data-fill-palette-color="primary"></path><path d="M193.714 255.077c0.756-0.349 1.527-0.516 2.314-0.501 0.785 0.009 1.504 0.23 2.159 0.663 0.658 0.424 1.176 1.044 1.553 1.862v0l3.348 7.25-1.573 0.727-3.028-6.557c-0.989-2.142-2.442-2.77-4.36-1.885v0c-1.112 0.513-1.763 1.292-1.956 2.336-0.192 1.043 0.017 2.227 0.629 3.551v0l2.505 5.423-1.574 0.727-5.005-10.838 1.573-0.726 0.835 1.807c0.045-0.87 0.288-1.633 0.727-2.29 0.436-0.664 1.054-1.18 1.853-1.549z" fill="#21272d" data-fill-palette-color="primary"></path><path d="M212.633 259.14c-0.984 0.606-2.004 0.91-3.06 0.913-1.058 0.013-2.058-0.26-2.999-0.819-0.942-0.559-1.733-1.36-2.375-2.404v0c-0.642-1.043-1.003-2.109-1.083-3.198-0.077-1.083 0.124-2.095 0.603-3.036 0.483-0.935 1.21-1.702 2.183-2.3v0c0.826-0.508 1.657-0.773 2.491-0.794 0.831-0.027 1.701 0.133 2.609 0.479v0l-0.562 1.509c-1.34-0.589-2.575-0.536-3.706 0.16v0c-0.68 0.418-1.185 0.968-1.517 1.648-0.332 0.681-0.458 1.428-0.377 2.243 0.077 0.808 0.356 1.602 0.835 2.381v0c0.483 0.785 1.068 1.394 1.755 1.828 0.69 0.439 1.414 0.664 2.171 0.675 0.757 0.01 1.476-0.193 2.156-0.612v0c0.691-0.425 1.189-0.897 1.492-1.414 0.307-0.512 0.5-1.111 0.578-1.797v0l1.643 0.091c-0.116 0.887-0.416 1.726-0.899 2.516-0.483 0.79-1.129 1.433-1.938 1.931z" fill="#21272d" data-fill-palette-color="primary"></path><path d="M216.549 240.739c0.847-0.658 1.776-1.044 2.785-1.158 1.009-0.114 1.988 0.036 2.937 0.449 0.948 0.413 1.766 1.062 2.454 1.948v0c0.198 0.255 0.342 0.457 0.431 0.605v0l-7.756 6.027c0.806 0.925 1.762 1.505 2.87 1.742 1.113 0.233 2.166-0.037 3.16-0.809v0c0.804-0.625 1.356-1.293 1.656-2.005 0.29-0.714 0.39-1.466 0.298-2.257v0l1.647-0.117c0.104 1.043-0.053 2.045-0.473 3.007-0.414 0.958-1.118 1.823-2.112 2.595v0c-0.912 0.709-1.896 1.125-2.951 1.247-1.045 0.124-2.066-0.041-3.063-0.494-0.997-0.454-1.871-1.164-2.622-2.131v0c-0.751-0.967-1.226-1.987-1.425-3.061-0.194-1.068-0.107-2.094 0.261-3.077 0.373-0.978 1.007-1.815 1.904-2.511zM216.608 247.422l6.322-4.912c-0.894-0.882-1.795-1.362-2.701-1.442-0.901-0.084-1.803 0.225-2.705 0.925v0c-0.869 0.675-1.368 1.507-1.497 2.496-0.125 0.994 0.069 1.972 0.581 2.933z" fill="#21272d" data-fill-palette-color="primary"></path><path d="M242.523 233.541c-0.976 1.084-2.091 1.778-3.347 2.083-1.245 0.304-2.56 0.217-3.944-0.261-1.389-0.482-2.784-1.354-4.184-2.614v0c-1.416-1.275-2.449-2.574-3.098-3.9-0.645-1.33-0.892-2.617-0.744-3.862 0.153-1.25 0.702-2.399 1.645-3.447v0c0.966-1.074 2.03-1.782 3.191-2.125 1.161-0.334 2.364-0.329 3.61 0.015v0l-0.355 1.735c-1.11-0.268-2.07-0.276-2.879-0.024-0.814 0.257-1.574 0.777-2.278 1.559v0c-1.012 1.125-1.323 2.441-0.932 3.95 0.391 1.509 1.445 3.036 3.163 4.583v0c1.125 1.012 2.23 1.743 3.315 2.192 1.085 0.45 2.089 0.599 3.011 0.449 0.927-0.156 1.715-0.594 2.364-1.315v0c0.805-0.895 1.237-1.77 1.294-2.625 0.048-0.855-0.157-1.881-0.615-3.08v0l1.791-0.54c0.577 1.343 0.786 2.623 0.625 3.839-0.155 1.221-0.7 2.35-1.633 3.388z" fill="#21272d" data-fill-palette-color="primary"></path><path d="M242.261 213.139c0.479-0.681 1.063-1.212 1.751-1.594 0.683-0.386 1.416-0.555 2.2-0.509 0.781 0.037 1.541 0.314 2.278 0.833v0l6.532 4.594-0.997 1.417-5.908-4.154c-1.93-1.357-3.502-1.172-4.717 0.555v0c-0.704 1.002-0.878 2.002-0.521 3.001 0.357 0.999 1.132 1.918 2.325 2.757v0l4.886 3.437-0.997 1.418-15.149-10.654 0.997-1.418 7.013 4.932c-0.397-0.775-0.57-1.557-0.52-2.345 0.045-0.793 0.32-1.549 0.827-2.27z" fill="#21272d" data-fill-palette-color="primary"></path><path d="M249.351 201.216c0.506-0.946 1.197-1.676 2.073-2.191 0.876-0.514 1.831-0.776 2.865-0.785 1.034-0.008 2.046 0.252 3.034 0.781v0c0.285 0.152 0.499 0.278 0.641 0.378v0l-4.633 8.661c1.112 0.517 2.222 0.658 3.33 0.424 1.111-0.24 1.964-0.915 2.558-2.025v0c0.48-0.898 0.712-1.733 0.696-2.506-0.025-0.77-0.24-1.498-0.646-2.183v0l1.457-0.777c0.52 0.91 0.783 1.889 0.792 2.939 0.011 1.044-0.28 2.12-0.874 3.231v0c-0.545 1.019-1.274 1.799-2.188 2.34-0.904 0.538-1.904 0.803-2.999 0.794-1.095-0.009-2.183-0.302-3.262-0.879v0c-1.08-0.577-1.929-1.316-2.547-2.217-0.612-0.897-0.95-1.869-1.014-2.917-0.057-1.045 0.182-2.068 0.717-3.068zM252.124 207.297l3.776-7.06c-1.176-0.442-2.194-0.514-3.054-0.218-0.857 0.29-1.555 0.939-2.094 1.946v0c-0.519 0.97-0.636 1.933-0.352 2.889 0.291 0.959 0.865 1.773 1.724 2.443z" fill="#21272d" data-fill-palette-color="primary"></path><path d="M267.119 192.954c-0.428 1.073-1.064 1.927-1.909 2.56-0.841 0.642-1.806 1.02-2.896 1.133-1.089 0.114-2.203-0.056-3.34-0.51v0c-1.137-0.453-2.063-1.093-2.778-1.918-0.709-0.823-1.151-1.755-1.329-2.796-0.171-1.038-0.045-2.088 0.378-3.148v0c0.359-0.901 0.867-1.609 1.525-2.125 0.651-0.518 1.444-0.909 2.378-1.173v0l0.45 1.546c-1.426 0.327-2.385 1.107-2.877 2.34v0c-0.296 0.741-0.373 1.484-0.233 2.229 0.14 0.745 0.486 1.419 1.037 2.024 0.545 0.602 1.242 1.073 2.091 1.411v0c0.856 0.341 1.689 0.481 2.499 0.419 0.816-0.06 1.531-0.311 2.145-0.755 0.614-0.444 1.069-1.036 1.364-1.778v0c0.301-0.754 0.418-1.429 0.352-2.025-0.059-0.594-0.263-1.19-0.609-1.787v0l1.373-0.908c0.436 0.781 0.697 1.633 0.781 2.555 0.084 0.922-0.05 1.824-0.402 2.706z" fill="#21272d" data-fill-palette-color="primary"></path><path d="M272.363 175.222l-0.535 1.864-7.062 2.324 0.948 1.785 4.563 1.307-0.477 1.666-17.804-5.101 0.477-1.666 11.129 3.188-3.36-6.404 0.617-2.152 3.136 5.911z" fill="#21272d" data-fill-palette-color="primary"></path><path d="M2.757 143.023c0-3.998 3.241-7.239 7.239-7.239 3.998 0 7.239 3.241 7.239 7.239 0 3.998-3.241 7.239-7.239 7.24-3.998 0-7.239-3.241-7.239-7.24z" fill="#21272d" data-fill-palette-color="primary"></path><path d="M262.765 143.023c0-3.998 3.241-7.239 7.239-7.239 3.998 0 7.239 3.241 7.239 7.239 0 3.998-3.241 7.239-7.239 7.24-3.998 0-7.239-3.241-7.239-7.24z" fill="#21272d" data-fill-palette-color="primary"></path></g><g id="text-1"></g></svg></g></svg></g></svg></g></svg></g><defs></defs></svg><rect width="280" height="280" fill="none" stroke="none" visibility="hidden"></rect></g></svg></g></svg>